<svg class="main-svg" xmlns="http://www.w3.org/2000/svg" xmlns:xlink="http://www.w3.org/1999/xlink" width="800" height="392" style="" viewBox="0 0 800 392"><rect x="0" y="0" width="800" height="392" style="fill: rgb(255, 255, 255); fill-opacity: 1;"/><defs id="defs-6ce80e"><g class="clips"><clipPath id="clip6ce80exyplot" class="plotclip"><rect width="730" height="156.96"/></clipPath><clipPath id="clip6ce80exy2plot" class="plotclip"><rect width="730" height="156.96"/></clipPath><clipPath class="axesclip" id="clip6ce80ex"><rect x="60" y="0" width="730" height="392"/></clipPath><clipPath class="axesclip" id="clip6ce80ey"><rect x="0" y="25" width="800" height="156.96"/></clipPath><clipPath class="axesclip" id="clip6ce80exy"><rect x="60" y="25" width="730" height="156.96"/></clipPath><clipPath class="axesclip" id="clip6ce80ey2"><rect x="0" y="195.04" width="800" height="156.96"/></clipPath><clipPath class="axesclip" id="clip6ce80exy2"><rect x="60" y="195.04" width="730" height="156.96"/></clipPath></g><g class="gradients"/></defs><g class="bglayer"/><g class="layer-below"><g class="imagelayer"/><g class="shapelayer"/></g><g class="cartesianlayer"><g class="subplot xy"><g class="layer-subplot"><g class="shapelayer"/><g class="imagelayer"/></g><g class="gridlayer"><g class="x"/><g class="y"><path class="ygrid crisp" transform="translate(0,119.83)" d="M60,0h730" style="stroke: rgb(238, 238, 238); stroke-opacity: 1; stroke-width: 1px;"/><path class="ygrid crisp" transform="translate(0,57.7)" d="M60,0h730" style="stroke: rgb(238, 238, 238); stroke-opacity: 1; stroke-width: 1px;"/></g></g><g class="zerolinelayer"><path class="yzl zl crisp" transform="translate(0,181.96)" d="M60,0h730" style="stroke: rgb(68, 68, 68); stroke-opacity: 1; stroke-width: 1px;"/></g><path class="xlines-below"/><path class="ylines-below"/><g class="overlines-below"/><g class="xaxislayer-below"/><g class="yaxislayer-below"/><g class="overaxes-below"/><g class="plot" transform="translate(60, 25)" clip-path="url('#clip6ce80exyplot')"><g class="barlayer mlayer"><g class="trace bars" style="opacity: 1;"><g class="points"><g class="point"><path style="vector-effect: non-scaling-stroke; opacity: 1; stroke-width: 0px; fill: rgb(102, 194, 165); fill-opacity: 1;" d="M11.38,156.96V144.53H22.93V156.96Z"/><text class="bartext bartext-outside" text-anchor="middle" data-notex="1" style="font-family: TOBESTRIPPEDOpen SansTOBESTRIPPED, verdana, arial, sans-serif; font-size: 12px; fill: rgb(0, 0, 0); fill-opacity: 1; white-space: pre;" x="0" y="0" transform="translate(17.155198364257814,136.53)">4</text></g><g class="point"><path style="vector-effect: non-scaling-stroke; opacity: 1; stroke-width: 0px; fill: rgb(102, 194, 165); fill-opacity: 1;" d="M83.55,156.96V129H95.1V156.96Z"/><text class="bartext bartext-outside" text-anchor="middle" data-notex="1" style="font-family: TOBESTRIPPEDOpen SansTOBESTRIPPED, verdana, arial, sans-serif; font-size: 12px; fill: rgb(0, 0, 0); fill-opacity: 1; white-space: pre;" x="0" y="0" transform="translate(89.3251983642578,121)">9</text></g><g class="point"><path style="vector-effect: non-scaling-stroke; opacity: 1; stroke-width: 0px; fill: rgb(102, 194, 165); fill-opacity: 1;" d="M155.72,156.96V132.11H167.26V156.96Z"/><text class="bartext bartext-outside" text-anchor="middle" data-notex="1" style="font-family: TOBESTRIPPEDOpen SansTOBESTRIPPED, verdana, arial, sans-serif; font-size: 12px; fill: rgb(0, 0, 0); fill-opacity: 1; white-space: pre;" x="0" y="0" transform="translate(161.49019836425782,124.11000000000001)">8</text></g><g class="point"><path style="vector-effect: non-scaling-stroke; opacity: 1; stroke-width: 0px; fill: rgb(102, 194, 165); fill-opacity: 1;" d="M227.88,156.96V132.11H239.43V156.96Z"/><text class="bartext bartext-outside" text-anchor="middle" data-notex="1" style="font-family: TOBESTRIPPEDOpen SansTOBESTRIPPED, verdana, arial, sans-serif; font-size: 12px; fill: rgb(0, 0, 0); fill-opacity: 1; white-space: pre;" x="0" y="0" transform="translate(233.6551983642578,124.11000000000001)">8</text></g><g class="point"><path style="vector-effect: non-scaling-stroke; opacity: 1; stroke-width: 0px; fill: rgb(102, 194, 165); fill-opacity: 1;" d="M300.05,156.96V107.26H311.6V156.96Z"/><text class="bartext bartext-outside" text-anchor="middle" data-notex="1" style="font-family: TOBESTRIPPEDOpen SansTOBESTRIPPED, verdana, arial, sans-serif; font-size: 12px; fill: rgb(0, 0, 0); fill-opacity: 1; white-space: pre;" x="0" y="0" transform="translate(305.8253353385904,100.59720835704414)scale(0.7325583285911722)">16</text></g><g class="point"><path style="vector-effect: non-scaling-stroke; opacity: 1; stroke-width: 0px; fill: rgb(102, 194, 165); fill-opacity: 1;" d="M372.22,156.96V79.3H383.76V156.96Z"/><text class="bartext bartext-outside" text-anchor="middle" data-notex="1" style="font-family: TOBESTRIPPEDOpen SansTOBESTRIPPED, verdana, arial, sans-serif; font-size: 12px; fill: rgb(0, 0, 0); fill-opacity: 1; white-space: pre;" x="0" y="0" transform="translate(377.99033504825394,72.64037960521988)scale(0.7319240789560253)">25</text></g><g class="point"><path style="vector-effect: non-scaling-stroke; opacity: 1; stroke-width: 0px; fill: rgb(102, 194, 165); fill-opacity: 1;" d="M444.38,156.96V7.85H455.93V156.96Z"/><text class="bartext bartext-outside" text-anchor="middle" data-notex="1" style="font-family: TOBESTRIPPEDOpen SansTOBESTRIPPED, verdana, arial, sans-serif; font-size: 12px; fill: rgb(0, 0, 0); fill-opacity: 1; white-space: pre;" x="0" y="0" transform="translate(450.1553353385903,1.1872083570441387)scale(0.7325583285911722)">48</text></g><g class="point"><path style="vector-effect: non-scaling-stroke; opacity: 1; stroke-width: 0px; fill: rgb(102, 194, 165); fill-opacity: 1;" d="M516.55,156.96V48.23H528.1V156.96Z"/><text class="bartext bartext-outside" text-anchor="middle" data-notex="1" style="font-family: TOBESTRIPPEDOpen SansTOBESTRIPPED, verdana, arial, sans-serif; font-size: 12px; fill: rgb(0, 0, 0); fill-opacity: 1; white-space: pre;" x="0" y="0" transform="translate(522.3253353385904,41.567208357044116)scale(0.7325583285911758)">35</text></g><g class="point"><path style="vector-effect: non-scaling-stroke; opacity: 1; stroke-width: 0px; fill: rgb(102, 194, 165); fill-opacity: 1;" d="M588.72,156.96V45.13H600.26V156.96Z"/><text class="bartext bartext-outside" text-anchor="middle" data-notex="1" style="font-family: TOBESTRIPPEDOpen SansTOBESTRIPPED, verdana, arial, sans-serif; font-size: 12px; fill: rgb(0, 0, 0); fill-opacity: 1; white-space: pre;" x="0" y="0" transform="translate(594.4903350482539,38.470379605219875)scale(0.7319240789560253)">36</text></g><g class="point"><path style="vector-effect: non-scaling-stroke; opacity: 1; stroke-width: 0px; fill: rgb(102, 194, 165); fill-opacity: 1;" d="M660.88,156.96V66.87H672.43V156.96Z"/><text class="bartext bartext-outside" text-anchor="middle" data-notex="1" style="font-family: TOBESTRIPPEDOpen SansTOBESTRIPPED, verdana, arial, sans-serif; font-size: 12px; fill: rgb(0, 0, 0); fill-opacity: 1; white-space: pre;" x="0" y="0" transform="translate(666.6553353385904,60.20720835704416)scale(0.7325583285911685)">29</text></g></g></g><g class="trace bars" style="opacity: 1;"><g class="points"><g class="point"><path style="vector-effect: non-scaling-stroke; opacity: 1; stroke-width: 0px; fill: rgb(231, 138, 195); fill-opacity: 1;" d="M22.93,156.96V132.11H34.48V156.96Z"/><text class="bartext bartext-outside" text-anchor="middle" data-notex="1" style="font-family: TOBESTRIPPEDOpen SansTOBESTRIPPED, verdana, arial, sans-serif; font-size: 12px; fill: rgb(0, 0, 0); fill-opacity: 1; white-space: pre;" x="0" y="0" transform="translate(28.70519836425781,124.11000000000001)">8</text></g><g class="point"><path style="vector-effect: non-scaling-stroke; opacity: 1; stroke-width: 0px; fill: rgb(231, 138, 195); fill-opacity: 1;" d="M95.1,156.96V147.64H106.64V156.96Z"/><text class="bartext bartext-outside" text-anchor="middle" data-notex="1" style="font-family: TOBESTRIPPEDOpen SansTOBESTRIPPED, verdana, arial, sans-serif; font-size: 12px; fill: rgb(0, 0, 0); fill-opacity: 1; white-space: pre;" x="0" y="0" transform="translate(100.87019836425782,139.64)">3</text></g><g class="point"><path style="vector-effect: non-scaling-stroke; opacity: 1; stroke-width: 0px; fill: rgb(231, 138, 195); fill-opacity: 1;" d="M167.26,156.96V129H178.81V156.96Z"/><text class="bartext bartext-outside" text-anchor="middle" data-notex="1" style="font-family: TOBESTRIPPEDOpen SansTOBESTRIPPED, verdana, arial, sans-serif; font-size: 12px; fill: rgb(0, 0, 0); fill-opacity: 1; white-space: pre;" x="0" y="0" transform="translate(173.0351983642578,121)">9</text></g><g class="point"><path style="vector-effect: non-scaling-stroke; opacity: 1; stroke-width: 0px; fill: rgb(231, 138, 195); fill-opacity: 1;" d="M239.43,156.96V122.79H250.98V156.96Z"/><text class="bartext bartext-outside" text-anchor="middle" data-notex="1" style="font-family: TOBESTRIPPEDOpen SansTOBESTRIPPED, verdana, arial, sans-serif; font-size: 12px; fill: rgb(0, 0, 0); fill-opacity: 1; white-space: pre;" x="0" y="0" transform="translate(245.20533533859034,116.12720835704415)scale(0.7325583285911703)">11</text></g><g class="point"><path style="vector-effect: non-scaling-stroke; opacity: 1; stroke-width: 0px; fill: rgb(231, 138, 195); fill-opacity: 1;" d="M311.6,156.96V119.68H323.14V156.96Z"/><text class="bartext bartext-outside" text-anchor="middle" data-notex="1" style="font-family: TOBESTRIPPEDOpen SansTOBESTRIPPED, verdana, arial, sans-serif; font-size: 12px; fill: rgb(0, 0, 0); fill-opacity: 1; white-space: pre;" x="0" y="0" transform="translate(317.37033504825393,113.02037960521989)scale(0.7319240789560253)">12</text></g><g class="point"><path style="vector-effect: non-scaling-stroke; opacity: 1; stroke-width: 0px; fill: rgb(231, 138, 195); fill-opacity: 1;" d="M383.76,156.96V79.3H395.31V156.96Z"/><text class="bartext bartext-outside" text-anchor="middle" data-notex="1" style="font-family: TOBESTRIPPEDOpen SansTOBESTRIPPED, verdana, arial, sans-serif; font-size: 12px; fill: rgb(0, 0, 0); fill-opacity: 1; white-space: pre;" x="0" y="0" transform="translate(389.5353353385903,72.63720835704413)scale(0.7325583285911722)">25</text></g><g class="point"><path style="vector-effect: non-scaling-stroke; opacity: 1; stroke-width: 0px; fill: rgb(231, 138, 195); fill-opacity: 1;" d="M455.93,156.96V48.23H467.48V156.96Z"/><text class="bartext bartext-outside" text-anchor="middle" data-notex="1" style="font-family: TOBESTRIPPEDOpen SansTOBESTRIPPED, verdana, arial, sans-serif; font-size: 12px; fill: rgb(0, 0, 0); fill-opacity: 1; white-space: pre;" x="0" y="0" transform="translate(461.7053353385904,41.56720835704414)scale(0.7325583285911722)">35</text></g><g class="point"><path style="vector-effect: non-scaling-stroke; opacity: 1; stroke-width: 0px; fill: rgb(231, 138, 195); fill-opacity: 1;" d="M528.1,156.96V91.72H539.64V156.96Z"/><text class="bartext bartext-outside" text-anchor="middle" data-notex="1" style="font-family: TOBESTRIPPEDOpen SansTOBESTRIPPED, verdana, arial, sans-serif; font-size: 12px; fill: rgb(0, 0, 0); fill-opacity: 1; white-space: pre;" x="0" y="0" transform="translate(533.8703350482539,85.06037960521988)scale(0.7319240789560253)">21</text></g><g class="point"><path style="vector-effect: non-scaling-stroke; opacity: 1; stroke-width: 0px; fill: rgb(231, 138, 195); fill-opacity: 1;" d="M600.26,156.96V97.94H611.81V156.96Z"/><text class="bartext bartext-outside" text-anchor="middle" data-notex="1" style="font-family: TOBESTRIPPEDOpen SansTOBESTRIPPED, verdana, arial, sans-serif; font-size: 12px; fill: rgb(0, 0, 0); fill-opacity: 1; white-space: pre;" x="0" y="0" transform="translate(606.0353353385904,91.27720835704416)scale(0.7325583285911685)">19</text></g><g class="point"><path style="vector-effect: non-scaling-stroke; opacity: 1; stroke-width: 0px; fill: rgb(231, 138, 195); fill-opacity: 1;" d="M672.43,156.96V82.4H683.98V156.96Z"/><text class="bartext bartext-outside" text-anchor="middle" data-notex="1" style="font-family: TOBESTRIPPEDOpen SansTOBESTRIPPED, verdana, arial, sans-serif; font-size: 12px; fill: rgb(0, 0, 0); fill-opacity: 1; white-space: pre;" x="0" y="0" transform="translate(678.2053353385903,75.73720835704412)scale(0.7325583285911758)">24</text></g></g></g><g class="trace bars" style="opacity: 1;"><g class="points"><g class="point"><path style="vector-effect: non-scaling-stroke; opacity: 1; stroke-width: 0px; fill: rgb(166, 216, 84); fill-opacity: 1;" d="M34.48,156.96V153.85H46.02V156.96Z"/><text class="bartext bartext-outside" text-anchor="middle" data-notex="1" style="font-family: TOBESTRIPPEDOpen SansTOBESTRIPPED, verdana, arial, sans-serif; font-size: 12px; fill: rgb(0, 0, 0); fill-opacity: 1; white-space: pre;" x="0" y="0" transform="translate(40.25019836425781,145.85)">1</text></g><g class="point"><path style="vector-effect: non-scaling-stroke; opacity: 1; stroke-width: 0px; fill: rgb(166, 216, 84); fill-opacity: 1;" d="M106.64,156.96V153.85H118.19V156.96Z"/><text class="bartext bartext-outside" text-anchor="middle" data-notex="1" style="font-family: TOBESTRIPPEDOpen SansTOBESTRIPPED, verdana, arial, sans-serif; font-size: 12px; fill: rgb(0, 0, 0); fill-opacity: 1; white-space: pre;" x="0" y="0" transform="translate(112.4151983642578,145.85)">1</text></g><g class="point"><path style="vector-effect: non-scaling-stroke; opacity: 1; stroke-width: 0px; fill: rgb(166, 216, 84); fill-opacity: 1;" d="M178.81,156.96V147.64H190.36V156.96Z"/><text class="bartext bartext-outside" text-anchor="middle" data-notex="1" style="font-family: TOBESTRIPPEDOpen SansTOBESTRIPPED, verdana, arial, sans-serif; font-size: 12px; fill: rgb(0, 0, 0); fill-opacity: 1; white-space: pre;" x="0" y="0" transform="translate(184.58519836425782,139.64)">3</text></g><g class="point"><path style="vector-effect: non-scaling-stroke; opacity: 1; stroke-width: 0px; fill: rgb(166, 216, 84); fill-opacity: 1;" d="M250.98,156.96V150.75H262.52V156.96Z"/><text class="bartext bartext-outside" text-anchor="middle" data-notex="1" style="font-family: TOBESTRIPPEDOpen SansTOBESTRIPPED, verdana, arial, sans-serif; font-size: 12px; fill: rgb(0, 0, 0); fill-opacity: 1; white-space: pre;" x="0" y="0" transform="translate(256.7501983642578,142.75)">2</text></g><g class="point"><path style="vector-effect: non-scaling-stroke; opacity: 1; stroke-width: 0px; fill: rgb(166, 216, 84); fill-opacity: 1;" d="M323.14,156.96V144.53H334.69V156.96Z"/><text class="bartext bartext-outside" text-anchor="middle" data-notex="1" style="font-family: TOBESTRIPPEDOpen SansTOBESTRIPPED, verdana, arial, sans-serif; font-size: 12px; fill: rgb(0, 0, 0); fill-opacity: 1; white-space: pre;" x="0" y="0" transform="translate(328.9151983642578,136.53)">4</text></g><g class="point"><path style="vector-effect: non-scaling-stroke; opacity: 1; stroke-width: 0px; fill: rgb(166, 216, 84); fill-opacity: 1;" d="M395.31,156.96V129H406.86V156.96Z"/><text class="bartext bartext-outside" text-anchor="middle" data-notex="1" style="font-family: TOBESTRIPPEDOpen SansTOBESTRIPPED, verdana, arial, sans-serif; font-size: 12px; fill: rgb(0, 0, 0); fill-opacity: 1; white-space: pre;" x="0" y="0" transform="translate(401.08519836425785,121)">9</text></g><g class="point"><path style="vector-effect: non-scaling-stroke; opacity: 1; stroke-width: 0px; fill: rgb(166, 216, 84); fill-opacity: 1;" d="M467.48,156.96V107.26H479.02V156.96Z"/><text class="bartext bartext-outside" text-anchor="middle" data-notex="1" style="font-family: TOBESTRIPPEDOpen SansTOBESTRIPPED, verdana, arial, sans-serif; font-size: 12px; fill: rgb(0, 0, 0); fill-opacity: 1; white-space: pre;" x="0" y="0" transform="translate(473.25033504825393,100.60037960521989)scale(0.7319240789560253)">16</text></g><g class="point"><path style="vector-effect: non-scaling-stroke; opacity: 1; stroke-width: 0px; fill: rgb(166, 216, 84); fill-opacity: 1;" d="M539.64,156.96V119.68H551.19V156.96Z"/><text class="bartext bartext-outside" text-anchor="middle" data-notex="1" style="font-family: TOBESTRIPPEDOpen SansTOBESTRIPPED, verdana, arial, sans-serif; font-size: 12px; fill: rgb(0, 0, 0); fill-opacity: 1; white-space: pre;" x="0" y="0" transform="translate(545.4153353385904,113.01720835704413)scale(0.7325583285911758)">12</text></g><g class="point"><path style="vector-effect: non-scaling-stroke; opacity: 1; stroke-width: 0px; fill: rgb(166, 216, 84); fill-opacity: 1;" d="M611.81,156.96V119.68H623.36V156.96Z"/><text class="bartext bartext-outside" text-anchor="middle" data-notex="1" style="font-family: TOBESTRIPPEDOpen SansTOBESTRIPPED, verdana, arial, sans-serif; font-size: 12px; fill: rgb(0, 0, 0); fill-opacity: 1; white-space: pre;" x="0" y="0" transform="translate(617.5853353385904,113.01720835704413)scale(0.7325583285911758)">12</text></g><g class="point"><path style="vector-effect: non-scaling-stroke; opacity: 1; stroke-width: 0px; fill: rgb(166, 216, 84); fill-opacity: 1;" d="M683.98,156.96V94.83H695.52V156.96Z"/><text class="bartext bartext-outside" text-anchor="middle" data-notex="1" style="font-family: TOBESTRIPPEDOpen SansTOBESTRIPPED, verdana, arial, sans-serif; font-size: 12px; fill: rgb(0, 0, 0); fill-opacity: 1; white-space: pre;" x="0" y="0" transform="translate(689.7503350482539,88.17037960521988)scale(0.7319240789560253)">20</text></g></g></g><g class="trace bars" style="opacity: 1;"><g class="points"><g class="point"><path style="vector-effect: non-scaling-stroke; opacity: 1; stroke-width: 0px; fill: rgb(141, 160, 203); fill-opacity: 1;" d="M46.02,156.96V135.21H57.57V156.96Z"/><text class="bartext bartext-outside" text-anchor="middle" data-notex="1" style="font-family: TOBESTRIPPEDOpen SansTOBESTRIPPED, verdana, arial, sans-serif; font-size: 12px; fill: rgb(0, 0, 0); fill-opacity: 1; white-space: pre;" x="0" y="0" transform="translate(51.795198364257814,127.21000000000001)">7</text></g><g class="point"><path style="vector-effect: non-scaling-stroke; opacity: 1; stroke-width: 0px; fill: rgb(141, 160, 203); fill-opacity: 1;" d="M118.19,156.96V141.43H129.74V156.96Z"/><text class="bartext bartext-outside" text-anchor="middle" data-notex="1" style="font-family: TOBESTRIPPEDOpen SansTOBESTRIPPED, verdana, arial, sans-serif; font-size: 12px; fill: rgb(0, 0, 0); fill-opacity: 1; white-space: pre;" x="0" y="0" transform="translate(123.96519836425782,133.43)">5</text></g><g class="point"><path style="vector-effect: non-scaling-stroke; opacity: 1; stroke-width: 0px; fill: rgb(141, 160, 203); fill-opacity: 1;" d="M190.36,156.96V147.64H201.9V156.96Z"/><text class="bartext bartext-outside" text-anchor="middle" data-notex="1" style="font-family: TOBESTRIPPEDOpen SansTOBESTRIPPED, verdana, arial, sans-serif; font-size: 12px; fill: rgb(0, 0, 0); fill-opacity: 1; white-space: pre;" x="0" y="0" transform="translate(196.1301983642578,139.64)">3</text></g><g class="point"><path style="vector-effect: non-scaling-stroke; opacity: 1; stroke-width: 0px; fill: rgb(141, 160, 203); fill-opacity: 1;" d="M262.52,156.96V150.75H274.07V156.96Z"/><text class="bartext bartext-outside" text-anchor="middle" data-notex="1" style="font-family: TOBESTRIPPEDOpen SansTOBESTRIPPED, verdana, arial, sans-serif; font-size: 12px; fill: rgb(0, 0, 0); fill-opacity: 1; white-space: pre;" x="0" y="0" transform="translate(268.29519836425777,142.75)">2</text></g><g class="point"><path style="vector-effect: non-scaling-stroke; opacity: 1; stroke-width: 0px; fill: rgb(141, 160, 203); fill-opacity: 1;" d="M334.69,156.96V135.21H346.24V156.96Z"/><text class="bartext bartext-outside" text-anchor="middle" data-notex="1" style="font-family: TOBESTRIPPEDOpen SansTOBESTRIPPED, verdana, arial, sans-serif; font-size: 12px; fill: rgb(0, 0, 0); fill-opacity: 1; white-space: pre;" x="0" y="0" transform="translate(340.46519836425784,127.21000000000001)">7</text></g><g class="point"><path style="vector-effect: non-scaling-stroke; opacity: 1; stroke-width: 0px; fill: rgb(141, 160, 203); fill-opacity: 1;" d="M406.86,156.96V138.32H418.4V156.96Z"/><text class="bartext bartext-outside" text-anchor="middle" data-notex="1" style="font-family: TOBESTRIPPEDOpen SansTOBESTRIPPED, verdana, arial, sans-serif; font-size: 12px; fill: rgb(0, 0, 0); fill-opacity: 1; white-space: pre;" x="0" y="0" transform="translate(412.6301983642578,130.32)">6</text></g><g class="point"><path style="vector-effect: non-scaling-stroke; opacity: 1; stroke-width: 0px; fill: rgb(141, 160, 203); fill-opacity: 1;" d="M479.02,156.96V119.68H490.57V156.96Z"/><text class="bartext bartext-outside" text-anchor="middle" data-notex="1" style="font-family: TOBESTRIPPEDOpen SansTOBESTRIPPED, verdana, arial, sans-serif; font-size: 12px; fill: rgb(0, 0, 0); fill-opacity: 1; white-space: pre;" x="0" y="0" transform="translate(484.7953353385903,113.01720835704414)scale(0.7325583285911722)">12</text></g><g class="point"><path style="vector-effect: non-scaling-stroke; opacity: 1; stroke-width: 0px; fill: rgb(141, 160, 203); fill-opacity: 1;" d="M551.19,156.96V132.11H562.74V156.96Z"/><text class="bartext bartext-outside" text-anchor="middle" data-notex="1" style="font-family: TOBESTRIPPEDOpen SansTOBESTRIPPED, verdana, arial, sans-serif; font-size: 12px; fill: rgb(0, 0, 0); fill-opacity: 1; white-space: pre;" x="0" y="0" transform="translate(556.9651983642578,124.11000000000001)">8</text></g><g class="point"><path style="vector-effect: non-scaling-stroke; opacity: 1; stroke-width: 0px; fill: rgb(141, 160, 203); fill-opacity: 1;" d="M623.36,156.96V132.11H634.9V156.96Z"/><text class="bartext bartext-outside" text-anchor="middle" data-notex="1" style="font-family: TOBESTRIPPEDOpen SansTOBESTRIPPED, verdana, arial, sans-serif; font-size: 12px; fill: rgb(0, 0, 0); fill-opacity: 1; white-space: pre;" x="0" y="0" transform="translate(629.1301983642578,124.11000000000001)">8</text></g><g class="point"><path style="vector-effect: non-scaling-stroke; opacity: 1; stroke-width: 0px; fill: rgb(141, 160, 203); fill-opacity: 1;" d="M695.52,156.96V132.11H707.07V156.96Z"/><text class="bartext bartext-outside" text-anchor="middle" data-notex="1" style="font-family: TOBESTRIPPEDOpen SansTOBESTRIPPED, verdana, arial, sans-serif; font-size: 12px; fill: rgb(0, 0, 0); fill-opacity: 1; white-space: pre;" x="0" y="0" transform="translate(701.2951983642579,124.11000000000001)">8</text></g></g></g><g class="trace bars" style="opacity: 1;"><g class="points"><g class="point"><path style="vector-effect: non-scaling-stroke; opacity: 1; stroke-width: 0px; fill: rgb(229, 196, 148); fill-opacity: 1;" d="M57.57,156.96V153.85H69.12V156.96Z"/><text class="bartext bartext-outside" text-anchor="middle" data-notex="1" style="font-family: TOBESTRIPPEDOpen SansTOBESTRIPPED, verdana, arial, sans-serif; font-size: 12px; fill: rgb(0, 0, 0); fill-opacity: 1; white-space: pre;" x="0" y="0" transform="translate(63.34519836425781,145.85)">1</text></g><g class="point"><path style="vector-effect: non-scaling-stroke; opacity: 1; stroke-width: 0px; fill: rgb(229, 196, 148); fill-opacity: 1;" d="M129.74,156.96V147.64H141.28V156.96Z"/><text class="bartext bartext-outside" text-anchor="middle" data-notex="1" style="font-family: TOBESTRIPPEDOpen SansTOBESTRIPPED, verdana, arial, sans-serif; font-size: 12px; fill: rgb(0, 0, 0); fill-opacity: 1; white-space: pre;" x="0" y="0" transform="translate(135.5101983642578,139.64)">3</text></g><g class="point"><path style="vector-effect: non-scaling-stroke; opacity: 1; stroke-width: 0px; fill: rgb(229, 196, 148); fill-opacity: 1;" d="M201.9,156.96V153.85H213.45V156.96Z"/><text class="bartext bartext-outside" text-anchor="middle" data-notex="1" style="font-family: TOBESTRIPPEDOpen SansTOBESTRIPPED, verdana, arial, sans-serif; font-size: 12px; fill: rgb(0, 0, 0); fill-opacity: 1; white-space: pre;" x="0" y="0" transform="translate(207.67519836425782,145.85)">1</text></g><g class="point"><path style="vector-effect: non-scaling-stroke; opacity: 1; stroke-width: 0px; fill: rgb(229, 196, 148); fill-opacity: 1;" d="M274.07,156.96V156.96H285.62V156.96Z"/><text class="bartext bartext-outside" text-anchor="middle" data-notex="1" style="font-family: TOBESTRIPPEDOpen SansTOBESTRIPPED, verdana, arial, sans-serif; font-size: 12px; fill: rgb(0, 0, 0); fill-opacity: 1; white-space: pre;" x="0" y="0" transform="translate(279.84519836425784,148.96)">0</text></g><g class="point"><path style="vector-effect: non-scaling-stroke; opacity: 1; stroke-width: 0px; fill: rgb(229, 196, 148); fill-opacity: 1;" d="M346.24,156.96V150.75H357.78V156.96Z"/><text class="bartext bartext-outside" text-anchor="middle" data-notex="1" style="font-family: TOBESTRIPPEDOpen SansTOBESTRIPPED, verdana, arial, sans-serif; font-size: 12px; fill: rgb(0, 0, 0); fill-opacity: 1; white-space: pre;" x="0" y="0" transform="translate(352.0101983642578,142.75)">2</text></g><g class="point"><path style="vector-effect: non-scaling-stroke; opacity: 1; stroke-width: 0px; fill: rgb(229, 196, 148); fill-opacity: 1;" d="M418.4,156.96V125.9H429.95V156.96Z"/><text class="bartext bartext-outside" text-anchor="middle" data-notex="1" style="font-family: TOBESTRIPPEDOpen SansTOBESTRIPPED, verdana, arial, sans-serif; font-size: 12px; fill: rgb(0, 0, 0); fill-opacity: 1; white-space: pre;" x="0" y="0" transform="translate(424.1753353385903,119.23720835704414)scale(0.7325583285911722)">10</text></g><g class="point"><path style="vector-effect: non-scaling-stroke; opacity: 1; stroke-width: 0px; fill: rgb(229, 196, 148); fill-opacity: 1;" d="M490.57,156.96V116.58H502.12V156.96Z"/><text class="bartext bartext-outside" text-anchor="middle" data-notex="1" style="font-family: TOBESTRIPPEDOpen SansTOBESTRIPPED, verdana, arial, sans-serif; font-size: 12px; fill: rgb(0, 0, 0); fill-opacity: 1; white-space: pre;" x="0" y="0" transform="translate(496.34533533859036,109.91720835704413)scale(0.7325583285911722)">13</text></g><g class="point"><path style="vector-effect: non-scaling-stroke; opacity: 1; stroke-width: 0px; fill: rgb(229, 196, 148); fill-opacity: 1;" d="M562.74,156.96V141.43H574.28V156.96Z"/><text class="bartext bartext-outside" text-anchor="middle" data-notex="1" style="font-family: TOBESTRIPPEDOpen SansTOBESTRIPPED, verdana, arial, sans-serif; font-size: 12px; fill: rgb(0, 0, 0); fill-opacity: 1; white-space: pre;" x="0" y="0" transform="translate(568.5101983642578,133.43)">5</text></g><g class="point"><path style="vector-effect: non-scaling-stroke; opacity: 1; stroke-width: 0px; fill: rgb(229, 196, 148); fill-opacity: 1;" d="M634.9,156.96V119.68H646.45V156.96Z"/><text class="bartext bartext-outside" text-anchor="middle" data-notex="1" style="font-family: TOBESTRIPPEDOpen SansTOBESTRIPPED, verdana, arial, sans-serif; font-size: 12px; fill: rgb(0, 0, 0); fill-opacity: 1; white-space: pre;" x="0" y="0" transform="translate(640.6753353385903,113.01720835704413)scale(0.7325583285911758)">12</text></g><g class="point"><path style="vector-effect: non-scaling-stroke; opacity: 1; stroke-width: 0px; fill: rgb(229, 196, 148); fill-opacity: 1;" d="M707.07,156.96V101.04H718.62V156.96Z"/><text class="bartext bartext-outside" text-anchor="middle" data-notex="1" style="font-family: TOBESTRIPPEDOpen SansTOBESTRIPPED, verdana, arial, sans-serif; font-size: 12px; fill: rgb(0, 0, 0); fill-opacity: 1; white-space: pre;" x="0" y="0" transform="translate(712.8453353385904,94.37720835704417)scale(0.7325583285911685)">18</text></g></g></g></g></g><g class="overplot"/><path class="xlines-above crisp" style="fill: none;" d="M0,0"/><path class="ylines-above crisp" style="fill: none;" d="M0,0"/><g class="overlines-above"/><g class="xaxislayer-above"/><g class="yaxislayer-above"><g class="ytick"><text text-anchor="end" x="59" y="4.199999999999999" style="font-family: TOBESTRIPPEDOpen SansTOBESTRIPPED, verdana, arial, sans-serif; font-size: 12px; fill: rgb(68, 68, 68); fill-opacity: 1; white-space: pre;" transform="translate(0,181.96)">0</text></g><g class="ytick"><text text-anchor="end" x="59" y="4.199999999999999" style="font-family: TOBESTRIPPEDOpen SansTOBESTRIPPED, verdana, arial, sans-serif; font-size: 12px; fill: rgb(68, 68, 68); fill-opacity: 1; white-space: pre;" transform="translate(0,119.83)">20</text></g><g class="ytick"><text text-anchor="end" x="59" y="4.199999999999999" style="font-family: TOBESTRIPPEDOpen SansTOBESTRIPPED, verdana, arial, sans-serif; font-size: 12px; fill: rgb(68, 68, 68); fill-opacity: 1; white-space: pre;" transform="translate(0,57.7)">40</text></g></g><g class="overaxes-above"/></g><g class="subplot xy2"><g class="layer-subplot"><g class="shapelayer"/><g class="imagelayer"/></g><g class="gridlayer"><g class="x"/><g class="y2"><path class="y2grid crisp" transform="translate(0,306.96)" d="M60,0h730" style="stroke: rgb(238, 238, 238); stroke-opacity: 1; stroke-width: 1px;"/><path class="y2grid crisp" transform="translate(0,273.52)" d="M60,0h730" style="stroke: rgb(238, 238, 238); stroke-opacity: 1; stroke-width: 1px;"/><path class="y2grid crisp" transform="translate(0,240.07999999999998)" d="M60,0h730" style="stroke: rgb(238, 238, 238); stroke-opacity: 1; stroke-width: 1px;"/><path class="y2grid crisp" transform="translate(0,206.64)" d="M60,0h730" style="stroke: rgb(238, 238, 238); stroke-opacity: 1; stroke-width: 1px;"/></g></g><g class="zerolinelayer"><path class="y2zl zl crisp" transform="translate(0,340.4)" d="M60,0h730" style="stroke: rgb(68, 68, 68); stroke-opacity: 1; stroke-width: 1px;"/></g><path class="xlines-below"/><path class="ylines-below"/><g class="overlines-below"/><g class="xaxislayer-below"/><g class="yaxislayer-below"/><g class="overaxes-below"/><g class="plot" transform="translate(60, 195.04)" clip-path="url('#clip6ce80exy2plot')"><g class="scatterlayer mlayer"><g class="trace scatter trace867aa0" style="stroke-miterlimit: 2; opacity: 1;"><g class="fills"/><g class="errorbars"/><g class="lines"><path class="js-line" style="vector-effect: non-scaling-stroke; fill: none; stroke: rgb(102, 194, 165); stroke-opacity: 1; stroke-width: 3px; opacity: 1;" d="M40.25,138.67L112.42,130.31L184.58,131.99L256.75,131.99L328.92,118.61L401.08,103.56L473.25,65.1L545.42,86.84L617.58,85.17L689.75,96.87"/></g><g class="points"><path class="point" transform="translate(40.25,138.67)" style="opacity: 1; stroke-width: 0px; fill: rgb(102, 194, 165); fill-opacity: 1;" d="M3,0A3,3 0 1,1 0,-3A3,3 0 0,1 3,0Z"/><path class="point" transform="translate(112.42,130.31)" style="opacity: 1; stroke-width: 0px; fill: rgb(102, 194, 165); fill-opacity: 1;" d="M3,0A3,3 0 1,1 0,-3A3,3 0 0,1 3,0Z"/><path class="point" transform="translate(184.58,131.99)" style="opacity: 1; stroke-width: 0px; fill: rgb(102, 194, 165); fill-opacity: 1;" d="M3,0A3,3 0 1,1 0,-3A3,3 0 0,1 3,0Z"/><path class="point" transform="translate(256.75,131.99)" style="opacity: 1; stroke-width: 0px; fill: rgb(102, 194, 165); fill-opacity: 1;" d="M3,0A3,3 0 1,1 0,-3A3,3 0 0,1 3,0Z"/><path class="point" transform="translate(328.92,118.61)" style="opacity: 1; stroke-width: 0px; fill: rgb(102, 194, 165); fill-opacity: 1;" d="M3,0A3,3 0 1,1 0,-3A3,3 0 0,1 3,0Z"/><path class="point" transform="translate(401.08,103.56)" style="opacity: 1; stroke-width: 0px; fill: rgb(102, 194, 165); fill-opacity: 1;" d="M3,0A3,3 0 1,1 0,-3A3,3 0 0,1 3,0Z"/><path class="point" transform="translate(473.25,65.1)" style="opacity: 1; stroke-width: 0px; fill: rgb(102, 194, 165); fill-opacity: 1;" d="M3,0A3,3 0 1,1 0,-3A3,3 0 0,1 3,0Z"/><path class="point" transform="translate(545.42,86.84)" style="opacity: 1; stroke-width: 0px; fill: rgb(102, 194, 165); fill-opacity: 1;" d="M3,0A3,3 0 1,1 0,-3A3,3 0 0,1 3,0Z"/><path class="point" transform="translate(617.58,85.17)" style="opacity: 1; stroke-width: 0px; fill: rgb(102, 194, 165); fill-opacity: 1;" d="M3,0A3,3 0 1,1 0,-3A3,3 0 0,1 3,0Z"/><path class="point" transform="translate(689.75,96.87)" style="opacity: 1; stroke-width: 0px; fill: rgb(102, 194, 165); fill-opacity: 1;" d="M3,0A3,3 0 1,1 0,-3A3,3 0 0,1 3,0Z"/></g><g class="text"/></g><g class="trace scatter trace0cdab1" style="stroke-miterlimit: 2; opacity: 1;"><g class="fills"/><g class="errorbars"/><g class="lines"><path class="js-line" style="vector-effect: non-scaling-stroke; fill: none; stroke: rgb(231, 138, 195); stroke-opacity: 1; stroke-width: 3px; opacity: 1;" d="M40.25,138.67L112.42,142.85L184.58,137.84L256.75,136.17L328.92,135.33L401.08,124.46L473.25,116.1L545.42,127.81L617.58,129.48L689.75,125.3"/></g><g class="points"><path class="point" transform="translate(40.25,138.67)" style="opacity: 1; stroke-width: 0px; fill: rgb(231, 138, 195); fill-opacity: 1;" d="M3,0A3,3 0 1,1 0,-3A3,3 0 0,1 3,0Z"/><path class="point" transform="translate(112.42,142.85)" style="opacity: 1; stroke-width: 0px; fill: rgb(231, 138, 195); fill-opacity: 1;" d="M3,0A3,3 0 1,1 0,-3A3,3 0 0,1 3,0Z"/><path class="point" transform="translate(184.58,137.84)" style="opacity: 1; stroke-width: 0px; fill: rgb(231, 138, 195); fill-opacity: 1;" d="M3,0A3,3 0 1,1 0,-3A3,3 0 0,1 3,0Z"/><path class="point" transform="translate(256.75,136.17)" style="opacity: 1; stroke-width: 0px; fill: rgb(231, 138, 195); fill-opacity: 1;" d="M3,0A3,3 0 1,1 0,-3A3,3 0 0,1 3,0Z"/><path class="point" transform="translate(328.92,135.33)" style="opacity: 1; stroke-width: 0px; fill: rgb(231, 138, 195); fill-opacity: 1;" d="M3,0A3,3 0 1,1 0,-3A3,3 0 0,1 3,0Z"/><path class="point" transform="translate(401.08,124.46)" style="opacity: 1; stroke-width: 0px; fill: rgb(231, 138, 195); fill-opacity: 1;" d="M3,0A3,3 0 1,1 0,-3A3,3 0 0,1 3,0Z"/><path class="point" transform="translate(473.25,116.1)" style="opacity: 1; stroke-width: 0px; fill: rgb(231, 138, 195); fill-opacity: 1;" d="M3,0A3,3 0 1,1 0,-3A3,3 0 0,1 3,0Z"/><path class="point" transform="translate(545.42,127.81)" style="opacity: 1; stroke-width: 0px; fill: rgb(231, 138, 195); fill-opacity: 1;" d="M3,0A3,3 0 1,1 0,-3A3,3 0 0,1 3,0Z"/><path class="point" transform="translate(617.58,129.48)" style="opacity: 1; stroke-width: 0px; fill: rgb(231, 138, 195); fill-opacity: 1;" d="M3,0A3,3 0 1,1 0,-3A3,3 0 0,1 3,0Z"/><path class="point" transform="translate(689.75,125.3)" style="opacity: 1; stroke-width: 0px; fill: rgb(231, 138, 195); fill-opacity: 1;" d="M3,0A3,3 0 1,1 0,-3A3,3 0 0,1 3,0Z"/></g><g class="text"/></g><g class="trace scatter tracef26802" style="stroke-miterlimit: 2; opacity: 1;"><g class="fills"/><g class="errorbars"/><g class="lines"><path class="js-line" style="vector-effect: non-scaling-stroke; fill: none; stroke: rgb(166, 216, 84); stroke-opacity: 1; stroke-width: 3px; opacity: 1;" d="M40.25,138.67L112.42,138.67L184.58,125.3L256.75,131.99L328.92,118.61L401.08,85.17L473.25,38.35L545.42,65.1L617.58,65.1L689.75,11.6"/></g><g class="points"><path class="point" transform="translate(40.25,138.67)" style="opacity: 1; stroke-width: 0px; fill: rgb(166, 216, 84); fill-opacity: 1;" d="M3,0A3,3 0 1,1 0,-3A3,3 0 0,1 3,0Z"/><path class="point" transform="translate(112.42,138.67)" style="opacity: 1; stroke-width: 0px; fill: rgb(166, 216, 84); fill-opacity: 1;" d="M3,0A3,3 0 1,1 0,-3A3,3 0 0,1 3,0Z"/><path class="point" transform="translate(184.58,125.3)" style="opacity: 1; stroke-width: 0px; fill: rgb(166, 216, 84); fill-opacity: 1;" d="M3,0A3,3 0 1,1 0,-3A3,3 0 0,1 3,0Z"/><path class="point" transform="translate(256.75,131.99)" style="opacity: 1; stroke-width: 0px; fill: rgb(166, 216, 84); fill-opacity: 1;" d="M3,0A3,3 0 1,1 0,-3A3,3 0 0,1 3,0Z"/><path class="point" transform="translate(328.92,118.61)" style="opacity: 1; stroke-width: 0px; fill: rgb(166, 216, 84); fill-opacity: 1;" d="M3,0A3,3 0 1,1 0,-3A3,3 0 0,1 3,0Z"/><path class="point" transform="translate(401.08,85.17)" style="opacity: 1; stroke-width: 0px; fill: rgb(166, 216, 84); fill-opacity: 1;" d="M3,0A3,3 0 1,1 0,-3A3,3 0 0,1 3,0Z"/><path class="point" transform="translate(473.25,38.35)" style="opacity: 1; stroke-width: 0px; fill: rgb(166, 216, 84); fill-opacity: 1;" d="M3,0A3,3 0 1,1 0,-3A3,3 0 0,1 3,0Z"/><path class="point" transform="translate(545.42,65.1)" style="opacity: 1; stroke-width: 0px; fill: rgb(166, 216, 84); fill-opacity: 1;" d="M3,0A3,3 0 1,1 0,-3A3,3 0 0,1 3,0Z"/><path class="point" transform="translate(617.58,65.1)" style="opacity: 1; stroke-width: 0px; fill: rgb(166, 216, 84); fill-opacity: 1;" d="M3,0A3,3 0 1,1 0,-3A3,3 0 0,1 3,0Z"/><path class="point" transform="translate(689.75,11.6)" style="opacity: 1; stroke-width: 0px; fill: rgb(166, 216, 84); fill-opacity: 1;" d="M3,0A3,3 0 1,1 0,-3A3,3 0 0,1 3,0Z"/></g><g class="text"/></g><g class="trace scatter tracedc3710" style="stroke-miterlimit: 2; opacity: 1;"><g class="fills"/><g class="errorbars"/><g class="lines"><path class="js-line" style="vector-effect: non-scaling-stroke; fill: none; stroke: rgb(141, 160, 203); stroke-opacity: 1; stroke-width: 3px; opacity: 1;" d="M40.25,138.67L184.58,142.5L256.75,143.45L328.92,138.67L401.08,139.63L473.25,133.9L545.42,137.72L689.75,137.72"/></g><g class="points"><path class="point" transform="translate(40.25,138.67)" style="opacity: 1; stroke-width: 0px; fill: rgb(141, 160, 203); fill-opacity: 1;" d="M3,0A3,3 0 1,1 0,-3A3,3 0 0,1 3,0Z"/><path class="point" transform="translate(112.42,140.58)" style="opacity: 1; stroke-width: 0px; fill: rgb(141, 160, 203); fill-opacity: 1;" d="M3,0A3,3 0 1,1 0,-3A3,3 0 0,1 3,0Z"/><path class="point" transform="translate(184.58,142.5)" style="opacity: 1; stroke-width: 0px; fill: rgb(141, 160, 203); fill-opacity: 1;" d="M3,0A3,3 0 1,1 0,-3A3,3 0 0,1 3,0Z"/><path class="point" transform="translate(256.75,143.45)" style="opacity: 1; stroke-width: 0px; fill: rgb(141, 160, 203); fill-opacity: 1;" d="M3,0A3,3 0 1,1 0,-3A3,3 0 0,1 3,0Z"/><path class="point" transform="translate(328.92,138.67)" style="opacity: 1; stroke-width: 0px; fill: rgb(141, 160, 203); fill-opacity: 1;" d="M3,0A3,3 0 1,1 0,-3A3,3 0 0,1 3,0Z"/><path class="point" transform="translate(401.08,139.63)" style="opacity: 1; stroke-width: 0px; fill: rgb(141, 160, 203); fill-opacity: 1;" d="M3,0A3,3 0 1,1 0,-3A3,3 0 0,1 3,0Z"/><path class="point" transform="translate(473.25,133.9)" style="opacity: 1; stroke-width: 0px; fill: rgb(141, 160, 203); fill-opacity: 1;" d="M3,0A3,3 0 1,1 0,-3A3,3 0 0,1 3,0Z"/><path class="point" transform="translate(545.42,137.72)" style="opacity: 1; stroke-width: 0px; fill: rgb(141, 160, 203); fill-opacity: 1;" d="M3,0A3,3 0 1,1 0,-3A3,3 0 0,1 3,0Z"/><path class="point" transform="translate(617.58,137.72)" style="opacity: 1; stroke-width: 0px; fill: rgb(141, 160, 203); fill-opacity: 1;" d="M3,0A3,3 0 1,1 0,-3A3,3 0 0,1 3,0Z"/><path class="point" transform="translate(689.75,137.72)" style="opacity: 1; stroke-width: 0px; fill: rgb(141, 160, 203); fill-opacity: 1;" d="M3,0A3,3 0 1,1 0,-3A3,3 0 0,1 3,0Z"/></g><g class="text"/></g><g class="trace scatter trace16bade" style="stroke-miterlimit: 2; opacity: 1;"><g class="fills"/><g class="errorbars"/><g class="lines"><path class="js-line" style="vector-effect: non-scaling-stroke; fill: none; stroke: rgb(229, 196, 148); stroke-opacity: 1; stroke-width: 3px; opacity: 1;" d="M40.25,138.67L112.42,125.3L184.58,138.67L256.75,145.36L328.92,131.99L401.08,78.48L473.25,58.42L545.42,111.92L617.58,65.1L689.75,24.97"/></g><g class="points"><path class="point" transform="translate(40.25,138.67)" style="opacity: 1; stroke-width: 0px; fill: rgb(229, 196, 148); fill-opacity: 1;" d="M3,0A3,3 0 1,1 0,-3A3,3 0 0,1 3,0Z"/><path class="point" transform="translate(112.42,125.3)" style="opacity: 1; stroke-width: 0px; fill: rgb(229, 196, 148); fill-opacity: 1;" d="M3,0A3,3 0 1,1 0,-3A3,3 0 0,1 3,0Z"/><path class="point" transform="translate(184.58,138.67)" style="opacity: 1; stroke-width: 0px; fill: rgb(229, 196, 148); fill-opacity: 1;" d="M3,0A3,3 0 1,1 0,-3A3,3 0 0,1 3,0Z"/><path class="point" transform="translate(256.75,145.36)" style="opacity: 1; stroke-width: 0px; fill: rgb(229, 196, 148); fill-opacity: 1;" d="M3,0A3,3 0 1,1 0,-3A3,3 0 0,1 3,0Z"/><path class="point" transform="translate(328.92,131.99)" style="opacity: 1; stroke-width: 0px; fill: rgb(229, 196, 148); fill-opacity: 1;" d="M3,0A3,3 0 1,1 0,-3A3,3 0 0,1 3,0Z"/><path class="point" transform="translate(401.08,78.48)" style="opacity: 1; stroke-width: 0px; fill: rgb(229, 196, 148); fill-opacity: 1;" d="M3,0A3,3 0 1,1 0,-3A3,3 0 0,1 3,0Z"/><path class="point" transform="translate(473.25,58.42)" style="opacity: 1; stroke-width: 0px; fill: rgb(229, 196, 148); fill-opacity: 1;" d="M3,0A3,3 0 1,1 0,-3A3,3 0 0,1 3,0Z"/><path class="point" transform="translate(545.42,111.92)" style="opacity: 1; stroke-width: 0px; fill: rgb(229, 196, 148); fill-opacity: 1;" d="M3,0A3,3 0 1,1 0,-3A3,3 0 0,1 3,0Z"/><path class="point" transform="translate(617.58,65.1)" style="opacity: 1; stroke-width: 0px; fill: rgb(229, 196, 148); fill-opacity: 1;" d="M3,0A3,3 0 1,1 0,-3A3,3 0 0,1 3,0Z"/><path class="point" transform="translate(689.75,24.97)" style="opacity: 1; stroke-width: 0px; fill: rgb(229, 196, 148); fill-opacity: 1;" d="M3,0A3,3 0 1,1 0,-3A3,3 0 0,1 3,0Z"/></g><g class="text"/></g></g></g><g class="overplot"/><path class="xlines-above crisp" style="fill: none;" d="M0,0"/><path class="ylines-above crisp" style="fill: none;" d="M0,0"/><g class="overlines-above"/><g class="xaxislayer-above"><g class="xtick"><text text-anchor="middle" x="0" y="365" style="font-family: TOBESTRIPPEDOpen SansTOBESTRIPPED, verdana, arial, sans-serif; font-size: 12px; fill: rgb(68, 68, 68); fill-opacity: 1; white-space: pre;" transform="translate(172.42000000000002,0)">2012</text></g><g class="xtick"><text text-anchor="middle" x="0" y="365" style="font-family: TOBESTRIPPEDOpen SansTOBESTRIPPED, verdana, arial, sans-serif; font-size: 12px; fill: rgb(68, 68, 68); fill-opacity: 1; white-space: pre;" transform="translate(316.75,0)">2014</text></g><g class="xtick"><text text-anchor="middle" x="0" y="365" style="font-family: TOBESTRIPPEDOpen SansTOBESTRIPPED, verdana, arial, sans-serif; font-size: 12px; fill: rgb(68, 68, 68); fill-opacity: 1; white-space: pre;" transform="translate(461.08,0)">2016</text></g><g class="xtick"><text text-anchor="middle" x="0" y="365" style="font-family: TOBESTRIPPEDOpen SansTOBESTRIPPED, verdana, arial, sans-serif; font-size: 12px; fill: rgb(68, 68, 68); fill-opacity: 1; white-space: pre;" transform="translate(605.42,0)">2018</text></g><g class="xtick"><text text-anchor="middle" x="0" y="365" style="font-family: TOBESTRIPPEDOpen SansTOBESTRIPPED, verdana, arial, sans-serif; font-size: 12px; fill: rgb(68, 68, 68); fill-opacity: 1; white-space: pre;" transform="translate(749.75,0)">2020</text></g></g><g class="yaxislayer-above"><g class="y2tick"><text text-anchor="end" x="59" y="4.199999999999999" style="font-family: TOBESTRIPPEDOpen SansTOBESTRIPPED, verdana, arial, sans-serif; font-size: 12px; fill: rgb(68, 68, 68); fill-opacity: 1; white-space: pre;" transform="translate(0,340.4)">0</text></g><g class="y2tick"><text text-anchor="end" x="59" y="4.199999999999999" style="font-family: TOBESTRIPPEDOpen SansTOBESTRIPPED, verdana, arial, sans-serif; font-size: 12px; fill: rgb(68, 68, 68); fill-opacity: 1; white-space: pre;" transform="translate(0,306.96)">5</text></g><g class="y2tick"><text text-anchor="end" x="59" y="4.199999999999999" style="font-family: TOBESTRIPPEDOpen SansTOBESTRIPPED, verdana, arial, sans-serif; font-size: 12px; fill: rgb(68, 68, 68); fill-opacity: 1; white-space: pre;" transform="translate(0,273.52)">10</text></g><g class="y2tick"><text text-anchor="end" x="59" y="4.199999999999999" style="font-family: TOBESTRIPPEDOpen SansTOBESTRIPPED, verdana, arial, sans-serif; font-size: 12px; fill: rgb(68, 68, 68); fill-opacity: 1; white-space: pre;" transform="translate(0,240.07999999999998)">15</text></g><g class="y2tick"><text text-anchor="end" x="59" y="4.199999999999999" style="font-family: TOBESTRIPPEDOpen SansTOBESTRIPPED, verdana, arial, sans-serif; font-size: 12px; fill: rgb(68, 68, 68); fill-opacity: 1; white-space: pre;" transform="translate(0,206.64)">20</text></g></g><g class="overaxes-above"/></g></g><g class="polarlayer"/><g class="ternarylayer"/><g class="geolayer"/><g class="funnelarealayer"/><g class="pielayer"/><g class="treemaplayer"/><g class="sunburstlayer"/><g class="glimages"/><defs id="topdefs-6ce80e"><g class="clips"/><clipPath id="legend6ce80e"><rect width="285" height="105" x="0" y="0"/></clipPath></defs><g class="layer-above"><g class="imagelayer"/><g class="shapelayer"/></g><g class="infolayer"><g class="legend" pointer-events="all" transform="translate(96.5, 25)"><rect class="bg" shape-rendering="crispEdges" style="stroke: rgb(68, 68, 68); stroke-opacity: 1; fill: rgb(0, 0, 0); fill-opacity: 0; stroke-width: 0px;" width="285" height="105" x="0" y="0"/><g class="scrollbox" transform="translate(0, 0)" clip-path="url('#legend6ce80e')"><g class="groups"><g class="traces" style="opacity: 1;" transform="translate(0, 14.5)"><text class="legendtext" text-anchor="start" style="font-family: TOBESTRIPPEDOpen SansTOBESTRIPPED, verdana, arial, sans-serif; font-size: 12px; fill: rgb(68, 68, 68); fill-opacity: 1; white-space: pre;" x="40" y="4.680000000000001">Energy &amp; Fuels</text><g class="layers" style="opacity: 1;"><g class="legendfill"/><g class="legendlines"/><g class="legendsymbols"><g class="legendpoints"><path class="legendundefined" d="M6,6H-6V-6H6Z" transform="translate(20,0)" style="stroke-width: 0px; fill: rgb(102, 194, 165); fill-opacity: 1;"/></g></g></g><rect class="legendtoggle" style="fill: rgb(0, 0, 0); fill-opacity: 0;" x="0" y="-9.5" width="279.1333312988281" height="19"/></g><g class="traces" style="opacity: 1;" transform="translate(0, 33.5)"><text class="legendtext" text-anchor="start" style="font-family: TOBESTRIPPEDOpen SansTOBESTRIPPED, verdana, arial, sans-serif; font-size: 12px; fill: rgb(68, 68, 68); fill-opacity: 1; white-space: pre;" x="40" y="4.680000000000001">Engineering, Electrical &amp; Electronic</text><g class="layers" style="opacity: 1;"><g class="legendfill"/><g class="legendlines"/><g class="legendsymbols"><g class="legendpoints"><path class="legendundefined" d="M6,6H-6V-6H6Z" transform="translate(20,0)" style="stroke-width: 0px; fill: rgb(231, 138, 195); fill-opacity: 1;"/></g></g></g><rect class="legendtoggle" style="fill: rgb(0, 0, 0); fill-opacity: 0;" x="0" y="-9.5" width="279.1333312988281" height="19"/></g><g class="traces" style="opacity: 1;" transform="translate(0, 52.5)"><text class="legendtext" text-anchor="start" style="font-family: TOBESTRIPPEDOpen SansTOBESTRIPPED, verdana, arial, sans-serif; font-size: 12px; fill: rgb(68, 68, 68); fill-opacity: 1; white-space: pre;" x="40" y="4.680000000000001">Green &amp; Sustainable Science &amp; Technology</text><g class="layers" style="opacity: 1;"><g class="legendfill"/><g class="legendlines"/><g class="legendsymbols"><g class="legendpoints"><path class="legendundefined" d="M6,6H-6V-6H6Z" transform="translate(20,0)" style="stroke-width: 0px; fill: rgb(166, 216, 84); fill-opacity: 1;"/></g></g></g><rect class="legendtoggle" style="fill: rgb(0, 0, 0); fill-opacity: 0;" x="0" y="-9.5" width="279.1333312988281" height="19"/></g><g class="traces" style="opacity: 1;" transform="translate(0, 71.5)"><text class="legendtext" text-anchor="start" style="font-family: TOBESTRIPPEDOpen SansTOBESTRIPPED, verdana, arial, sans-serif; font-size: 12px; fill: rgb(68, 68, 68); fill-opacity: 1; white-space: pre;" x="40" y="4.680000000000001">Chemistry, Physical</text><g class="layers" style="opacity: 1;"><g class="legendfill"/><g class="legendlines"/><g class="legendsymbols"><g class="legendpoints"><path class="legendundefined" d="M6,6H-6V-6H6Z" transform="translate(20,0)" style="stroke-width: 0px; fill: rgb(141, 160, 203); fill-opacity: 1;"/></g></g></g><rect class="legendtoggle" style="fill: rgb(0, 0, 0); fill-opacity: 0;" x="0" y="-9.5" width="279.1333312988281" height="19"/></g><g class="traces" style="opacity: 1;" transform="translate(0, 90.5)"><text class="legendtext" text-anchor="start" style="font-family: TOBESTRIPPEDOpen SansTOBESTRIPPED, verdana, arial, sans-serif; font-size: 12px; fill: rgb(68, 68, 68); fill-opacity: 1; white-space: pre;" x="40" y="4.680000000000001">Environmental Sciences</text><g class="layers" style="opacity: 1;"><g class="legendfill"/><g class="legendlines"/><g class="legendsymbols"><g class="legendpoints"><path class="legendundefined" d="M6,6H-6V-6H6Z" transform="translate(20,0)" style="stroke-width: 0px; fill: rgb(229, 196, 148); fill-opacity: 1;"/></g></g></g><rect class="legendtoggle" style="fill: rgb(0, 0, 0); fill-opacity: 0;" x="0" y="-9.5" width="279.1333312988281" height="19"/></g></g></g><rect class="scrollbar" rx="20" ry="3" width="0" height="0" style="fill: rgb(128, 139, 164); fill-opacity: 1;" x="0" y="0"/></g><g class="g-gtitle"/><g class="g-xtitle" transform="translate(0,-18)"><text class="xtitle" style="font-family: TOBESTRIPPEDOpen SansTOBESTRIPPED, verdana, arial, sans-serif; font-size: 14px; fill: rgb(68, 68, 68); opacity: 1; font-weight: normal; white-space: pre;" x="425" y="404" text-anchor="middle">Years</text></g><g class="g-ytitle"/><g class="g-y2title"/></g></svg>