<svg class="main-svg" xmlns="http://www.w3.org/2000/svg" xmlns:xlink="http://www.w3.org/1999/xlink" width="960" height="470" style="" viewBox="0 0 960 470"><rect x="0" y="0" width="960" height="470" style="fill: rgb(255, 255, 255); fill-opacity: 1;"/><defs id="defs-0dea13"><g class="clips"><clipPath id="clip0dea13xyplot" class="plotclip"><rect width="890" height="194.4"/></clipPath><clipPath id="clip0dea13xy2plot" class="plotclip"><rect width="890" height="194.4"/></clipPath><clipPath class="axesclip" id="clip0dea13x"><rect x="60" y="0" width="890" height="470"/></clipPath><clipPath class="axesclip" id="clip0dea13y"><rect x="0" y="25" width="960" height="194.4"/></clipPath><clipPath class="axesclip" id="clip0dea13xy"><rect x="60" y="25" width="890" height="194.4"/></clipPath><clipPath class="axesclip" id="clip0dea13y2"><rect x="0" y="235.6" width="960" height="194.4"/></clipPath><clipPath class="axesclip" id="clip0dea13xy2"><rect x="60" y="235.6" width="890" height="194.4"/></clipPath></g><g class="gradients"/></defs><g class="bglayer"/><g class="layer-below"><g class="imagelayer"/><g class="shapelayer"/></g><g class="cartesianlayer"><g class="subplot xy"><g class="layer-subplot"><g class="shapelayer"/><g class="imagelayer"/></g><g class="gridlayer"><g class="x"/><g class="y"><path class="ygrid crisp" transform="translate(0,157.84)" d="M60,0h890" style="stroke: rgb(238, 238, 238); stroke-opacity: 1; stroke-width: 1px;"/><path class="ygrid crisp" transform="translate(0,96.28)" d="M60,0h890" style="stroke: rgb(238, 238, 238); stroke-opacity: 1; stroke-width: 1px;"/><path class="ygrid crisp" transform="translate(0,34.72)" d="M60,0h890" style="stroke: rgb(238, 238, 238); stroke-opacity: 1; stroke-width: 1px;"/></g></g><g class="zerolinelayer"><path class="yzl zl crisp" transform="translate(0,219.4)" d="M60,0h890" style="stroke: rgb(68, 68, 68); stroke-opacity: 1; stroke-width: 1px;"/></g><path class="xlines-below"/><path class="ylines-below"/><g class="overlines-below"/><g class="xaxislayer-below"/><g class="yaxislayer-below"/><g class="overaxes-below"/><g class="plot" transform="translate(60, 25)" clip-path="url('#clip0dea13xyplot')"><g class="barlayer mlayer"><g class="trace bars" style="opacity: 1;"><g class="points"><g class="point"><path style="vector-effect: non-scaling-stroke; opacity: 1; stroke-width: 0px; fill: rgb(102, 194, 165); fill-opacity: 1;" d="M12.98,194.4V145.15H27.09V194.4Z"/><text class="bartext bartext-outside" text-anchor="middle" data-notex="1" style="font-family: TOBESTRIPPEDOpen SansTOBESTRIPPED, verdana, arial, sans-serif; font-size: 12px; fill: rgb(0, 0, 0); fill-opacity: 1; white-space: pre;" x="0" y="0" transform="translate(20.035198364257813,137.15)">8</text></g><g class="point"><path style="vector-effect: non-scaling-stroke; opacity: 1; stroke-width: 0px; fill: rgb(102, 194, 165); fill-opacity: 1;" d="M101.15,194.4V145.15H115.26V194.4Z"/><text class="bartext bartext-outside" text-anchor="middle" data-notex="1" style="font-family: TOBESTRIPPEDOpen SansTOBESTRIPPED, verdana, arial, sans-serif; font-size: 12px; fill: rgb(0, 0, 0); fill-opacity: 1; white-space: pre;" x="0" y="0" transform="translate(108.20519836425783,137.15)">8</text></g><g class="point"><path style="vector-effect: non-scaling-stroke; opacity: 1; stroke-width: 0px; fill: rgb(102, 194, 165); fill-opacity: 1;" d="M189.32,194.4V145.15H203.42V194.4Z"/><text class="bartext bartext-outside" text-anchor="middle" data-notex="1" style="font-family: TOBESTRIPPEDOpen SansTOBESTRIPPED, verdana, arial, sans-serif; font-size: 12px; fill: rgb(0, 0, 0); fill-opacity: 1; white-space: pre;" x="0" y="0" transform="translate(196.37019836425782,137.15)">8</text></g><g class="point"><path style="vector-effect: non-scaling-stroke; opacity: 1; stroke-width: 0px; fill: rgb(102, 194, 165); fill-opacity: 1;" d="M277.48,194.4V120.53H291.59V194.4Z"/><text class="bartext bartext-outside" text-anchor="middle" data-notex="1" style="font-family: TOBESTRIPPEDOpen SansTOBESTRIPPED, verdana, arial, sans-serif; font-size: 12px; fill: rgb(0, 0, 0); fill-opacity: 1; white-space: pre;" x="0" y="0" transform="translate(284.53540966471945,113.05536882406)scale(0.8949262351879997)">12</text></g><g class="point"><path style="vector-effect: non-scaling-stroke; opacity: 1; stroke-width: 0px; fill: rgb(102, 194, 165); fill-opacity: 1;" d="M365.65,194.4V157.46H379.76V194.4Z"/><text class="bartext bartext-outside" text-anchor="middle" data-notex="1" style="font-family: TOBESTRIPPEDOpen SansTOBESTRIPPED, verdana, arial, sans-serif; font-size: 12px; fill: rgb(0, 0, 0); fill-opacity: 1; white-space: pre;" x="0" y="0" transform="translate(372.7051983642578,149.46)">6</text></g><g class="point"><path style="vector-effect: non-scaling-stroke; opacity: 1; stroke-width: 0px; fill: rgb(102, 194, 165); fill-opacity: 1;" d="M453.82,194.4V139H467.92V194.4Z"/><text class="bartext bartext-outside" text-anchor="middle" data-notex="1" style="font-family: TOBESTRIPPEDOpen SansTOBESTRIPPED, verdana, arial, sans-serif; font-size: 12px; fill: rgb(0, 0, 0); fill-opacity: 1; white-space: pre;" x="0" y="0" transform="translate(460.8701983642578,131)">9</text></g><g class="point"><path style="vector-effect: non-scaling-stroke; opacity: 1; stroke-width: 0px; fill: rgb(102, 194, 165); fill-opacity: 1;" d="M541.98,194.4V120.53H556.09V194.4Z"/><text class="bartext bartext-outside" text-anchor="middle" data-notex="1" style="font-family: TOBESTRIPPEDOpen SansTOBESTRIPPED, verdana, arial, sans-serif; font-size: 12px; fill: rgb(0, 0, 0); fill-opacity: 1; white-space: pre;" x="0" y="0" transform="translate(549.0354096647195,113.05536882405998)scale(0.8949262351880034)">12</text></g><g class="point"><path style="vector-effect: non-scaling-stroke; opacity: 1; stroke-width: 0px; fill: rgb(102, 194, 165); fill-opacity: 1;" d="M630.15,194.4V102.06H644.26V194.4Z"/><text class="bartext bartext-outside" text-anchor="middle" data-notex="1" style="font-family: TOBESTRIPPEDOpen SansTOBESTRIPPED, verdana, arial, sans-serif; font-size: 12px; fill: rgb(0, 0, 0); fill-opacity: 1; white-space: pre;" x="0" y="0" transform="translate(637.2054096647194,94.58536882405998)scale(0.8949262351880034)">15</text></g><g class="point"><path style="vector-effect: non-scaling-stroke; opacity: 1; stroke-width: 0px; fill: rgb(102, 194, 165); fill-opacity: 1;" d="M718.32,194.4V71.28H732.42V194.4Z"/><text class="bartext bartext-outside" text-anchor="middle" data-notex="1" style="font-family: TOBESTRIPPEDOpen SansTOBESTRIPPED, verdana, arial, sans-serif; font-size: 12px; fill: rgb(0, 0, 0); fill-opacity: 1; white-space: pre;" x="0" y="0" transform="translate(725.370409374383,63.808540072235736)scale(0.8942919855528528)">20</text></g><g class="point"><path style="vector-effect: non-scaling-stroke; opacity: 1; stroke-width: 0px; fill: rgb(102, 194, 165); fill-opacity: 1;" d="M806.48,194.4V145.15H820.59V194.4Z"/><text class="bartext bartext-outside" text-anchor="middle" data-notex="1" style="font-family: TOBESTRIPPEDOpen SansTOBESTRIPPED, verdana, arial, sans-serif; font-size: 12px; fill: rgb(0, 0, 0); fill-opacity: 1; white-space: pre;" x="0" y="0" transform="translate(813.5351983642579,137.15)">8</text></g></g></g><g class="trace bars" style="opacity: 1;"><g class="points"><g class="point"><path style="vector-effect: non-scaling-stroke; opacity: 1; stroke-width: 0px; fill: rgb(166, 216, 84); fill-opacity: 1;" d="M27.09,194.4V157.46H41.2V194.4Z"/><text class="bartext bartext-outside" text-anchor="middle" data-notex="1" style="font-family: TOBESTRIPPEDOpen SansTOBESTRIPPED, verdana, arial, sans-serif; font-size: 12px; fill: rgb(0, 0, 0); fill-opacity: 1; white-space: pre;" x="0" y="0" transform="translate(34.145198364257816,149.46)">6</text></g><g class="point"><path style="vector-effect: non-scaling-stroke; opacity: 1; stroke-width: 0px; fill: rgb(166, 216, 84); fill-opacity: 1;" d="M115.26,194.4V175.93H129.36V194.4Z"/><text class="bartext bartext-outside" text-anchor="middle" data-notex="1" style="font-family: TOBESTRIPPEDOpen SansTOBESTRIPPED, verdana, arial, sans-serif; font-size: 12px; fill: rgb(0, 0, 0); fill-opacity: 1; white-space: pre;" x="0" y="0" transform="translate(122.31019836425781,167.93)">3</text></g><g class="point"><path style="vector-effect: non-scaling-stroke; opacity: 1; stroke-width: 0px; fill: rgb(166, 216, 84); fill-opacity: 1;" d="M203.42,194.4V188.24H217.53V194.4Z"/><text class="bartext bartext-outside" text-anchor="middle" data-notex="1" style="font-family: TOBESTRIPPEDOpen SansTOBESTRIPPED, verdana, arial, sans-serif; font-size: 12px; fill: rgb(0, 0, 0); fill-opacity: 1; white-space: pre;" x="0" y="0" transform="translate(210.4751983642578,180.24)">1</text></g><g class="point"><path style="vector-effect: non-scaling-stroke; opacity: 1; stroke-width: 0px; fill: rgb(166, 216, 84); fill-opacity: 1;" d="M291.59,194.4V169.78H305.7V194.4Z"/><text class="bartext bartext-outside" text-anchor="middle" data-notex="1" style="font-family: TOBESTRIPPEDOpen SansTOBESTRIPPED, verdana, arial, sans-serif; font-size: 12px; fill: rgb(0, 0, 0); fill-opacity: 1; white-space: pre;" x="0" y="0" transform="translate(298.6451983642578,161.78)">4</text></g><g class="point"><path style="vector-effect: non-scaling-stroke; opacity: 1; stroke-width: 0px; fill: rgb(166, 216, 84); fill-opacity: 1;" d="M379.76,194.4V182.09H393.86V194.4Z"/><text class="bartext bartext-outside" text-anchor="middle" data-notex="1" style="font-family: TOBESTRIPPEDOpen SansTOBESTRIPPED, verdana, arial, sans-serif; font-size: 12px; fill: rgb(0, 0, 0); fill-opacity: 1; white-space: pre;" x="0" y="0" transform="translate(386.8101983642578,174.09)">2</text></g><g class="point"><path style="vector-effect: non-scaling-stroke; opacity: 1; stroke-width: 0px; fill: rgb(166, 216, 84); fill-opacity: 1;" d="M467.92,194.4V169.78H482.03V194.4Z"/><text class="bartext bartext-outside" text-anchor="middle" data-notex="1" style="font-family: TOBESTRIPPEDOpen SansTOBESTRIPPED, verdana, arial, sans-serif; font-size: 12px; fill: rgb(0, 0, 0); fill-opacity: 1; white-space: pre;" x="0" y="0" transform="translate(474.97519836425784,161.78)">4</text></g><g class="point"><path style="vector-effect: non-scaling-stroke; opacity: 1; stroke-width: 0px; fill: rgb(166, 216, 84); fill-opacity: 1;" d="M556.09,194.4V151.31H570.2V194.4Z"/><text class="bartext bartext-outside" text-anchor="middle" data-notex="1" style="font-family: TOBESTRIPPEDOpen SansTOBESTRIPPED, verdana, arial, sans-serif; font-size: 12px; fill: rgb(0, 0, 0); fill-opacity: 1; white-space: pre;" x="0" y="0" transform="translate(563.1451983642578,143.31)">7</text></g><g class="point"><path style="vector-effect: non-scaling-stroke; opacity: 1; stroke-width: 0px; fill: rgb(166, 216, 84); fill-opacity: 1;" d="M644.26,194.4V188.24H658.36V194.4Z"/><text class="bartext bartext-outside" text-anchor="middle" data-notex="1" style="font-family: TOBESTRIPPEDOpen SansTOBESTRIPPED, verdana, arial, sans-serif; font-size: 12px; fill: rgb(0, 0, 0); fill-opacity: 1; white-space: pre;" x="0" y="0" transform="translate(651.3101983642578,180.24)">1</text></g><g class="point"><path style="vector-effect: non-scaling-stroke; opacity: 1; stroke-width: 0px; fill: rgb(166, 216, 84); fill-opacity: 1;" d="M732.42,194.4V9.72H746.53V194.4Z"/><text class="bartext bartext-outside" text-anchor="middle" data-notex="1" style="font-family: TOBESTRIPPEDOpen SansTOBESTRIPPED, verdana, arial, sans-serif; font-size: 12px; fill: rgb(0, 0, 0); fill-opacity: 1; white-space: pre;" x="0" y="0" transform="translate(739.4754096647193,2.245368824059984)scale(0.8949262351880034)">30</text></g><g class="point"><path style="vector-effect: non-scaling-stroke; opacity: 1; stroke-width: 0px; fill: rgb(166, 216, 84); fill-opacity: 1;" d="M820.59,194.4V163.62H834.7V194.4Z"/><text class="bartext bartext-outside" text-anchor="middle" data-notex="1" style="font-family: TOBESTRIPPEDOpen SansTOBESTRIPPED, verdana, arial, sans-serif; font-size: 12px; fill: rgb(0, 0, 0); fill-opacity: 1; white-space: pre;" x="0" y="0" transform="translate(827.6451983642578,155.62)">5</text></g></g></g><g class="trace bars" style="opacity: 1;"><g class="points"><g class="point"><path style="vector-effect: non-scaling-stroke; opacity: 1; stroke-width: 0px; fill: rgb(229, 196, 148); fill-opacity: 1;" d="M41.2,194.4V194.4H55.3V194.4Z"/><text class="bartext bartext-outside" text-anchor="middle" data-notex="1" style="font-family: TOBESTRIPPEDOpen SansTOBESTRIPPED, verdana, arial, sans-serif; font-size: 12px; fill: rgb(0, 0, 0); fill-opacity: 1; white-space: pre;" x="0" y="0" transform="translate(48.25019836425781,186.4)">0</text></g><g class="point"><path style="vector-effect: non-scaling-stroke; opacity: 1; stroke-width: 0px; fill: rgb(229, 196, 148); fill-opacity: 1;" d="M129.36,194.4V194.4H143.47V194.4Z"/><text class="bartext bartext-outside" text-anchor="middle" data-notex="1" style="font-family: TOBESTRIPPEDOpen SansTOBESTRIPPED, verdana, arial, sans-serif; font-size: 12px; fill: rgb(0, 0, 0); fill-opacity: 1; white-space: pre;" x="0" y="0" transform="translate(136.41519836425783,186.4)">0</text></g><g class="point"><path style="vector-effect: non-scaling-stroke; opacity: 1; stroke-width: 0px; fill: rgb(229, 196, 148); fill-opacity: 1;" d="M217.53,194.4V194.4H231.64V194.4Z"/><text class="bartext bartext-outside" text-anchor="middle" data-notex="1" style="font-family: TOBESTRIPPEDOpen SansTOBESTRIPPED, verdana, arial, sans-serif; font-size: 12px; fill: rgb(0, 0, 0); fill-opacity: 1; white-space: pre;" x="0" y="0" transform="translate(224.5851983642578,186.4)">0</text></g><g class="point"><path style="vector-effect: non-scaling-stroke; opacity: 1; stroke-width: 0px; fill: rgb(229, 196, 148); fill-opacity: 1;" d="M305.7,194.4V194.4H319.8V194.4Z"/><text class="bartext bartext-outside" text-anchor="middle" data-notex="1" style="font-family: TOBESTRIPPEDOpen SansTOBESTRIPPED, verdana, arial, sans-serif; font-size: 12px; fill: rgb(0, 0, 0); fill-opacity: 1; white-space: pre;" x="0" y="0" transform="translate(312.7501983642578,186.4)">0</text></g><g class="point"><path style="vector-effect: non-scaling-stroke; opacity: 1; stroke-width: 0px; fill: rgb(229, 196, 148); fill-opacity: 1;" d="M393.86,194.4V194.4H407.97V194.4Z"/><text class="bartext bartext-outside" text-anchor="middle" data-notex="1" style="font-family: TOBESTRIPPEDOpen SansTOBESTRIPPED, verdana, arial, sans-serif; font-size: 12px; fill: rgb(0, 0, 0); fill-opacity: 1; white-space: pre;" x="0" y="0" transform="translate(400.91519836425783,186.4)">0</text></g><g class="point"><path style="vector-effect: non-scaling-stroke; opacity: 1; stroke-width: 0px; fill: rgb(229, 196, 148); fill-opacity: 1;" d="M482.03,194.4V194.4H496.14V194.4Z"/><text class="bartext bartext-outside" text-anchor="middle" data-notex="1" style="font-family: TOBESTRIPPEDOpen SansTOBESTRIPPED, verdana, arial, sans-serif; font-size: 12px; fill: rgb(0, 0, 0); fill-opacity: 1; white-space: pre;" x="0" y="0" transform="translate(489.0851983642578,186.4)">0</text></g><g class="point"><path style="vector-effect: non-scaling-stroke; opacity: 1; stroke-width: 0px; fill: rgb(229, 196, 148); fill-opacity: 1;" d="M570.2,194.4V194.4H584.3V194.4Z"/><text class="bartext bartext-outside" text-anchor="middle" data-notex="1" style="font-family: TOBESTRIPPEDOpen SansTOBESTRIPPED, verdana, arial, sans-serif; font-size: 12px; fill: rgb(0, 0, 0); fill-opacity: 1; white-space: pre;" x="0" y="0" transform="translate(577.2501983642578,186.4)">0</text></g><g class="point"><path style="vector-effect: non-scaling-stroke; opacity: 1; stroke-width: 0px; fill: rgb(229, 196, 148); fill-opacity: 1;" d="M658.36,194.4V114.37H672.47V194.4Z"/><text class="bartext bartext-outside" text-anchor="middle" data-notex="1" style="font-family: TOBESTRIPPEDOpen SansTOBESTRIPPED, verdana, arial, sans-serif; font-size: 12px; fill: rgb(0, 0, 0); fill-opacity: 1; white-space: pre;" x="0" y="0" transform="translate(665.4154096647194,106.89536882405999)scale(0.8949262351880034)">13</text></g><g class="point"><path style="vector-effect: non-scaling-stroke; opacity: 1; stroke-width: 0px; fill: rgb(229, 196, 148); fill-opacity: 1;" d="M746.53,194.4V89.75H760.64V194.4Z"/><text class="bartext bartext-outside" text-anchor="middle" data-notex="1" style="font-family: TOBESTRIPPEDOpen SansTOBESTRIPPED, verdana, arial, sans-serif; font-size: 12px; fill: rgb(0, 0, 0); fill-opacity: 1; white-space: pre;" x="0" y="0" transform="translate(753.5854096647195,82.27536882405998)scale(0.8949262351880034)">17</text></g><g class="point"><path style="vector-effect: non-scaling-stroke; opacity: 1; stroke-width: 0px; fill: rgb(229, 196, 148); fill-opacity: 1;" d="M834.7,194.4V132.84H848.8V194.4Z"/><text class="bartext bartext-outside" text-anchor="middle" data-notex="1" style="font-family: TOBESTRIPPEDOpen SansTOBESTRIPPED, verdana, arial, sans-serif; font-size: 12px; fill: rgb(0, 0, 0); fill-opacity: 1; white-space: pre;" x="0" y="0" transform="translate(841.750409374383,125.36854007223575)scale(0.8942919855528528)">10</text></g></g></g><g class="trace bars" style="opacity: 1;"><g class="points"><g class="point"><path style="vector-effect: non-scaling-stroke; opacity: 1; stroke-width: 0px; fill: rgb(141, 160, 203); fill-opacity: 1;" d="M55.3,194.4V194.4H69.41V194.4Z"/><text class="bartext bartext-outside" text-anchor="middle" data-notex="1" style="font-family: TOBESTRIPPEDOpen SansTOBESTRIPPED, verdana, arial, sans-serif; font-size: 12px; fill: rgb(0, 0, 0); fill-opacity: 1; white-space: pre;" x="0" y="0" transform="translate(62.35519836425781,186.4)">0</text></g><g class="point"><path style="vector-effect: non-scaling-stroke; opacity: 1; stroke-width: 0px; fill: rgb(141, 160, 203); fill-opacity: 1;" d="M143.47,194.4V194.4H157.58V194.4Z"/><text class="bartext bartext-outside" text-anchor="middle" data-notex="1" style="font-family: TOBESTRIPPEDOpen SansTOBESTRIPPED, verdana, arial, sans-serif; font-size: 12px; fill: rgb(0, 0, 0); fill-opacity: 1; white-space: pre;" x="0" y="0" transform="translate(150.52519836425782,186.4)">0</text></g><g class="point"><path style="vector-effect: non-scaling-stroke; opacity: 1; stroke-width: 0px; fill: rgb(141, 160, 203); fill-opacity: 1;" d="M231.64,194.4V188.24H245.74V194.4Z"/><text class="bartext bartext-outside" text-anchor="middle" data-notex="1" style="font-family: TOBESTRIPPEDOpen SansTOBESTRIPPED, verdana, arial, sans-serif; font-size: 12px; fill: rgb(0, 0, 0); fill-opacity: 1; white-space: pre;" x="0" y="0" transform="translate(238.6901983642578,180.24)">1</text></g><g class="point"><path style="vector-effect: non-scaling-stroke; opacity: 1; stroke-width: 0px; fill: rgb(141, 160, 203); fill-opacity: 1;" d="M319.8,194.4V194.4H333.91V194.4Z"/><text class="bartext bartext-outside" text-anchor="middle" data-notex="1" style="font-family: TOBESTRIPPEDOpen SansTOBESTRIPPED, verdana, arial, sans-serif; font-size: 12px; fill: rgb(0, 0, 0); fill-opacity: 1; white-space: pre;" x="0" y="0" transform="translate(326.85519836425783,186.4)">0</text></g><g class="point"><path style="vector-effect: non-scaling-stroke; opacity: 1; stroke-width: 0px; fill: rgb(141, 160, 203); fill-opacity: 1;" d="M407.97,194.4V194.4H422.08V194.4Z"/><text class="bartext bartext-outside" text-anchor="middle" data-notex="1" style="font-family: TOBESTRIPPEDOpen SansTOBESTRIPPED, verdana, arial, sans-serif; font-size: 12px; fill: rgb(0, 0, 0); fill-opacity: 1; white-space: pre;" x="0" y="0" transform="translate(415.0251983642578,186.4)">0</text></g><g class="point"><path style="vector-effect: non-scaling-stroke; opacity: 1; stroke-width: 0px; fill: rgb(141, 160, 203); fill-opacity: 1;" d="M496.14,194.4V188.24H510.24V194.4Z"/><text class="bartext bartext-outside" text-anchor="middle" data-notex="1" style="font-family: TOBESTRIPPEDOpen SansTOBESTRIPPED, verdana, arial, sans-serif; font-size: 12px; fill: rgb(0, 0, 0); fill-opacity: 1; white-space: pre;" x="0" y="0" transform="translate(503.1901983642578,180.24)">1</text></g><g class="point"><path style="vector-effect: non-scaling-stroke; opacity: 1; stroke-width: 0px; fill: rgb(141, 160, 203); fill-opacity: 1;" d="M584.3,194.4V157.46H598.41V194.4Z"/><text class="bartext bartext-outside" text-anchor="middle" data-notex="1" style="font-family: TOBESTRIPPEDOpen SansTOBESTRIPPED, verdana, arial, sans-serif; font-size: 12px; fill: rgb(0, 0, 0); fill-opacity: 1; white-space: pre;" x="0" y="0" transform="translate(591.3551983642578,149.46)">6</text></g><g class="point"><path style="vector-effect: non-scaling-stroke; opacity: 1; stroke-width: 0px; fill: rgb(141, 160, 203); fill-opacity: 1;" d="M672.47,194.4V182.09H686.58V194.4Z"/><text class="bartext bartext-outside" text-anchor="middle" data-notex="1" style="font-family: TOBESTRIPPEDOpen SansTOBESTRIPPED, verdana, arial, sans-serif; font-size: 12px; fill: rgb(0, 0, 0); fill-opacity: 1; white-space: pre;" x="0" y="0" transform="translate(679.5251983642579,174.09)">2</text></g><g class="point"><path style="vector-effect: non-scaling-stroke; opacity: 1; stroke-width: 0px; fill: rgb(141, 160, 203); fill-opacity: 1;" d="M760.64,194.4V120.53H774.74V194.4Z"/><text class="bartext bartext-outside" text-anchor="middle" data-notex="1" style="font-family: TOBESTRIPPEDOpen SansTOBESTRIPPED, verdana, arial, sans-serif; font-size: 12px; fill: rgb(0, 0, 0); fill-opacity: 1; white-space: pre;" x="0" y="0" transform="translate(767.6904093743831,113.0585400722357)scale(0.89429198555286)">12</text></g><g class="point"><path style="vector-effect: non-scaling-stroke; opacity: 1; stroke-width: 0px; fill: rgb(141, 160, 203); fill-opacity: 1;" d="M848.8,194.4V145.15H862.91V194.4Z"/><text class="bartext bartext-outside" text-anchor="middle" data-notex="1" style="font-family: TOBESTRIPPEDOpen SansTOBESTRIPPED, verdana, arial, sans-serif; font-size: 12px; fill: rgb(0, 0, 0); fill-opacity: 1; white-space: pre;" x="0" y="0" transform="translate(855.8551983642578,137.15)">8</text></g></g></g><g class="trace bars" style="opacity: 1;"><g class="points"><g class="point"><path style="vector-effect: non-scaling-stroke; opacity: 1; stroke-width: 0px; fill: rgb(231, 138, 195); fill-opacity: 1;" d="M69.41,194.4V194.4H83.52V194.4Z"/><text class="bartext bartext-outside" text-anchor="middle" data-notex="1" style="font-family: TOBESTRIPPEDOpen SansTOBESTRIPPED, verdana, arial, sans-serif; font-size: 12px; fill: rgb(0, 0, 0); fill-opacity: 1; white-space: pre;" x="0" y="0" transform="translate(76.46519836425782,186.4)">0</text></g><g class="point"><path style="vector-effect: non-scaling-stroke; opacity: 1; stroke-width: 0px; fill: rgb(231, 138, 195); fill-opacity: 1;" d="M157.58,194.4V194.4H171.68V194.4Z"/><text class="bartext bartext-outside" text-anchor="middle" data-notex="1" style="font-family: TOBESTRIPPEDOpen SansTOBESTRIPPED, verdana, arial, sans-serif; font-size: 12px; fill: rgb(0, 0, 0); fill-opacity: 1; white-space: pre;" x="0" y="0" transform="translate(164.6301983642578,186.4)">0</text></g><g class="point"><path style="vector-effect: non-scaling-stroke; opacity: 1; stroke-width: 0px; fill: rgb(231, 138, 195); fill-opacity: 1;" d="M245.74,194.4V194.4H259.85V194.4Z"/><text class="bartext bartext-outside" text-anchor="middle" data-notex="1" style="font-family: TOBESTRIPPEDOpen SansTOBESTRIPPED, verdana, arial, sans-serif; font-size: 12px; fill: rgb(0, 0, 0); fill-opacity: 1; white-space: pre;" x="0" y="0" transform="translate(252.79519836425783,186.4)">0</text></g><g class="point"><path style="vector-effect: non-scaling-stroke; opacity: 1; stroke-width: 0px; fill: rgb(231, 138, 195); fill-opacity: 1;" d="M333.91,194.4V188.24H348.02V194.4Z"/><text class="bartext bartext-outside" text-anchor="middle" data-notex="1" style="font-family: TOBESTRIPPEDOpen SansTOBESTRIPPED, verdana, arial, sans-serif; font-size: 12px; fill: rgb(0, 0, 0); fill-opacity: 1; white-space: pre;" x="0" y="0" transform="translate(340.96519836425784,180.24)">1</text></g><g class="point"><path style="vector-effect: non-scaling-stroke; opacity: 1; stroke-width: 0px; fill: rgb(231, 138, 195); fill-opacity: 1;" d="M422.08,194.4V194.4H436.18V194.4Z"/><text class="bartext bartext-outside" text-anchor="middle" data-notex="1" style="font-family: TOBESTRIPPEDOpen SansTOBESTRIPPED, verdana, arial, sans-serif; font-size: 12px; fill: rgb(0, 0, 0); fill-opacity: 1; white-space: pre;" x="0" y="0" transform="translate(429.1301983642578,186.4)">0</text></g><g class="point"><path style="vector-effect: non-scaling-stroke; opacity: 1; stroke-width: 0px; fill: rgb(231, 138, 195); fill-opacity: 1;" d="M510.24,194.4V182.09H524.35V194.4Z"/><text class="bartext bartext-outside" text-anchor="middle" data-notex="1" style="font-family: TOBESTRIPPEDOpen SansTOBESTRIPPED, verdana, arial, sans-serif; font-size: 12px; fill: rgb(0, 0, 0); fill-opacity: 1; white-space: pre;" x="0" y="0" transform="translate(517.2951983642579,174.09)">2</text></g><g class="point"><path style="vector-effect: non-scaling-stroke; opacity: 1; stroke-width: 0px; fill: rgb(231, 138, 195); fill-opacity: 1;" d="M598.41,194.4V163.62H612.52V194.4Z"/><text class="bartext bartext-outside" text-anchor="middle" data-notex="1" style="font-family: TOBESTRIPPEDOpen SansTOBESTRIPPED, verdana, arial, sans-serif; font-size: 12px; fill: rgb(0, 0, 0); fill-opacity: 1; white-space: pre;" x="0" y="0" transform="translate(605.4651983642577,155.62)">5</text></g><g class="point"><path style="vector-effect: non-scaling-stroke; opacity: 1; stroke-width: 0px; fill: rgb(231, 138, 195); fill-opacity: 1;" d="M686.58,194.4V151.31H700.68V194.4Z"/><text class="bartext bartext-outside" text-anchor="middle" data-notex="1" style="font-family: TOBESTRIPPEDOpen SansTOBESTRIPPED, verdana, arial, sans-serif; font-size: 12px; fill: rgb(0, 0, 0); fill-opacity: 1; white-space: pre;" x="0" y="0" transform="translate(693.6301983642578,143.31)">7</text></g><g class="point"><path style="vector-effect: non-scaling-stroke; opacity: 1; stroke-width: 0px; fill: rgb(231, 138, 195); fill-opacity: 1;" d="M774.74,194.4V175.93H788.85V194.4Z"/><text class="bartext bartext-outside" text-anchor="middle" data-notex="1" style="font-family: TOBESTRIPPEDOpen SansTOBESTRIPPED, verdana, arial, sans-serif; font-size: 12px; fill: rgb(0, 0, 0); fill-opacity: 1; white-space: pre;" x="0" y="0" transform="translate(781.7951983642579,167.93)">3</text></g><g class="point"><path style="vector-effect: non-scaling-stroke; opacity: 1; stroke-width: 0px; fill: rgb(231, 138, 195); fill-opacity: 1;" d="M862.91,194.4V169.78H877.02V194.4Z"/><text class="bartext bartext-outside" text-anchor="middle" data-notex="1" style="font-family: TOBESTRIPPEDOpen SansTOBESTRIPPED, verdana, arial, sans-serif; font-size: 12px; fill: rgb(0, 0, 0); fill-opacity: 1; white-space: pre;" x="0" y="0" transform="translate(869.9651983642577,161.78)">4</text></g></g></g></g></g><g class="overplot"/><path class="xlines-above crisp" style="fill: none;" d="M0,0"/><path class="ylines-above crisp" style="fill: none;" d="M0,0"/><g class="overlines-above"/><g class="xaxislayer-above"/><g class="yaxislayer-above"><g class="ytick"><text text-anchor="end" x="59" y="4.199999999999999" style="font-family: TOBESTRIPPEDOpen SansTOBESTRIPPED, verdana, arial, sans-serif; font-size: 12px; fill: rgb(68, 68, 68); fill-opacity: 1; white-space: pre;" transform="translate(0,219.4)">0</text></g><g class="ytick"><text text-anchor="end" x="59" y="4.199999999999999" style="font-family: TOBESTRIPPEDOpen SansTOBESTRIPPED, verdana, arial, sans-serif; font-size: 12px; fill: rgb(68, 68, 68); fill-opacity: 1; white-space: pre;" transform="translate(0,157.84)">10</text></g><g class="ytick"><text text-anchor="end" x="59" y="4.199999999999999" style="font-family: TOBESTRIPPEDOpen SansTOBESTRIPPED, verdana, arial, sans-serif; font-size: 12px; fill: rgb(68, 68, 68); fill-opacity: 1; white-space: pre;" transform="translate(0,96.28)">20</text></g><g class="ytick"><text text-anchor="end" x="59" y="4.199999999999999" style="font-family: TOBESTRIPPEDOpen SansTOBESTRIPPED, verdana, arial, sans-serif; font-size: 12px; fill: rgb(68, 68, 68); fill-opacity: 1; white-space: pre;" transform="translate(0,34.72)">30</text></g></g><g class="overaxes-above"/></g><g class="subplot xy2"><g class="layer-subplot"><g class="shapelayer"/><g class="imagelayer"/></g><g class="gridlayer"><g class="x"/><g class="y2"><path class="y2grid crisp" transform="translate(0,346.76)" d="M60,0h890" style="stroke: rgb(238, 238, 238); stroke-opacity: 1; stroke-width: 1px;"/><path class="y2grid crisp" transform="translate(0,276.98)" d="M60,0h890" style="stroke: rgb(238, 238, 238); stroke-opacity: 1; stroke-width: 1px;"/></g></g><g class="zerolinelayer"><path class="y2zl zl crisp" transform="translate(0,416.53)" d="M60,0h890" style="stroke: rgb(68, 68, 68); stroke-opacity: 1; stroke-width: 1px;"/></g><path class="xlines-below"/><path class="ylines-below"/><g class="overlines-below"/><g class="xaxislayer-below"/><g class="yaxislayer-below"/><g class="overaxes-below"/><g class="plot" transform="translate(60, 235.6)" clip-path="url('#clip0dea13xy2plot')"><g class="scatterlayer mlayer"><g class="trace scatter trace2f7046" style="stroke-miterlimit: 2; opacity: 1;"><g class="fills"/><g class="errorbars"/><g class="lines"><path class="js-line" style="vector-effect: non-scaling-stroke; fill: none; stroke: rgb(102, 194, 165); stroke-opacity: 1; stroke-width: 3px; opacity: 1;" d="M48.25,166.98L224.58,166.98L312.75,160L400.92,170.46L489.08,165.23L665.42,154.76L753.58,146.04L841.75,166.98"/></g><g class="points"><path class="point" transform="translate(48.25,166.98)" style="opacity: 1; stroke-width: 0px; fill: rgb(102, 194, 165); fill-opacity: 1;" d="M3,0A3,3 0 1,1 0,-3A3,3 0 0,1 3,0Z"/><path class="point" transform="translate(136.42,166.98)" style="opacity: 1; stroke-width: 0px; fill: rgb(102, 194, 165); fill-opacity: 1;" d="M3,0A3,3 0 1,1 0,-3A3,3 0 0,1 3,0Z"/><path class="point" transform="translate(224.58,166.98)" style="opacity: 1; stroke-width: 0px; fill: rgb(102, 194, 165); fill-opacity: 1;" d="M3,0A3,3 0 1,1 0,-3A3,3 0 0,1 3,0Z"/><path class="point" transform="translate(312.75,160)" style="opacity: 1; stroke-width: 0px; fill: rgb(102, 194, 165); fill-opacity: 1;" d="M3,0A3,3 0 1,1 0,-3A3,3 0 0,1 3,0Z"/><path class="point" transform="translate(400.92,170.46)" style="opacity: 1; stroke-width: 0px; fill: rgb(102, 194, 165); fill-opacity: 1;" d="M3,0A3,3 0 1,1 0,-3A3,3 0 0,1 3,0Z"/><path class="point" transform="translate(489.08,165.23)" style="opacity: 1; stroke-width: 0px; fill: rgb(102, 194, 165); fill-opacity: 1;" d="M3,0A3,3 0 1,1 0,-3A3,3 0 0,1 3,0Z"/><path class="point" transform="translate(577.25,160)" style="opacity: 1; stroke-width: 0px; fill: rgb(102, 194, 165); fill-opacity: 1;" d="M3,0A3,3 0 1,1 0,-3A3,3 0 0,1 3,0Z"/><path class="point" transform="translate(665.42,154.76)" style="opacity: 1; stroke-width: 0px; fill: rgb(102, 194, 165); fill-opacity: 1;" d="M3,0A3,3 0 1,1 0,-3A3,3 0 0,1 3,0Z"/><path class="point" transform="translate(753.58,146.04)" style="opacity: 1; stroke-width: 0px; fill: rgb(102, 194, 165); fill-opacity: 1;" d="M3,0A3,3 0 1,1 0,-3A3,3 0 0,1 3,0Z"/><path class="point" transform="translate(841.75,166.98)" style="opacity: 1; stroke-width: 0px; fill: rgb(102, 194, 165); fill-opacity: 1;" d="M3,0A3,3 0 1,1 0,-3A3,3 0 0,1 3,0Z"/></g><g class="text"/></g><g class="trace scatter trace37fa5b" style="stroke-miterlimit: 2; opacity: 1;"><g class="fills"/><g class="errorbars"/><g class="lines"><path class="js-line" style="vector-effect: non-scaling-stroke; fill: none; stroke: rgb(166, 216, 84); stroke-opacity: 1; stroke-width: 3px; opacity: 1;" d="M48.25,166.98L136.42,173.95L224.58,178.6L312.75,171.63L400.92,176.28L489.08,171.63L577.25,164.65L665.42,178.6L753.58,111.16L841.75,169.3"/></g><g class="points"><path class="point" transform="translate(48.25,166.98)" style="opacity: 1; stroke-width: 0px; fill: rgb(166, 216, 84); fill-opacity: 1;" d="M3,0A3,3 0 1,1 0,-3A3,3 0 0,1 3,0Z"/><path class="point" transform="translate(136.42,173.95)" style="opacity: 1; stroke-width: 0px; fill: rgb(166, 216, 84); fill-opacity: 1;" d="M3,0A3,3 0 1,1 0,-3A3,3 0 0,1 3,0Z"/><path class="point" transform="translate(224.58,178.6)" style="opacity: 1; stroke-width: 0px; fill: rgb(166, 216, 84); fill-opacity: 1;" d="M3,0A3,3 0 1,1 0,-3A3,3 0 0,1 3,0Z"/><path class="point" transform="translate(312.75,171.63)" style="opacity: 1; stroke-width: 0px; fill: rgb(166, 216, 84); fill-opacity: 1;" d="M3,0A3,3 0 1,1 0,-3A3,3 0 0,1 3,0Z"/><path class="point" transform="translate(400.92,176.28)" style="opacity: 1; stroke-width: 0px; fill: rgb(166, 216, 84); fill-opacity: 1;" d="M3,0A3,3 0 1,1 0,-3A3,3 0 0,1 3,0Z"/><path class="point" transform="translate(489.08,171.63)" style="opacity: 1; stroke-width: 0px; fill: rgb(166, 216, 84); fill-opacity: 1;" d="M3,0A3,3 0 1,1 0,-3A3,3 0 0,1 3,0Z"/><path class="point" transform="translate(577.25,164.65)" style="opacity: 1; stroke-width: 0px; fill: rgb(166, 216, 84); fill-opacity: 1;" d="M3,0A3,3 0 1,1 0,-3A3,3 0 0,1 3,0Z"/><path class="point" transform="translate(665.42,178.6)" style="opacity: 1; stroke-width: 0px; fill: rgb(166, 216, 84); fill-opacity: 1;" d="M3,0A3,3 0 1,1 0,-3A3,3 0 0,1 3,0Z"/><path class="point" transform="translate(753.58,111.16)" style="opacity: 1; stroke-width: 0px; fill: rgb(166, 216, 84); fill-opacity: 1;" d="M3,0A3,3 0 1,1 0,-3A3,3 0 0,1 3,0Z"/><path class="point" transform="translate(841.75,169.3)" style="opacity: 1; stroke-width: 0px; fill: rgb(166, 216, 84); fill-opacity: 1;" d="M3,0A3,3 0 1,1 0,-3A3,3 0 0,1 3,0Z"/></g><g class="text"/></g><g class="trace scatter trace43e45d" style="stroke-miterlimit: 2; opacity: 1;"><g class="fills"/><g class="errorbars"/><g class="lines"><path class="js-line" style="vector-effect: non-scaling-stroke; fill: none; stroke: rgb(229, 196, 148); stroke-opacity: 1; stroke-width: 3px; opacity: 1;" d="M48.25,180.93L577.25,180.93L665.42,166.98L753.58,162.68L841.75,170.2"/></g><g class="points"><path class="point" transform="translate(48.25,180.93)" style="opacity: 1; stroke-width: 0px; fill: rgb(229, 196, 148); fill-opacity: 1;" d="M3,0A3,3 0 1,1 0,-3A3,3 0 0,1 3,0Z"/><path class="point" transform="translate(136.42,180.93)" style="opacity: 1; stroke-width: 0px; fill: rgb(229, 196, 148); fill-opacity: 1;" d="M3,0A3,3 0 1,1 0,-3A3,3 0 0,1 3,0Z"/><path class="point" transform="translate(224.58,180.93)" style="opacity: 1; stroke-width: 0px; fill: rgb(229, 196, 148); fill-opacity: 1;" d="M3,0A3,3 0 1,1 0,-3A3,3 0 0,1 3,0Z"/><path class="point" transform="translate(312.75,180.93)" style="opacity: 1; stroke-width: 0px; fill: rgb(229, 196, 148); fill-opacity: 1;" d="M3,0A3,3 0 1,1 0,-3A3,3 0 0,1 3,0Z"/><path class="point" transform="translate(400.92,180.93)" style="opacity: 1; stroke-width: 0px; fill: rgb(229, 196, 148); fill-opacity: 1;" d="M3,0A3,3 0 1,1 0,-3A3,3 0 0,1 3,0Z"/><path class="point" transform="translate(489.08,180.93)" style="opacity: 1; stroke-width: 0px; fill: rgb(229, 196, 148); fill-opacity: 1;" d="M3,0A3,3 0 1,1 0,-3A3,3 0 0,1 3,0Z"/><path class="point" transform="translate(577.25,180.93)" style="opacity: 1; stroke-width: 0px; fill: rgb(229, 196, 148); fill-opacity: 1;" d="M3,0A3,3 0 1,1 0,-3A3,3 0 0,1 3,0Z"/><path class="point" transform="translate(665.42,166.98)" style="opacity: 1; stroke-width: 0px; fill: rgb(229, 196, 148); fill-opacity: 1;" d="M3,0A3,3 0 1,1 0,-3A3,3 0 0,1 3,0Z"/><path class="point" transform="translate(753.58,162.68)" style="opacity: 1; stroke-width: 0px; fill: rgb(229, 196, 148); fill-opacity: 1;" d="M3,0A3,3 0 1,1 0,-3A3,3 0 0,1 3,0Z"/><path class="point" transform="translate(841.75,170.2)" style="opacity: 1; stroke-width: 0px; fill: rgb(229, 196, 148); fill-opacity: 1;" d="M3,0A3,3 0 1,1 0,-3A3,3 0 0,1 3,0Z"/></g><g class="text"/></g><g class="trace scatter tracef79c81" style="stroke-miterlimit: 2; opacity: 1;"><g class="fills"/><g class="errorbars"/><g class="lines"><path class="js-line" style="vector-effect: non-scaling-stroke; fill: none; stroke: rgb(141, 160, 203); stroke-opacity: 1; stroke-width: 3px; opacity: 1;" d="M48.25,180.93L136.42,180.93L224.58,166.98L312.75,180.93L400.92,180.93L489.08,166.98L577.25,97.2L665.42,153.02L753.58,13.47L841.75,69.29"/></g><g class="points"><path class="point" transform="translate(48.25,180.93)" style="opacity: 1; stroke-width: 0px; fill: rgb(141, 160, 203); fill-opacity: 1;" d="M3,0A3,3 0 1,1 0,-3A3,3 0 0,1 3,0Z"/><path class="point" transform="translate(136.42,180.93)" style="opacity: 1; stroke-width: 0px; fill: rgb(141, 160, 203); fill-opacity: 1;" d="M3,0A3,3 0 1,1 0,-3A3,3 0 0,1 3,0Z"/><path class="point" transform="translate(224.58,166.98)" style="opacity: 1; stroke-width: 0px; fill: rgb(141, 160, 203); fill-opacity: 1;" d="M3,0A3,3 0 1,1 0,-3A3,3 0 0,1 3,0Z"/><path class="point" transform="translate(312.75,180.93)" style="opacity: 1; stroke-width: 0px; fill: rgb(141, 160, 203); fill-opacity: 1;" d="M3,0A3,3 0 1,1 0,-3A3,3 0 0,1 3,0Z"/><path class="point" transform="translate(400.92,180.93)" style="opacity: 1; stroke-width: 0px; fill: rgb(141, 160, 203); fill-opacity: 1;" d="M3,0A3,3 0 1,1 0,-3A3,3 0 0,1 3,0Z"/><path class="point" transform="translate(489.08,166.98)" style="opacity: 1; stroke-width: 0px; fill: rgb(141, 160, 203); fill-opacity: 1;" d="M3,0A3,3 0 1,1 0,-3A3,3 0 0,1 3,0Z"/><path class="point" transform="translate(577.25,97.2)" style="opacity: 1; stroke-width: 0px; fill: rgb(141, 160, 203); fill-opacity: 1;" d="M3,0A3,3 0 1,1 0,-3A3,3 0 0,1 3,0Z"/><path class="point" transform="translate(665.42,153.02)" style="opacity: 1; stroke-width: 0px; fill: rgb(141, 160, 203); fill-opacity: 1;" d="M3,0A3,3 0 1,1 0,-3A3,3 0 0,1 3,0Z"/><path class="point" transform="translate(753.58,13.47)" style="opacity: 1; stroke-width: 0px; fill: rgb(141, 160, 203); fill-opacity: 1;" d="M3,0A3,3 0 1,1 0,-3A3,3 0 0,1 3,0Z"/><path class="point" transform="translate(841.75,69.29)" style="opacity: 1; stroke-width: 0px; fill: rgb(141, 160, 203); fill-opacity: 1;" d="M3,0A3,3 0 1,1 0,-3A3,3 0 0,1 3,0Z"/></g><g class="text"/></g><g class="trace scatter trace350ce1" style="stroke-miterlimit: 2; opacity: 1;"><g class="fills"/><g class="errorbars"/><g class="lines"><path class="js-line" style="vector-effect: non-scaling-stroke; fill: none; stroke: rgb(231, 138, 195); stroke-opacity: 1; stroke-width: 3px; opacity: 1;" d="M48.25,180.93L224.58,180.93L312.75,166.98L400.92,180.93L489.08,153.02L577.25,111.16L665.42,83.24L753.58,139.07L841.75,125.11"/></g><g class="points"><path class="point" transform="translate(48.25,180.93)" style="opacity: 1; stroke-width: 0px; fill: rgb(231, 138, 195); fill-opacity: 1;" d="M3,0A3,3 0 1,1 0,-3A3,3 0 0,1 3,0Z"/><path class="point" transform="translate(136.42,180.93)" style="opacity: 1; stroke-width: 0px; fill: rgb(231, 138, 195); fill-opacity: 1;" d="M3,0A3,3 0 1,1 0,-3A3,3 0 0,1 3,0Z"/><path class="point" transform="translate(224.58,180.93)" style="opacity: 1; stroke-width: 0px; fill: rgb(231, 138, 195); fill-opacity: 1;" d="M3,0A3,3 0 1,1 0,-3A3,3 0 0,1 3,0Z"/><path class="point" transform="translate(312.75,166.98)" style="opacity: 1; stroke-width: 0px; fill: rgb(231, 138, 195); fill-opacity: 1;" d="M3,0A3,3 0 1,1 0,-3A3,3 0 0,1 3,0Z"/><path class="point" transform="translate(400.92,180.93)" style="opacity: 1; stroke-width: 0px; fill: rgb(231, 138, 195); fill-opacity: 1;" d="M3,0A3,3 0 1,1 0,-3A3,3 0 0,1 3,0Z"/><path class="point" transform="translate(489.08,153.02)" style="opacity: 1; stroke-width: 0px; fill: rgb(231, 138, 195); fill-opacity: 1;" d="M3,0A3,3 0 1,1 0,-3A3,3 0 0,1 3,0Z"/><path class="point" transform="translate(577.25,111.16)" style="opacity: 1; stroke-width: 0px; fill: rgb(231, 138, 195); fill-opacity: 1;" d="M3,0A3,3 0 1,1 0,-3A3,3 0 0,1 3,0Z"/><path class="point" transform="translate(665.42,83.24)" style="opacity: 1; stroke-width: 0px; fill: rgb(231, 138, 195); fill-opacity: 1;" d="M3,0A3,3 0 1,1 0,-3A3,3 0 0,1 3,0Z"/><path class="point" transform="translate(753.58,139.07)" style="opacity: 1; stroke-width: 0px; fill: rgb(231, 138, 195); fill-opacity: 1;" d="M3,0A3,3 0 1,1 0,-3A3,3 0 0,1 3,0Z"/><path class="point" transform="translate(841.75,125.11)" style="opacity: 1; stroke-width: 0px; fill: rgb(231, 138, 195); fill-opacity: 1;" d="M3,0A3,3 0 1,1 0,-3A3,3 0 0,1 3,0Z"/></g><g class="text"/></g></g></g><g class="overplot"/><path class="xlines-above crisp" style="fill: none;" d="M0,0"/><path class="ylines-above crisp" style="fill: none;" d="M0,0"/><g class="overlines-above"/><g class="xaxislayer-above"><g class="xtick"><text text-anchor="middle" x="0" y="443" style="font-family: TOBESTRIPPEDOpen SansTOBESTRIPPED, verdana, arial, sans-serif; font-size: 12px; fill: rgb(68, 68, 68); fill-opacity: 1; white-space: pre;" transform="translate(196.42,0)">2012</text></g><g class="xtick"><text text-anchor="middle" x="0" y="443" style="font-family: TOBESTRIPPEDOpen SansTOBESTRIPPED, verdana, arial, sans-serif; font-size: 12px; fill: rgb(68, 68, 68); fill-opacity: 1; white-space: pre;" transform="translate(372.75,0)">2014</text></g><g class="xtick"><text text-anchor="middle" x="0" y="443" style="font-family: TOBESTRIPPEDOpen SansTOBESTRIPPED, verdana, arial, sans-serif; font-size: 12px; fill: rgb(68, 68, 68); fill-opacity: 1; white-space: pre;" transform="translate(549.0799999999999,0)">2016</text></g><g class="xtick"><text text-anchor="middle" x="0" y="443" style="font-family: TOBESTRIPPEDOpen SansTOBESTRIPPED, verdana, arial, sans-serif; font-size: 12px; fill: rgb(68, 68, 68); fill-opacity: 1; white-space: pre;" transform="translate(725.42,0)">2018</text></g><g class="xtick"><text text-anchor="middle" x="0" y="443" style="font-family: TOBESTRIPPEDOpen SansTOBESTRIPPED, verdana, arial, sans-serif; font-size: 12px; fill: rgb(68, 68, 68); fill-opacity: 1; white-space: pre;" transform="translate(901.75,0)">2020</text></g></g><g class="yaxislayer-above"><g class="y2tick"><text text-anchor="end" x="59" y="4.199999999999999" style="font-family: TOBESTRIPPEDOpen SansTOBESTRIPPED, verdana, arial, sans-serif; font-size: 12px; fill: rgb(68, 68, 68); fill-opacity: 1; white-space: pre;" transform="translate(0,416.53)">0</text></g><g class="y2tick"><text text-anchor="end" x="59" y="4.199999999999999" style="font-family: TOBESTRIPPEDOpen SansTOBESTRIPPED, verdana, arial, sans-serif; font-size: 12px; fill: rgb(68, 68, 68); fill-opacity: 1; white-space: pre;" transform="translate(0,346.76)">5</text></g><g class="y2tick"><text text-anchor="end" x="59" y="4.199999999999999" style="font-family: TOBESTRIPPEDOpen SansTOBESTRIPPED, verdana, arial, sans-serif; font-size: 12px; fill: rgb(68, 68, 68); fill-opacity: 1; white-space: pre;" transform="translate(0,276.98)">10</text></g></g><g class="overaxes-above"/></g></g><g class="polarlayer"/><g class="ternarylayer"/><g class="geolayer"/><g class="funnelarealayer"/><g class="pielayer"/><g class="treemaplayer"/><g class="sunburstlayer"/><g class="glimages"/><defs id="topdefs-0dea13"><g class="clips"/><clipPath id="legend0dea13"><rect width="285" height="105" x="0" y="0"/></clipPath></defs><g class="layer-above"><g class="imagelayer"/><g class="shapelayer"/></g><g class="infolayer"><g class="legend" pointer-events="all" transform="translate(104.5, 25)"><rect class="bg" shape-rendering="crispEdges" style="stroke: rgb(68, 68, 68); stroke-opacity: 1; fill: rgb(0, 0, 0); fill-opacity: 0; stroke-width: 0px;" width="285" height="105" x="0" y="0"/><g class="scrollbox" transform="translate(0, 0)" clip-path="url('#legend0dea13')"><g class="groups"><g class="traces" style="opacity: 1;" transform="translate(0, 14.5)"><text class="legendtext" text-anchor="start" style="font-family: TOBESTRIPPEDOpen SansTOBESTRIPPED, verdana, arial, sans-serif; font-size: 12px; fill: rgb(68, 68, 68); fill-opacity: 1; white-space: pre;" x="40" y="4.680000000000001">Energy &amp; Fuels</text><g class="layers" style="opacity: 1;"><g class="legendfill"/><g class="legendlines"/><g class="legendsymbols"><g class="legendpoints"><path class="legendundefined" d="M6,6H-6V-6H6Z" transform="translate(20,0)" style="stroke-width: 0px; fill: rgb(102, 194, 165); fill-opacity: 1;"/></g></g></g><rect class="legendtoggle" style="fill: rgb(0, 0, 0); fill-opacity: 0;" x="0" y="-9.5" width="279.1333312988281" height="19"/></g><g class="traces" style="opacity: 1;" transform="translate(0, 33.5)"><text class="legendtext" text-anchor="start" style="font-family: TOBESTRIPPEDOpen SansTOBESTRIPPED, verdana, arial, sans-serif; font-size: 12px; fill: rgb(68, 68, 68); fill-opacity: 1; white-space: pre;" x="40" y="4.680000000000001">Green &amp; Sustainable Science &amp; Technology</text><g class="layers" style="opacity: 1;"><g class="legendfill"/><g class="legendlines"/><g class="legendsymbols"><g class="legendpoints"><path class="legendundefined" d="M6,6H-6V-6H6Z" transform="translate(20,0)" style="stroke-width: 0px; fill: rgb(166, 216, 84); fill-opacity: 1;"/></g></g></g><rect class="legendtoggle" style="fill: rgb(0, 0, 0); fill-opacity: 0;" x="0" y="-9.5" width="279.1333312988281" height="19"/></g><g class="traces" style="opacity: 1;" transform="translate(0, 52.5)"><text class="legendtext" text-anchor="start" style="font-family: TOBESTRIPPEDOpen SansTOBESTRIPPED, verdana, arial, sans-serif; font-size: 12px; fill: rgb(68, 68, 68); fill-opacity: 1; white-space: pre;" x="40" y="4.680000000000001">Multidisciplinary Sciences</text><g class="layers" style="opacity: 1;"><g class="legendfill"/><g class="legendlines"/><g class="legendsymbols"><g class="legendpoints"><path class="legendundefined" d="M6,6H-6V-6H6Z" transform="translate(20,0)" style="stroke-width: 0px; fill: rgb(229, 196, 148); fill-opacity: 1;"/></g></g></g><rect class="legendtoggle" style="fill: rgb(0, 0, 0); fill-opacity: 0;" x="0" y="-9.5" width="279.1333312988281" height="19"/></g><g class="traces" style="opacity: 1;" transform="translate(0, 71.5)"><text class="legendtext" text-anchor="start" style="font-family: TOBESTRIPPEDOpen SansTOBESTRIPPED, verdana, arial, sans-serif; font-size: 12px; fill: rgb(68, 68, 68); fill-opacity: 1; white-space: pre;" x="40" y="4.680000000000001">Materials Science, Multidisciplinary</text><g class="layers" style="opacity: 1;"><g class="legendfill"/><g class="legendlines"/><g class="legendsymbols"><g class="legendpoints"><path class="legendundefined" d="M6,6H-6V-6H6Z" transform="translate(20,0)" style="stroke-width: 0px; fill: rgb(141, 160, 203); fill-opacity: 1;"/></g></g></g><rect class="legendtoggle" style="fill: rgb(0, 0, 0); fill-opacity: 0;" x="0" y="-9.5" width="279.1333312988281" height="19"/></g><g class="traces" style="opacity: 1;" transform="translate(0, 90.5)"><text class="legendtext" text-anchor="start" style="font-family: TOBESTRIPPEDOpen SansTOBESTRIPPED, verdana, arial, sans-serif; font-size: 12px; fill: rgb(68, 68, 68); fill-opacity: 1; white-space: pre;" x="40" y="4.680000000000001">Engineering, Electrical &amp; Electronic</text><g class="layers" style="opacity: 1;"><g class="legendfill"/><g class="legendlines"/><g class="legendsymbols"><g class="legendpoints"><path class="legendundefined" d="M6,6H-6V-6H6Z" transform="translate(20,0)" style="stroke-width: 0px; fill: rgb(231, 138, 195); fill-opacity: 1;"/></g></g></g><rect class="legendtoggle" style="fill: rgb(0, 0, 0); fill-opacity: 0;" x="0" y="-9.5" width="279.1333312988281" height="19"/></g></g></g><rect class="scrollbar" rx="20" ry="3" width="0" height="0" style="fill: rgb(128, 139, 164); fill-opacity: 1;" x="0" y="0"/></g><g class="g-gtitle"/><g class="g-xtitle" transform="translate(0,-18)"><text class="xtitle" style="font-family: TOBESTRIPPEDOpen SansTOBESTRIPPED, verdana, arial, sans-serif; font-size: 14px; fill: rgb(68, 68, 68); opacity: 1; font-weight: normal; white-space: pre;" x="505" y="482" text-anchor="middle">Years</text></g><g class="g-ytitle"/><g class="g-y2title"/></g></svg>