<svg class="main-svg" xmlns="http://www.w3.org/2000/svg" xmlns:xlink="http://www.w3.org/1999/xlink" width="960" height="470" style="" viewBox="0 0 960 470"><rect x="0" y="0" width="960" height="470" style="fill: rgb(255, 255, 255); fill-opacity: 1;"/><defs id="defs-03d66b"><g class="clips"><clipPath id="clip03d66bxyplot" class="plotclip"><rect width="890" height="194.4"/></clipPath><clipPath id="clip03d66bxy2plot" class="plotclip"><rect width="890" height="194.4"/></clipPath><clipPath class="axesclip" id="clip03d66bx"><rect x="60" y="0" width="890" height="470"/></clipPath><clipPath class="axesclip" id="clip03d66by"><rect x="0" y="25" width="960" height="194.4"/></clipPath><clipPath class="axesclip" id="clip03d66bxy"><rect x="60" y="25" width="890" height="194.4"/></clipPath><clipPath class="axesclip" id="clip03d66by2"><rect x="0" y="235.6" width="960" height="194.4"/></clipPath><clipPath class="axesclip" id="clip03d66bxy2"><rect x="60" y="235.6" width="890" height="194.4"/></clipPath></g><g class="gradients"/></defs><g class="bglayer"/><g class="layer-below"><g class="imagelayer"/><g class="shapelayer"/></g><g class="cartesianlayer"><g class="subplot xy"><g class="layer-subplot"><g class="shapelayer"/><g class="imagelayer"/></g><g class="gridlayer"><g class="x"/><g class="y"><path class="ygrid crisp" transform="translate(0,172.05)" d="M60,0h890" style="stroke: rgb(238, 238, 238); stroke-opacity: 1; stroke-width: 1px;"/><path class="ygrid crisp" transform="translate(0,124.69)" d="M60,0h890" style="stroke: rgb(238, 238, 238); stroke-opacity: 1; stroke-width: 1px;"/><path class="ygrid crisp" transform="translate(0,77.34)" d="M60,0h890" style="stroke: rgb(238, 238, 238); stroke-opacity: 1; stroke-width: 1px;"/><path class="ygrid crisp" transform="translate(0,29.98)" d="M60,0h890" style="stroke: rgb(238, 238, 238); stroke-opacity: 1; stroke-width: 1px;"/></g></g><g class="zerolinelayer"><path class="yzl zl crisp" transform="translate(0,219.4)" d="M60,0h890" style="stroke: rgb(68, 68, 68); stroke-opacity: 1; stroke-width: 1px;"/></g><path class="xlines-below"/><path class="ylines-below"/><g class="overlines-below"/><g class="xaxislayer-below"/><g class="yaxislayer-below"/><g class="overaxes-below"/><g class="plot" transform="translate(60, 25)" clip-path="url('#clip03d66bxyplot')"><g class="barlayer mlayer"><g class="trace bars" style="opacity: 1;"><g class="points"><g class="point"><path style="vector-effect: non-scaling-stroke; opacity: 1; stroke-width: 0px; fill: rgb(102, 194, 165); fill-opacity: 1;" d="M12.98,194.4V161.25H27.09V194.4Z"/><text class="bartext bartext-outside" text-anchor="middle" data-notex="1" style="font-family: TOBESTRIPPEDOpen SansTOBESTRIPPED, verdana, arial, sans-serif; font-size: 12px; fill: rgb(0, 0, 0); fill-opacity: 1; white-space: pre;" x="0" y="0" transform="translate(20.035198364257813,153.25)">7</text></g><g class="point"><path style="vector-effect: non-scaling-stroke; opacity: 1; stroke-width: 0px; fill: rgb(102, 194, 165); fill-opacity: 1;" d="M101.15,194.4V170.72H115.26V194.4Z"/><text class="bartext bartext-outside" text-anchor="middle" data-notex="1" style="font-family: TOBESTRIPPEDOpen SansTOBESTRIPPED, verdana, arial, sans-serif; font-size: 12px; fill: rgb(0, 0, 0); fill-opacity: 1; white-space: pre;" x="0" y="0" transform="translate(108.20519836425783,162.72)">5</text></g><g class="point"><path style="vector-effect: non-scaling-stroke; opacity: 1; stroke-width: 0px; fill: rgb(102, 194, 165); fill-opacity: 1;" d="M189.32,194.4V156.52H203.42V194.4Z"/><text class="bartext bartext-outside" text-anchor="middle" data-notex="1" style="font-family: TOBESTRIPPEDOpen SansTOBESTRIPPED, verdana, arial, sans-serif; font-size: 12px; fill: rgb(0, 0, 0); fill-opacity: 1; white-space: pre;" x="0" y="0" transform="translate(196.37019836425782,148.52)">8</text></g><g class="point"><path style="vector-effect: non-scaling-stroke; opacity: 1; stroke-width: 0px; fill: rgb(102, 194, 165); fill-opacity: 1;" d="M277.48,194.4V132.84H291.59V194.4Z"/><text class="bartext bartext-outside" text-anchor="middle" data-notex="1" style="font-family: TOBESTRIPPEDOpen SansTOBESTRIPPED, verdana, arial, sans-serif; font-size: 12px; fill: rgb(0, 0, 0); fill-opacity: 1; white-space: pre;" x="0" y="0" transform="translate(284.53540966471945,125.36536882406)scale(0.8949262351879997)">13</text></g><g class="point"><path style="vector-effect: non-scaling-stroke; opacity: 1; stroke-width: 0px; fill: rgb(102, 194, 165); fill-opacity: 1;" d="M365.65,194.4V118.63H379.76V194.4Z"/><text class="bartext bartext-outside" text-anchor="middle" data-notex="1" style="font-family: TOBESTRIPPEDOpen SansTOBESTRIPPED, verdana, arial, sans-serif; font-size: 12px; fill: rgb(0, 0, 0); fill-opacity: 1; white-space: pre;" x="0" y="0" transform="translate(372.70540966471947,111.15536882405998)scale(0.8949262351880034)">16</text></g><g class="point"><path style="vector-effect: non-scaling-stroke; opacity: 1; stroke-width: 0px; fill: rgb(102, 194, 165); fill-opacity: 1;" d="M453.82,194.4V42.87H467.92V194.4Z"/><text class="bartext bartext-outside" text-anchor="middle" data-notex="1" style="font-family: TOBESTRIPPEDOpen SansTOBESTRIPPED, verdana, arial, sans-serif; font-size: 12px; fill: rgb(0, 0, 0); fill-opacity: 1; white-space: pre;" x="0" y="0" transform="translate(460.87040937438303,35.3985400722357)scale(0.89429198555286)">32</text></g><g class="point"><path style="vector-effect: non-scaling-stroke; opacity: 1; stroke-width: 0px; fill: rgb(102, 194, 165); fill-opacity: 1;" d="M541.98,194.4V9.72H556.09V194.4Z"/><text class="bartext bartext-outside" text-anchor="middle" data-notex="1" style="font-family: TOBESTRIPPEDOpen SansTOBESTRIPPED, verdana, arial, sans-serif; font-size: 12px; fill: rgb(0, 0, 0); fill-opacity: 1; white-space: pre;" x="0" y="0" transform="translate(549.0354096647195,2.245368824059984)scale(0.8949262351880034)">39</text></g><g class="point"><path style="vector-effect: non-scaling-stroke; opacity: 1; stroke-width: 0px; fill: rgb(102, 194, 165); fill-opacity: 1;" d="M630.15,194.4V28.66H644.26V194.4Z"/><text class="bartext bartext-outside" text-anchor="middle" data-notex="1" style="font-family: TOBESTRIPPEDOpen SansTOBESTRIPPED, verdana, arial, sans-serif; font-size: 12px; fill: rgb(0, 0, 0); fill-opacity: 1; white-space: pre;" x="0" y="0" transform="translate(637.2054096647194,21.185368824059985)scale(0.8949262351880034)">35</text></g><g class="point"><path style="vector-effect: non-scaling-stroke; opacity: 1; stroke-width: 0px; fill: rgb(102, 194, 165); fill-opacity: 1;" d="M718.32,194.4V71.28H732.42V194.4Z"/><text class="bartext bartext-outside" text-anchor="middle" data-notex="1" style="font-family: TOBESTRIPPEDOpen SansTOBESTRIPPED, verdana, arial, sans-serif; font-size: 12px; fill: rgb(0, 0, 0); fill-opacity: 1; white-space: pre;" x="0" y="0" transform="translate(725.370409374383,63.808540072235736)scale(0.8942919855528528)">26</text></g><g class="point"><path style="vector-effect: non-scaling-stroke; opacity: 1; stroke-width: 0px; fill: rgb(102, 194, 165); fill-opacity: 1;" d="M806.48,194.4V94.96H820.59V194.4Z"/><text class="bartext bartext-outside" text-anchor="middle" data-notex="1" style="font-family: TOBESTRIPPEDOpen SansTOBESTRIPPED, verdana, arial, sans-serif; font-size: 12px; fill: rgb(0, 0, 0); fill-opacity: 1; white-space: pre;" x="0" y="0" transform="translate(813.5354096647195,87.48536882405998)scale(0.8949262351880034)">21</text></g></g></g><g class="trace bars" style="opacity: 1;"><g class="points"><g class="point"><path style="vector-effect: non-scaling-stroke; opacity: 1; stroke-width: 0px; fill: rgb(231, 138, 195); fill-opacity: 1;" d="M27.09,194.4V184.93H41.2V194.4Z"/><text class="bartext bartext-outside" text-anchor="middle" data-notex="1" style="font-family: TOBESTRIPPEDOpen SansTOBESTRIPPED, verdana, arial, sans-serif; font-size: 12px; fill: rgb(0, 0, 0); fill-opacity: 1; white-space: pre;" x="0" y="0" transform="translate(34.145198364257816,176.93)">2</text></g><g class="point"><path style="vector-effect: non-scaling-stroke; opacity: 1; stroke-width: 0px; fill: rgb(231, 138, 195); fill-opacity: 1;" d="M115.26,194.4V170.72H129.36V194.4Z"/><text class="bartext bartext-outside" text-anchor="middle" data-notex="1" style="font-family: TOBESTRIPPEDOpen SansTOBESTRIPPED, verdana, arial, sans-serif; font-size: 12px; fill: rgb(0, 0, 0); fill-opacity: 1; white-space: pre;" x="0" y="0" transform="translate(122.31019836425781,162.72)">5</text></g><g class="point"><path style="vector-effect: non-scaling-stroke; opacity: 1; stroke-width: 0px; fill: rgb(231, 138, 195); fill-opacity: 1;" d="M203.42,194.4V175.46H217.53V194.4Z"/><text class="bartext bartext-outside" text-anchor="middle" data-notex="1" style="font-family: TOBESTRIPPEDOpen SansTOBESTRIPPED, verdana, arial, sans-serif; font-size: 12px; fill: rgb(0, 0, 0); fill-opacity: 1; white-space: pre;" x="0" y="0" transform="translate(210.4751983642578,167.46)">4</text></g><g class="point"><path style="vector-effect: non-scaling-stroke; opacity: 1; stroke-width: 0px; fill: rgb(231, 138, 195); fill-opacity: 1;" d="M291.59,194.4V156.52H305.7V194.4Z"/><text class="bartext bartext-outside" text-anchor="middle" data-notex="1" style="font-family: TOBESTRIPPEDOpen SansTOBESTRIPPED, verdana, arial, sans-serif; font-size: 12px; fill: rgb(0, 0, 0); fill-opacity: 1; white-space: pre;" x="0" y="0" transform="translate(298.6451983642578,148.52)">8</text></g><g class="point"><path style="vector-effect: non-scaling-stroke; opacity: 1; stroke-width: 0px; fill: rgb(231, 138, 195); fill-opacity: 1;" d="M379.76,194.4V123.37H393.86V194.4Z"/><text class="bartext bartext-outside" text-anchor="middle" data-notex="1" style="font-family: TOBESTRIPPEDOpen SansTOBESTRIPPED, verdana, arial, sans-serif; font-size: 12px; fill: rgb(0, 0, 0); fill-opacity: 1; white-space: pre;" x="0" y="0" transform="translate(386.810409374383,115.8985400722357)scale(0.89429198555286)">15</text></g><g class="point"><path style="vector-effect: non-scaling-stroke; opacity: 1; stroke-width: 0px; fill: rgb(231, 138, 195); fill-opacity: 1;" d="M467.92,194.4V94.96H482.03V194.4Z"/><text class="bartext bartext-outside" text-anchor="middle" data-notex="1" style="font-family: TOBESTRIPPEDOpen SansTOBESTRIPPED, verdana, arial, sans-serif; font-size: 12px; fill: rgb(0, 0, 0); fill-opacity: 1; white-space: pre;" x="0" y="0" transform="translate(474.9754096647195,87.48536882405999)scale(0.8949262351879997)">21</text></g><g class="point"><path style="vector-effect: non-scaling-stroke; opacity: 1; stroke-width: 0px; fill: rgb(231, 138, 195); fill-opacity: 1;" d="M556.09,194.4V33.4H570.2V194.4Z"/><text class="bartext bartext-outside" text-anchor="middle" data-notex="1" style="font-family: TOBESTRIPPEDOpen SansTOBESTRIPPED, verdana, arial, sans-serif; font-size: 12px; fill: rgb(0, 0, 0); fill-opacity: 1; white-space: pre;" x="0" y="0" transform="translate(563.1454096647194,25.92536882405998)scale(0.8949262351880034)">34</text></g><g class="point"><path style="vector-effect: non-scaling-stroke; opacity: 1; stroke-width: 0px; fill: rgb(231, 138, 195); fill-opacity: 1;" d="M644.26,194.4V71.28H658.36V194.4Z"/><text class="bartext bartext-outside" text-anchor="middle" data-notex="1" style="font-family: TOBESTRIPPEDOpen SansTOBESTRIPPED, verdana, arial, sans-serif; font-size: 12px; fill: rgb(0, 0, 0); fill-opacity: 1; white-space: pre;" x="0" y="0" transform="translate(651.310409374383,63.8085400722357)scale(0.89429198555286)">26</text></g><g class="point"><path style="vector-effect: non-scaling-stroke; opacity: 1; stroke-width: 0px; fill: rgb(231, 138, 195); fill-opacity: 1;" d="M732.42,194.4V80.75H746.53V194.4Z"/><text class="bartext bartext-outside" text-anchor="middle" data-notex="1" style="font-family: TOBESTRIPPEDOpen SansTOBESTRIPPED, verdana, arial, sans-serif; font-size: 12px; fill: rgb(0, 0, 0); fill-opacity: 1; white-space: pre;" x="0" y="0" transform="translate(739.4754096647193,73.27536882405998)scale(0.8949262351880034)">24</text></g><g class="point"><path style="vector-effect: non-scaling-stroke; opacity: 1; stroke-width: 0px; fill: rgb(231, 138, 195); fill-opacity: 1;" d="M820.59,194.4V147.05H834.7V194.4Z"/><text class="bartext bartext-outside" text-anchor="middle" data-notex="1" style="font-family: TOBESTRIPPEDOpen SansTOBESTRIPPED, verdana, arial, sans-serif; font-size: 12px; fill: rgb(0, 0, 0); fill-opacity: 1; white-space: pre;" x="0" y="0" transform="translate(827.6454096647194,139.57536882406)scale(0.8949262351880034)">10</text></g></g></g><g class="trace bars" style="opacity: 1;"><g class="points"><g class="point"><path style="vector-effect: non-scaling-stroke; opacity: 1; stroke-width: 0px; fill: rgb(229, 196, 148); fill-opacity: 1;" d="M41.2,194.4V180.19H55.3V194.4Z"/><text class="bartext bartext-outside" text-anchor="middle" data-notex="1" style="font-family: TOBESTRIPPEDOpen SansTOBESTRIPPED, verdana, arial, sans-serif; font-size: 12px; fill: rgb(0, 0, 0); fill-opacity: 1; white-space: pre;" x="0" y="0" transform="translate(48.25019836425781,172.19)">3</text></g><g class="point"><path style="vector-effect: non-scaling-stroke; opacity: 1; stroke-width: 0px; fill: rgb(229, 196, 148); fill-opacity: 1;" d="M129.36,194.4V170.72H143.47V194.4Z"/><text class="bartext bartext-outside" text-anchor="middle" data-notex="1" style="font-family: TOBESTRIPPEDOpen SansTOBESTRIPPED, verdana, arial, sans-serif; font-size: 12px; fill: rgb(0, 0, 0); fill-opacity: 1; white-space: pre;" x="0" y="0" transform="translate(136.41519836425783,162.72)">5</text></g><g class="point"><path style="vector-effect: non-scaling-stroke; opacity: 1; stroke-width: 0px; fill: rgb(229, 196, 148); fill-opacity: 1;" d="M217.53,194.4V180.19H231.64V194.4Z"/><text class="bartext bartext-outside" text-anchor="middle" data-notex="1" style="font-family: TOBESTRIPPEDOpen SansTOBESTRIPPED, verdana, arial, sans-serif; font-size: 12px; fill: rgb(0, 0, 0); fill-opacity: 1; white-space: pre;" x="0" y="0" transform="translate(224.5851983642578,172.19)">3</text></g><g class="point"><path style="vector-effect: non-scaling-stroke; opacity: 1; stroke-width: 0px; fill: rgb(229, 196, 148); fill-opacity: 1;" d="M305.7,194.4V156.52H319.8V194.4Z"/><text class="bartext bartext-outside" text-anchor="middle" data-notex="1" style="font-family: TOBESTRIPPEDOpen SansTOBESTRIPPED, verdana, arial, sans-serif; font-size: 12px; fill: rgb(0, 0, 0); fill-opacity: 1; white-space: pre;" x="0" y="0" transform="translate(312.7501983642578,148.52)">8</text></g><g class="point"><path style="vector-effect: non-scaling-stroke; opacity: 1; stroke-width: 0px; fill: rgb(229, 196, 148); fill-opacity: 1;" d="M393.86,194.4V161.25H407.97V194.4Z"/><text class="bartext bartext-outside" text-anchor="middle" data-notex="1" style="font-family: TOBESTRIPPEDOpen SansTOBESTRIPPED, verdana, arial, sans-serif; font-size: 12px; fill: rgb(0, 0, 0); fill-opacity: 1; white-space: pre;" x="0" y="0" transform="translate(400.91519836425783,153.25)">7</text></g><g class="point"><path style="vector-effect: non-scaling-stroke; opacity: 1; stroke-width: 0px; fill: rgb(229, 196, 148); fill-opacity: 1;" d="M482.03,194.4V128.1H496.14V194.4Z"/><text class="bartext bartext-outside" text-anchor="middle" data-notex="1" style="font-family: TOBESTRIPPEDOpen SansTOBESTRIPPED, verdana, arial, sans-serif; font-size: 12px; fill: rgb(0, 0, 0); fill-opacity: 1; white-space: pre;" x="0" y="0" transform="translate(489.08540966471946,120.62536882405998)scale(0.8949262351880034)">14</text></g><g class="point"><path style="vector-effect: non-scaling-stroke; opacity: 1; stroke-width: 0px; fill: rgb(229, 196, 148); fill-opacity: 1;" d="M570.2,194.4V123.37H584.3V194.4Z"/><text class="bartext bartext-outside" text-anchor="middle" data-notex="1" style="font-family: TOBESTRIPPEDOpen SansTOBESTRIPPED, verdana, arial, sans-serif; font-size: 12px; fill: rgb(0, 0, 0); fill-opacity: 1; white-space: pre;" x="0" y="0" transform="translate(577.250409374383,115.89854007223575)scale(0.8942919855528528)">15</text></g><g class="point"><path style="vector-effect: non-scaling-stroke; opacity: 1; stroke-width: 0px; fill: rgb(229, 196, 148); fill-opacity: 1;" d="M658.36,194.4V118.63H672.47V194.4Z"/><text class="bartext bartext-outside" text-anchor="middle" data-notex="1" style="font-family: TOBESTRIPPEDOpen SansTOBESTRIPPED, verdana, arial, sans-serif; font-size: 12px; fill: rgb(0, 0, 0); fill-opacity: 1; white-space: pre;" x="0" y="0" transform="translate(665.4154096647194,111.15536882405998)scale(0.8949262351880034)">16</text></g><g class="point"><path style="vector-effect: non-scaling-stroke; opacity: 1; stroke-width: 0px; fill: rgb(229, 196, 148); fill-opacity: 1;" d="M746.53,194.4V128.1H760.64V194.4Z"/><text class="bartext bartext-outside" text-anchor="middle" data-notex="1" style="font-family: TOBESTRIPPEDOpen SansTOBESTRIPPED, verdana, arial, sans-serif; font-size: 12px; fill: rgb(0, 0, 0); fill-opacity: 1; white-space: pre;" x="0" y="0" transform="translate(753.5854096647195,120.62536882405998)scale(0.8949262351880034)">14</text></g><g class="point"><path style="vector-effect: non-scaling-stroke; opacity: 1; stroke-width: 0px; fill: rgb(229, 196, 148); fill-opacity: 1;" d="M834.7,194.4V76.02H848.8V194.4Z"/><text class="bartext bartext-outside" text-anchor="middle" data-notex="1" style="font-family: TOBESTRIPPEDOpen SansTOBESTRIPPED, verdana, arial, sans-serif; font-size: 12px; fill: rgb(0, 0, 0); fill-opacity: 1; white-space: pre;" x="0" y="0" transform="translate(841.750409374383,68.54854007223574)scale(0.8942919855528528)">25</text></g></g></g><g class="trace bars" style="opacity: 1;"><g class="points"><g class="point"><path style="vector-effect: non-scaling-stroke; opacity: 1; stroke-width: 0px; fill: rgb(179, 179, 179); fill-opacity: 1;" d="M55.3,194.4V137.58H69.41V194.4Z"/><text class="bartext bartext-outside" text-anchor="middle" data-notex="1" style="font-family: TOBESTRIPPEDOpen SansTOBESTRIPPED, verdana, arial, sans-serif; font-size: 12px; fill: rgb(0, 0, 0); fill-opacity: 1; white-space: pre;" x="0" y="0" transform="translate(62.355409664719474,130.10536882406)scale(0.8949262351880025)">12</text></g><g class="point"><path style="vector-effect: non-scaling-stroke; opacity: 1; stroke-width: 0px; fill: rgb(179, 179, 179); fill-opacity: 1;" d="M143.47,194.4V161.25H157.58V194.4Z"/><text class="bartext bartext-outside" text-anchor="middle" data-notex="1" style="font-family: TOBESTRIPPEDOpen SansTOBESTRIPPED, verdana, arial, sans-serif; font-size: 12px; fill: rgb(0, 0, 0); fill-opacity: 1; white-space: pre;" x="0" y="0" transform="translate(150.52519836425782,153.25)">7</text></g><g class="point"><path style="vector-effect: non-scaling-stroke; opacity: 1; stroke-width: 0px; fill: rgb(179, 179, 179); fill-opacity: 1;" d="M231.64,194.4V175.46H245.74V194.4Z"/><text class="bartext bartext-outside" text-anchor="middle" data-notex="1" style="font-family: TOBESTRIPPEDOpen SansTOBESTRIPPED, verdana, arial, sans-serif; font-size: 12px; fill: rgb(0, 0, 0); fill-opacity: 1; white-space: pre;" x="0" y="0" transform="translate(238.6901983642578,167.46)">4</text></g><g class="point"><path style="vector-effect: non-scaling-stroke; opacity: 1; stroke-width: 0px; fill: rgb(179, 179, 179); fill-opacity: 1;" d="M319.8,194.4V137.58H333.91V194.4Z"/><text class="bartext bartext-outside" text-anchor="middle" data-notex="1" style="font-family: TOBESTRIPPEDOpen SansTOBESTRIPPED, verdana, arial, sans-serif; font-size: 12px; fill: rgb(0, 0, 0); fill-opacity: 1; white-space: pre;" x="0" y="0" transform="translate(326.8554096647195,130.10536882406)scale(0.8949262351880034)">12</text></g><g class="point"><path style="vector-effect: non-scaling-stroke; opacity: 1; stroke-width: 0px; fill: rgb(179, 179, 179); fill-opacity: 1;" d="M407.97,194.4V156.52H422.08V194.4Z"/><text class="bartext bartext-outside" text-anchor="middle" data-notex="1" style="font-family: TOBESTRIPPEDOpen SansTOBESTRIPPED, verdana, arial, sans-serif; font-size: 12px; fill: rgb(0, 0, 0); fill-opacity: 1; white-space: pre;" x="0" y="0" transform="translate(415.0251983642578,148.52)">8</text></g><g class="point"><path style="vector-effect: non-scaling-stroke; opacity: 1; stroke-width: 0px; fill: rgb(179, 179, 179); fill-opacity: 1;" d="M496.14,194.4V151.78H510.24V194.4Z"/><text class="bartext bartext-outside" text-anchor="middle" data-notex="1" style="font-family: TOBESTRIPPEDOpen SansTOBESTRIPPED, verdana, arial, sans-serif; font-size: 12px; fill: rgb(0, 0, 0); fill-opacity: 1; white-space: pre;" x="0" y="0" transform="translate(503.1901983642578,143.78)">9</text></g><g class="point"><path style="vector-effect: non-scaling-stroke; opacity: 1; stroke-width: 0px; fill: rgb(179, 179, 179); fill-opacity: 1;" d="M584.3,194.4V142.31H598.41V194.4Z"/><text class="bartext bartext-outside" text-anchor="middle" data-notex="1" style="font-family: TOBESTRIPPEDOpen SansTOBESTRIPPED, verdana, arial, sans-serif; font-size: 12px; fill: rgb(0, 0, 0); fill-opacity: 1; white-space: pre;" x="0" y="0" transform="translate(591.3554096647194,134.83536882406)scale(0.8949262351880034)">11</text></g><g class="point"><path style="vector-effect: non-scaling-stroke; opacity: 1; stroke-width: 0px; fill: rgb(179, 179, 179); fill-opacity: 1;" d="M672.47,194.4V184.93H686.58V194.4Z"/><text class="bartext bartext-outside" text-anchor="middle" data-notex="1" style="font-family: TOBESTRIPPEDOpen SansTOBESTRIPPED, verdana, arial, sans-serif; font-size: 12px; fill: rgb(0, 0, 0); fill-opacity: 1; white-space: pre;" x="0" y="0" transform="translate(679.5251983642579,176.93)">2</text></g><g class="point"><path style="vector-effect: non-scaling-stroke; opacity: 1; stroke-width: 0px; fill: rgb(179, 179, 179); fill-opacity: 1;" d="M760.64,194.4V118.63H774.74V194.4Z"/><text class="bartext bartext-outside" text-anchor="middle" data-notex="1" style="font-family: TOBESTRIPPEDOpen SansTOBESTRIPPED, verdana, arial, sans-serif; font-size: 12px; fill: rgb(0, 0, 0); fill-opacity: 1; white-space: pre;" x="0" y="0" transform="translate(767.6904093743831,111.1585400722357)scale(0.89429198555286)">16</text></g><g class="point"><path style="vector-effect: non-scaling-stroke; opacity: 1; stroke-width: 0px; fill: rgb(179, 179, 179); fill-opacity: 1;" d="M848.8,194.4V123.37H862.91V194.4Z"/><text class="bartext bartext-outside" text-anchor="middle" data-notex="1" style="font-family: TOBESTRIPPEDOpen SansTOBESTRIPPED, verdana, arial, sans-serif; font-size: 12px; fill: rgb(0, 0, 0); fill-opacity: 1; white-space: pre;" x="0" y="0" transform="translate(855.8554096647194,115.89536882405999)scale(0.8949262351880034)">15</text></g></g></g><g class="trace bars" style="opacity: 1;"><g class="points"><g class="point"><path style="vector-effect: non-scaling-stroke; opacity: 1; stroke-width: 0px; fill: rgb(166, 216, 84); fill-opacity: 1;" d="M69.41,194.4V161.25H83.52V194.4Z"/><text class="bartext bartext-outside" text-anchor="middle" data-notex="1" style="font-family: TOBESTRIPPEDOpen SansTOBESTRIPPED, verdana, arial, sans-serif; font-size: 12px; fill: rgb(0, 0, 0); fill-opacity: 1; white-space: pre;" x="0" y="0" transform="translate(76.46519836425782,153.25)">7</text></g><g class="point"><path style="vector-effect: non-scaling-stroke; opacity: 1; stroke-width: 0px; fill: rgb(166, 216, 84); fill-opacity: 1;" d="M157.58,194.4V156.52H171.68V194.4Z"/><text class="bartext bartext-outside" text-anchor="middle" data-notex="1" style="font-family: TOBESTRIPPEDOpen SansTOBESTRIPPED, verdana, arial, sans-serif; font-size: 12px; fill: rgb(0, 0, 0); fill-opacity: 1; white-space: pre;" x="0" y="0" transform="translate(164.6301983642578,148.52)">8</text></g><g class="point"><path style="vector-effect: non-scaling-stroke; opacity: 1; stroke-width: 0px; fill: rgb(166, 216, 84); fill-opacity: 1;" d="M245.74,194.4V175.46H259.85V194.4Z"/><text class="bartext bartext-outside" text-anchor="middle" data-notex="1" style="font-family: TOBESTRIPPEDOpen SansTOBESTRIPPED, verdana, arial, sans-serif; font-size: 12px; fill: rgb(0, 0, 0); fill-opacity: 1; white-space: pre;" x="0" y="0" transform="translate(252.79519836425783,167.46)">4</text></g><g class="point"><path style="vector-effect: non-scaling-stroke; opacity: 1; stroke-width: 0px; fill: rgb(166, 216, 84); fill-opacity: 1;" d="M333.91,194.4V170.72H348.02V194.4Z"/><text class="bartext bartext-outside" text-anchor="middle" data-notex="1" style="font-family: TOBESTRIPPEDOpen SansTOBESTRIPPED, verdana, arial, sans-serif; font-size: 12px; fill: rgb(0, 0, 0); fill-opacity: 1; white-space: pre;" x="0" y="0" transform="translate(340.96519836425784,162.72)">5</text></g><g class="point"><path style="vector-effect: non-scaling-stroke; opacity: 1; stroke-width: 0px; fill: rgb(166, 216, 84); fill-opacity: 1;" d="M422.08,194.4V156.52H436.18V194.4Z"/><text class="bartext bartext-outside" text-anchor="middle" data-notex="1" style="font-family: TOBESTRIPPEDOpen SansTOBESTRIPPED, verdana, arial, sans-serif; font-size: 12px; fill: rgb(0, 0, 0); fill-opacity: 1; white-space: pre;" x="0" y="0" transform="translate(429.1301983642578,148.52)">8</text></g><g class="point"><path style="vector-effect: non-scaling-stroke; opacity: 1; stroke-width: 0px; fill: rgb(166, 216, 84); fill-opacity: 1;" d="M510.24,194.4V175.46H524.35V194.4Z"/><text class="bartext bartext-outside" text-anchor="middle" data-notex="1" style="font-family: TOBESTRIPPEDOpen SansTOBESTRIPPED, verdana, arial, sans-serif; font-size: 12px; fill: rgb(0, 0, 0); fill-opacity: 1; white-space: pre;" x="0" y="0" transform="translate(517.2951983642579,167.46)">4</text></g><g class="point"><path style="vector-effect: non-scaling-stroke; opacity: 1; stroke-width: 0px; fill: rgb(166, 216, 84); fill-opacity: 1;" d="M598.41,194.4V170.72H612.52V194.4Z"/><text class="bartext bartext-outside" text-anchor="middle" data-notex="1" style="font-family: TOBESTRIPPEDOpen SansTOBESTRIPPED, verdana, arial, sans-serif; font-size: 12px; fill: rgb(0, 0, 0); fill-opacity: 1; white-space: pre;" x="0" y="0" transform="translate(605.4651983642577,162.72)">5</text></g><g class="point"><path style="vector-effect: non-scaling-stroke; opacity: 1; stroke-width: 0px; fill: rgb(166, 216, 84); fill-opacity: 1;" d="M686.58,194.4V151.78H700.68V194.4Z"/><text class="bartext bartext-outside" text-anchor="middle" data-notex="1" style="font-family: TOBESTRIPPEDOpen SansTOBESTRIPPED, verdana, arial, sans-serif; font-size: 12px; fill: rgb(0, 0, 0); fill-opacity: 1; white-space: pre;" x="0" y="0" transform="translate(693.6301983642578,143.78)">9</text></g><g class="point"><path style="vector-effect: non-scaling-stroke; opacity: 1; stroke-width: 0px; fill: rgb(166, 216, 84); fill-opacity: 1;" d="M774.74,194.4V170.72H788.85V194.4Z"/><text class="bartext bartext-outside" text-anchor="middle" data-notex="1" style="font-family: TOBESTRIPPEDOpen SansTOBESTRIPPED, verdana, arial, sans-serif; font-size: 12px; fill: rgb(0, 0, 0); fill-opacity: 1; white-space: pre;" x="0" y="0" transform="translate(781.7951983642579,162.72)">5</text></g><g class="point"><path style="vector-effect: non-scaling-stroke; opacity: 1; stroke-width: 0px; fill: rgb(166, 216, 84); fill-opacity: 1;" d="M862.91,194.4V161.25H877.02V194.4Z"/><text class="bartext bartext-outside" text-anchor="middle" data-notex="1" style="font-family: TOBESTRIPPEDOpen SansTOBESTRIPPED, verdana, arial, sans-serif; font-size: 12px; fill: rgb(0, 0, 0); fill-opacity: 1; white-space: pre;" x="0" y="0" transform="translate(869.9651983642577,153.25)">7</text></g></g></g></g></g><g class="overplot"/><path class="xlines-above crisp" style="fill: none;" d="M0,0"/><path class="ylines-above crisp" style="fill: none;" d="M0,0"/><g class="overlines-above"/><g class="xaxislayer-above"/><g class="yaxislayer-above"><g class="ytick"><text text-anchor="end" x="59" y="4.199999999999999" style="font-family: TOBESTRIPPEDOpen SansTOBESTRIPPED, verdana, arial, sans-serif; font-size: 12px; fill: rgb(68, 68, 68); fill-opacity: 1; white-space: pre;" transform="translate(0,219.4)">0</text></g><g class="ytick"><text text-anchor="end" x="59" y="4.199999999999999" style="font-family: TOBESTRIPPEDOpen SansTOBESTRIPPED, verdana, arial, sans-serif; font-size: 12px; fill: rgb(68, 68, 68); fill-opacity: 1; white-space: pre;" transform="translate(0,172.05)">10</text></g><g class="ytick"><text text-anchor="end" x="59" y="4.199999999999999" style="font-family: TOBESTRIPPEDOpen SansTOBESTRIPPED, verdana, arial, sans-serif; font-size: 12px; fill: rgb(68, 68, 68); fill-opacity: 1; white-space: pre;" transform="translate(0,124.69)">20</text></g><g class="ytick"><text text-anchor="end" x="59" y="4.199999999999999" style="font-family: TOBESTRIPPEDOpen SansTOBESTRIPPED, verdana, arial, sans-serif; font-size: 12px; fill: rgb(68, 68, 68); fill-opacity: 1; white-space: pre;" transform="translate(0,77.34)">30</text></g><g class="ytick"><text text-anchor="end" x="59" y="4.199999999999999" style="font-family: TOBESTRIPPEDOpen SansTOBESTRIPPED, verdana, arial, sans-serif; font-size: 12px; fill: rgb(68, 68, 68); fill-opacity: 1; white-space: pre;" transform="translate(0,29.98)">40</text></g></g><g class="overaxes-above"/></g><g class="subplot xy2"><g class="layer-subplot"><g class="shapelayer"/><g class="imagelayer"/></g><g class="gridlayer"><g class="x"/><g class="y2"><path class="y2grid crisp" transform="translate(0,368.45)" d="M60,0h890" style="stroke: rgb(238, 238, 238); stroke-opacity: 1; stroke-width: 1px;"/><path class="y2grid crisp" transform="translate(0,318.71)" d="M60,0h890" style="stroke: rgb(238, 238, 238); stroke-opacity: 1; stroke-width: 1px;"/><path class="y2grid crisp" transform="translate(0,268.96999999999997)" d="M60,0h890" style="stroke: rgb(238, 238, 238); stroke-opacity: 1; stroke-width: 1px;"/></g></g><g class="zerolinelayer"><path class="y2zl zl crisp" transform="translate(0,418.19)" d="M60,0h890" style="stroke: rgb(68, 68, 68); stroke-opacity: 1; stroke-width: 1px;"/></g><path class="xlines-below"/><path class="ylines-below"/><g class="overlines-below"/><g class="xaxislayer-below"/><g class="yaxislayer-below"/><g class="overaxes-below"/><g class="plot" transform="translate(60, 235.6)" clip-path="url('#clip03d66bxy2plot')"><g class="scatterlayer mlayer"><g class="trace scatter tracedd72a2" style="stroke-miterlimit: 2; opacity: 1;"><g class="fills"/><g class="errorbars"/><g class="lines"><path class="js-line" style="vector-effect: non-scaling-stroke; fill: none; stroke: rgb(102, 194, 165); stroke-opacity: 1; stroke-width: 3px; opacity: 1;" d="M48.25,172.64L136.42,175.48L224.58,171.22L312.75,164.11L400.92,159.85L489.08,137.11L577.25,127.16L665.42,132.85L753.58,145.64L841.75,152.74"/></g><g class="points"><path class="point" transform="translate(48.25,172.64)" style="opacity: 1; stroke-width: 0px; fill: rgb(102, 194, 165); fill-opacity: 1;" d="M3,0A3,3 0 1,1 0,-3A3,3 0 0,1 3,0Z"/><path class="point" transform="translate(136.42,175.48)" style="opacity: 1; stroke-width: 0px; fill: rgb(102, 194, 165); fill-opacity: 1;" d="M3,0A3,3 0 1,1 0,-3A3,3 0 0,1 3,0Z"/><path class="point" transform="translate(224.58,171.22)" style="opacity: 1; stroke-width: 0px; fill: rgb(102, 194, 165); fill-opacity: 1;" d="M3,0A3,3 0 1,1 0,-3A3,3 0 0,1 3,0Z"/><path class="point" transform="translate(312.75,164.11)" style="opacity: 1; stroke-width: 0px; fill: rgb(102, 194, 165); fill-opacity: 1;" d="M3,0A3,3 0 1,1 0,-3A3,3 0 0,1 3,0Z"/><path class="point" transform="translate(400.92,159.85)" style="opacity: 1; stroke-width: 0px; fill: rgb(102, 194, 165); fill-opacity: 1;" d="M3,0A3,3 0 1,1 0,-3A3,3 0 0,1 3,0Z"/><path class="point" transform="translate(489.08,137.11)" style="opacity: 1; stroke-width: 0px; fill: rgb(102, 194, 165); fill-opacity: 1;" d="M3,0A3,3 0 1,1 0,-3A3,3 0 0,1 3,0Z"/><path class="point" transform="translate(577.25,127.16)" style="opacity: 1; stroke-width: 0px; fill: rgb(102, 194, 165); fill-opacity: 1;" d="M3,0A3,3 0 1,1 0,-3A3,3 0 0,1 3,0Z"/><path class="point" transform="translate(665.42,132.85)" style="opacity: 1; stroke-width: 0px; fill: rgb(102, 194, 165); fill-opacity: 1;" d="M3,0A3,3 0 1,1 0,-3A3,3 0 0,1 3,0Z"/><path class="point" transform="translate(753.58,145.64)" style="opacity: 1; stroke-width: 0px; fill: rgb(102, 194, 165); fill-opacity: 1;" d="M3,0A3,3 0 1,1 0,-3A3,3 0 0,1 3,0Z"/><path class="point" transform="translate(841.75,152.74)" style="opacity: 1; stroke-width: 0px; fill: rgb(102, 194, 165); fill-opacity: 1;" d="M3,0A3,3 0 1,1 0,-3A3,3 0 0,1 3,0Z"/></g><g class="text"/></g><g class="trace scatter trace0d39f3" style="stroke-miterlimit: 2; opacity: 1;"><g class="fills"/><g class="errorbars"/><g class="lines"><path class="js-line" style="vector-effect: non-scaling-stroke; fill: none; stroke: rgb(231, 138, 195); stroke-opacity: 1; stroke-width: 3px; opacity: 1;" d="M48.25,172.64L136.42,157.72L224.58,162.69L312.75,142.8L400.92,107.98L489.08,78.13L577.25,13.47L665.42,53.26L753.58,63.21L841.75,132.85"/></g><g class="points"><path class="point" transform="translate(48.25,172.64)" style="opacity: 1; stroke-width: 0px; fill: rgb(231, 138, 195); fill-opacity: 1;" d="M3,0A3,3 0 1,1 0,-3A3,3 0 0,1 3,0Z"/><path class="point" transform="translate(136.42,157.72)" style="opacity: 1; stroke-width: 0px; fill: rgb(231, 138, 195); fill-opacity: 1;" d="M3,0A3,3 0 1,1 0,-3A3,3 0 0,1 3,0Z"/><path class="point" transform="translate(224.58,162.69)" style="opacity: 1; stroke-width: 0px; fill: rgb(231, 138, 195); fill-opacity: 1;" d="M3,0A3,3 0 1,1 0,-3A3,3 0 0,1 3,0Z"/><path class="point" transform="translate(312.75,142.8)" style="opacity: 1; stroke-width: 0px; fill: rgb(231, 138, 195); fill-opacity: 1;" d="M3,0A3,3 0 1,1 0,-3A3,3 0 0,1 3,0Z"/><path class="point" transform="translate(400.92,107.98)" style="opacity: 1; stroke-width: 0px; fill: rgb(231, 138, 195); fill-opacity: 1;" d="M3,0A3,3 0 1,1 0,-3A3,3 0 0,1 3,0Z"/><path class="point" transform="translate(489.08,78.13)" style="opacity: 1; stroke-width: 0px; fill: rgb(231, 138, 195); fill-opacity: 1;" d="M3,0A3,3 0 1,1 0,-3A3,3 0 0,1 3,0Z"/><path class="point" transform="translate(577.25,13.47)" style="opacity: 1; stroke-width: 0px; fill: rgb(231, 138, 195); fill-opacity: 1;" d="M3,0A3,3 0 1,1 0,-3A3,3 0 0,1 3,0Z"/><path class="point" transform="translate(665.42,53.26)" style="opacity: 1; stroke-width: 0px; fill: rgb(231, 138, 195); fill-opacity: 1;" d="M3,0A3,3 0 1,1 0,-3A3,3 0 0,1 3,0Z"/><path class="point" transform="translate(753.58,63.21)" style="opacity: 1; stroke-width: 0px; fill: rgb(231, 138, 195); fill-opacity: 1;" d="M3,0A3,3 0 1,1 0,-3A3,3 0 0,1 3,0Z"/><path class="point" transform="translate(841.75,132.85)" style="opacity: 1; stroke-width: 0px; fill: rgb(231, 138, 195); fill-opacity: 1;" d="M3,0A3,3 0 1,1 0,-3A3,3 0 0,1 3,0Z"/></g><g class="text"/></g><g class="trace scatter trace28d074" style="stroke-miterlimit: 2; opacity: 1;"><g class="fills"/><g class="errorbars"/><g class="lines"><path class="js-line" style="vector-effect: non-scaling-stroke; fill: none; stroke: rgb(229, 196, 148); stroke-opacity: 1; stroke-width: 3px; opacity: 1;" d="M48.25,172.64L136.42,166.01L224.58,172.64L312.75,156.06L400.92,159.38L489.08,136.16L577.25,132.85L665.42,129.53L753.58,136.16L841.75,99.69"/></g><g class="points"><path class="point" transform="translate(48.25,172.64)" style="opacity: 1; stroke-width: 0px; fill: rgb(229, 196, 148); fill-opacity: 1;" d="M3,0A3,3 0 1,1 0,-3A3,3 0 0,1 3,0Z"/><path class="point" transform="translate(136.42,166.01)" style="opacity: 1; stroke-width: 0px; fill: rgb(229, 196, 148); fill-opacity: 1;" d="M3,0A3,3 0 1,1 0,-3A3,3 0 0,1 3,0Z"/><path class="point" transform="translate(224.58,172.64)" style="opacity: 1; stroke-width: 0px; fill: rgb(229, 196, 148); fill-opacity: 1;" d="M3,0A3,3 0 1,1 0,-3A3,3 0 0,1 3,0Z"/><path class="point" transform="translate(312.75,156.06)" style="opacity: 1; stroke-width: 0px; fill: rgb(229, 196, 148); fill-opacity: 1;" d="M3,0A3,3 0 1,1 0,-3A3,3 0 0,1 3,0Z"/><path class="point" transform="translate(400.92,159.38)" style="opacity: 1; stroke-width: 0px; fill: rgb(229, 196, 148); fill-opacity: 1;" d="M3,0A3,3 0 1,1 0,-3A3,3 0 0,1 3,0Z"/><path class="point" transform="translate(489.08,136.16)" style="opacity: 1; stroke-width: 0px; fill: rgb(229, 196, 148); fill-opacity: 1;" d="M3,0A3,3 0 1,1 0,-3A3,3 0 0,1 3,0Z"/><path class="point" transform="translate(577.25,132.85)" style="opacity: 1; stroke-width: 0px; fill: rgb(229, 196, 148); fill-opacity: 1;" d="M3,0A3,3 0 1,1 0,-3A3,3 0 0,1 3,0Z"/><path class="point" transform="translate(665.42,129.53)" style="opacity: 1; stroke-width: 0px; fill: rgb(229, 196, 148); fill-opacity: 1;" d="M3,0A3,3 0 1,1 0,-3A3,3 0 0,1 3,0Z"/><path class="point" transform="translate(753.58,136.16)" style="opacity: 1; stroke-width: 0px; fill: rgb(229, 196, 148); fill-opacity: 1;" d="M3,0A3,3 0 1,1 0,-3A3,3 0 0,1 3,0Z"/><path class="point" transform="translate(841.75,99.69)" style="opacity: 1; stroke-width: 0px; fill: rgb(229, 196, 148); fill-opacity: 1;" d="M3,0A3,3 0 1,1 0,-3A3,3 0 0,1 3,0Z"/></g><g class="text"/></g><g class="trace scatter trace116544" style="stroke-miterlimit: 2; opacity: 1;"><g class="fills"/><g class="errorbars"/><g class="lines"><path class="js-line" style="vector-effect: non-scaling-stroke; fill: none; stroke: rgb(179, 179, 179); stroke-opacity: 1; stroke-width: 3px; opacity: 1;" d="M48.25,172.64L136.42,176.78L224.58,179.27L312.75,172.64L400.92,175.96L489.08,175.13L577.25,173.47L665.42,180.93L753.58,169.32L841.75,170.15"/></g><g class="points"><path class="point" transform="translate(48.25,172.64)" style="opacity: 1; stroke-width: 0px; fill: rgb(179, 179, 179); fill-opacity: 1;" d="M3,0A3,3 0 1,1 0,-3A3,3 0 0,1 3,0Z"/><path class="point" transform="translate(136.42,176.78)" style="opacity: 1; stroke-width: 0px; fill: rgb(179, 179, 179); fill-opacity: 1;" d="M3,0A3,3 0 1,1 0,-3A3,3 0 0,1 3,0Z"/><path class="point" transform="translate(224.58,179.27)" style="opacity: 1; stroke-width: 0px; fill: rgb(179, 179, 179); fill-opacity: 1;" d="M3,0A3,3 0 1,1 0,-3A3,3 0 0,1 3,0Z"/><path class="point" transform="translate(312.75,172.64)" style="opacity: 1; stroke-width: 0px; fill: rgb(179, 179, 179); fill-opacity: 1;" d="M3,0A3,3 0 1,1 0,-3A3,3 0 0,1 3,0Z"/><path class="point" transform="translate(400.92,175.96)" style="opacity: 1; stroke-width: 0px; fill: rgb(179, 179, 179); fill-opacity: 1;" d="M3,0A3,3 0 1,1 0,-3A3,3 0 0,1 3,0Z"/><path class="point" transform="translate(489.08,175.13)" style="opacity: 1; stroke-width: 0px; fill: rgb(179, 179, 179); fill-opacity: 1;" d="M3,0A3,3 0 1,1 0,-3A3,3 0 0,1 3,0Z"/><path class="point" transform="translate(577.25,173.47)" style="opacity: 1; stroke-width: 0px; fill: rgb(179, 179, 179); fill-opacity: 1;" d="M3,0A3,3 0 1,1 0,-3A3,3 0 0,1 3,0Z"/><path class="point" transform="translate(665.42,180.93)" style="opacity: 1; stroke-width: 0px; fill: rgb(179, 179, 179); fill-opacity: 1;" d="M3,0A3,3 0 1,1 0,-3A3,3 0 0,1 3,0Z"/><path class="point" transform="translate(753.58,169.32)" style="opacity: 1; stroke-width: 0px; fill: rgb(179, 179, 179); fill-opacity: 1;" d="M3,0A3,3 0 1,1 0,-3A3,3 0 0,1 3,0Z"/><path class="point" transform="translate(841.75,170.15)" style="opacity: 1; stroke-width: 0px; fill: rgb(179, 179, 179); fill-opacity: 1;" d="M3,0A3,3 0 1,1 0,-3A3,3 0 0,1 3,0Z"/></g><g class="text"/></g><g class="trace scatter tracebf3d4b" style="stroke-miterlimit: 2; opacity: 1;"><g class="fills"/><g class="errorbars"/><g class="lines"><path class="js-line" style="vector-effect: non-scaling-stroke; fill: none; stroke: rgb(166, 216, 84); stroke-opacity: 1; stroke-width: 3px; opacity: 1;" d="M48.25,172.64L136.42,171.22L224.58,176.9L312.75,175.48L400.92,171.22L489.08,176.9L577.25,175.48L665.42,169.8L753.58,175.48L841.75,172.64"/></g><g class="points"><path class="point" transform="translate(48.25,172.64)" style="opacity: 1; stroke-width: 0px; fill: rgb(166, 216, 84); fill-opacity: 1;" d="M3,0A3,3 0 1,1 0,-3A3,3 0 0,1 3,0Z"/><path class="point" transform="translate(136.42,171.22)" style="opacity: 1; stroke-width: 0px; fill: rgb(166, 216, 84); fill-opacity: 1;" d="M3,0A3,3 0 1,1 0,-3A3,3 0 0,1 3,0Z"/><path class="point" transform="translate(224.58,176.9)" style="opacity: 1; stroke-width: 0px; fill: rgb(166, 216, 84); fill-opacity: 1;" d="M3,0A3,3 0 1,1 0,-3A3,3 0 0,1 3,0Z"/><path class="point" transform="translate(312.75,175.48)" style="opacity: 1; stroke-width: 0px; fill: rgb(166, 216, 84); fill-opacity: 1;" d="M3,0A3,3 0 1,1 0,-3A3,3 0 0,1 3,0Z"/><path class="point" transform="translate(400.92,171.22)" style="opacity: 1; stroke-width: 0px; fill: rgb(166, 216, 84); fill-opacity: 1;" d="M3,0A3,3 0 1,1 0,-3A3,3 0 0,1 3,0Z"/><path class="point" transform="translate(489.08,176.9)" style="opacity: 1; stroke-width: 0px; fill: rgb(166, 216, 84); fill-opacity: 1;" d="M3,0A3,3 0 1,1 0,-3A3,3 0 0,1 3,0Z"/><path class="point" transform="translate(577.25,175.48)" style="opacity: 1; stroke-width: 0px; fill: rgb(166, 216, 84); fill-opacity: 1;" d="M3,0A3,3 0 1,1 0,-3A3,3 0 0,1 3,0Z"/><path class="point" transform="translate(665.42,169.8)" style="opacity: 1; stroke-width: 0px; fill: rgb(166, 216, 84); fill-opacity: 1;" d="M3,0A3,3 0 1,1 0,-3A3,3 0 0,1 3,0Z"/><path class="point" transform="translate(753.58,175.48)" style="opacity: 1; stroke-width: 0px; fill: rgb(166, 216, 84); fill-opacity: 1;" d="M3,0A3,3 0 1,1 0,-3A3,3 0 0,1 3,0Z"/><path class="point" transform="translate(841.75,172.64)" style="opacity: 1; stroke-width: 0px; fill: rgb(166, 216, 84); fill-opacity: 1;" d="M3,0A3,3 0 1,1 0,-3A3,3 0 0,1 3,0Z"/></g><g class="text"/></g></g></g><g class="overplot"/><path class="xlines-above crisp" style="fill: none;" d="M0,0"/><path class="ylines-above crisp" style="fill: none;" d="M0,0"/><g class="overlines-above"/><g class="xaxislayer-above"><g class="xtick"><text text-anchor="middle" x="0" y="443" style="font-family: TOBESTRIPPEDOpen SansTOBESTRIPPED, verdana, arial, sans-serif; font-size: 12px; fill: rgb(68, 68, 68); fill-opacity: 1; white-space: pre;" transform="translate(196.42,0)">2012</text></g><g class="xtick"><text text-anchor="middle" x="0" y="443" style="font-family: TOBESTRIPPEDOpen SansTOBESTRIPPED, verdana, arial, sans-serif; font-size: 12px; fill: rgb(68, 68, 68); fill-opacity: 1; white-space: pre;" transform="translate(372.75,0)">2014</text></g><g class="xtick"><text text-anchor="middle" x="0" y="443" style="font-family: TOBESTRIPPEDOpen SansTOBESTRIPPED, verdana, arial, sans-serif; font-size: 12px; fill: rgb(68, 68, 68); fill-opacity: 1; white-space: pre;" transform="translate(549.0799999999999,0)">2016</text></g><g class="xtick"><text text-anchor="middle" x="0" y="443" style="font-family: TOBESTRIPPEDOpen SansTOBESTRIPPED, verdana, arial, sans-serif; font-size: 12px; fill: rgb(68, 68, 68); fill-opacity: 1; white-space: pre;" transform="translate(725.42,0)">2018</text></g><g class="xtick"><text text-anchor="middle" x="0" y="443" style="font-family: TOBESTRIPPEDOpen SansTOBESTRIPPED, verdana, arial, sans-serif; font-size: 12px; fill: rgb(68, 68, 68); fill-opacity: 1; white-space: pre;" transform="translate(901.75,0)">2020</text></g></g><g class="yaxislayer-above"><g class="y2tick"><text text-anchor="end" x="59" y="4.199999999999999" style="font-family: TOBESTRIPPEDOpen SansTOBESTRIPPED, verdana, arial, sans-serif; font-size: 12px; fill: rgb(68, 68, 68); fill-opacity: 1; white-space: pre;" transform="translate(0,418.19)">0</text></g><g class="y2tick"><text text-anchor="end" x="59" y="4.199999999999999" style="font-family: TOBESTRIPPEDOpen SansTOBESTRIPPED, verdana, arial, sans-serif; font-size: 12px; fill: rgb(68, 68, 68); fill-opacity: 1; white-space: pre;" transform="translate(0,368.45)">5</text></g><g class="y2tick"><text text-anchor="end" x="59" y="4.199999999999999" style="font-family: TOBESTRIPPEDOpen SansTOBESTRIPPED, verdana, arial, sans-serif; font-size: 12px; fill: rgb(68, 68, 68); fill-opacity: 1; white-space: pre;" transform="translate(0,318.71)">10</text></g><g class="y2tick"><text text-anchor="end" x="59" y="4.199999999999999" style="font-family: TOBESTRIPPEDOpen SansTOBESTRIPPED, verdana, arial, sans-serif; font-size: 12px; fill: rgb(68, 68, 68); fill-opacity: 1; white-space: pre;" transform="translate(0,268.96999999999997)">15</text></g></g><g class="overaxes-above"/></g></g><g class="polarlayer"/><g class="ternarylayer"/><g class="geolayer"/><g class="funnelarealayer"/><g class="pielayer"/><g class="treemaplayer"/><g class="sunburstlayer"/><g class="glimages"/><defs id="topdefs-03d66b"><g class="clips"/><clipPath id="legend03d66b"><rect width="239" height="105" x="0" y="0"/></clipPath></defs><g class="layer-above"><g class="imagelayer"/><g class="shapelayer"/></g><g class="infolayer"><g class="legend" pointer-events="all" transform="translate(104.5, 25)"><rect class="bg" shape-rendering="crispEdges" style="stroke: rgb(68, 68, 68); stroke-opacity: 1; fill: rgb(0, 0, 0); fill-opacity: 0; stroke-width: 0px;" width="239" height="105" x="0" y="0"/><g class="scrollbox" transform="translate(0, 0)" clip-path="url('#legend03d66b')"><g class="groups"><g class="traces" style="opacity: 1;" transform="translate(0, 14.5)"><text class="legendtext" text-anchor="start" style="font-family: TOBESTRIPPEDOpen SansTOBESTRIPPED, verdana, arial, sans-serif; font-size: 12px; fill: rgb(68, 68, 68); fill-opacity: 1; white-space: pre;" x="40" y="4.680000000000001">Energy &amp; Fuels</text><g class="layers" style="opacity: 1;"><g class="legendfill"/><g class="legendlines"/><g class="legendsymbols"><g class="legendpoints"><path class="legendundefined" d="M6,6H-6V-6H6Z" transform="translate(20,0)" style="stroke-width: 0px; fill: rgb(102, 194, 165); fill-opacity: 1;"/></g></g></g><rect class="legendtoggle" style="fill: rgb(0, 0, 0); fill-opacity: 0;" x="0" y="-9.5" width="233.56666564941406" height="19"/></g><g class="traces" style="opacity: 1;" transform="translate(0, 33.5)"><text class="legendtext" text-anchor="start" style="font-family: TOBESTRIPPEDOpen SansTOBESTRIPPED, verdana, arial, sans-serif; font-size: 12px; fill: rgb(68, 68, 68); fill-opacity: 1; white-space: pre;" x="40" y="4.680000000000001">Engineering, Electrical &amp; Electronic</text><g class="layers" style="opacity: 1;"><g class="legendfill"/><g class="legendlines"/><g class="legendsymbols"><g class="legendpoints"><path class="legendundefined" d="M6,6H-6V-6H6Z" transform="translate(20,0)" style="stroke-width: 0px; fill: rgb(231, 138, 195); fill-opacity: 1;"/></g></g></g><rect class="legendtoggle" style="fill: rgb(0, 0, 0); fill-opacity: 0;" x="0" y="-9.5" width="233.56666564941406" height="19"/></g><g class="traces" style="opacity: 1;" transform="translate(0, 52.5)"><text class="legendtext" text-anchor="start" style="font-family: TOBESTRIPPEDOpen SansTOBESTRIPPED, verdana, arial, sans-serif; font-size: 12px; fill: rgb(68, 68, 68); fill-opacity: 1; white-space: pre;" x="40" y="4.680000000000001">Environmental Sciences</text><g class="layers" style="opacity: 1;"><g class="legendfill"/><g class="legendlines"/><g class="legendsymbols"><g class="legendpoints"><path class="legendundefined" d="M6,6H-6V-6H6Z" transform="translate(20,0)" style="stroke-width: 0px; fill: rgb(229, 196, 148); fill-opacity: 1;"/></g></g></g><rect class="legendtoggle" style="fill: rgb(0, 0, 0); fill-opacity: 0;" x="0" y="-9.5" width="233.56666564941406" height="19"/></g><g class="traces" style="opacity: 1;" transform="translate(0, 71.5)"><text class="legendtext" text-anchor="start" style="font-family: TOBESTRIPPEDOpen SansTOBESTRIPPED, verdana, arial, sans-serif; font-size: 12px; fill: rgb(68, 68, 68); fill-opacity: 1; white-space: pre;" x="40" y="4.680000000000001">Ecology</text><g class="layers" style="opacity: 1;"><g class="legendfill"/><g class="legendlines"/><g class="legendsymbols"><g class="legendpoints"><path class="legendundefined" d="M6,6H-6V-6H6Z" transform="translate(20,0)" style="stroke-width: 0px; fill: rgb(179, 179, 179); fill-opacity: 1;"/></g></g></g><rect class="legendtoggle" style="fill: rgb(0, 0, 0); fill-opacity: 0;" x="0" y="-9.5" width="233.56666564941406" height="19"/></g><g class="traces" style="opacity: 1;" transform="translate(0, 90.5)"><text class="legendtext" text-anchor="start" style="font-family: TOBESTRIPPEDOpen SansTOBESTRIPPED, verdana, arial, sans-serif; font-size: 12px; fill: rgb(68, 68, 68); fill-opacity: 1; white-space: pre;" x="40" y="4.680000000000001">Plant Sciences</text><g class="layers" style="opacity: 1;"><g class="legendfill"/><g class="legendlines"/><g class="legendsymbols"><g class="legendpoints"><path class="legendundefined" d="M6,6H-6V-6H6Z" transform="translate(20,0)" style="stroke-width: 0px; fill: rgb(166, 216, 84); fill-opacity: 1;"/></g></g></g><rect class="legendtoggle" style="fill: rgb(0, 0, 0); fill-opacity: 0;" x="0" y="-9.5" width="233.56666564941406" height="19"/></g></g></g><rect class="scrollbar" rx="20" ry="3" width="0" height="0" style="fill: rgb(128, 139, 164); fill-opacity: 1;" x="0" y="0"/></g><g class="g-gtitle"/><g class="g-xtitle" transform="translate(0,-18)"><text class="xtitle" style="font-family: TOBESTRIPPEDOpen SansTOBESTRIPPED, verdana, arial, sans-serif; font-size: 14px; fill: rgb(68, 68, 68); opacity: 1; font-weight: normal; white-space: pre;" x="505" y="482" text-anchor="middle">Years</text></g><g class="g-ytitle"/><g class="g-y2title"/></g></svg>