<svg class="main-svg" xmlns="http://www.w3.org/2000/svg" xmlns:xlink="http://www.w3.org/1999/xlink" width="960" height="470" style="" viewBox="0 0 960 470"><rect x="0" y="0" width="960" height="470" style="fill: rgb(255, 255, 255); fill-opacity: 1;"/><defs id="defs-c41d20"><g class="clips"><clipPath id="clipc41d20xyplot" class="plotclip"><rect width="890" height="194.4"/></clipPath><clipPath id="clipc41d20xy2plot" class="plotclip"><rect width="890" height="194.4"/></clipPath><clipPath class="axesclip" id="clipc41d20x"><rect x="60" y="0" width="890" height="470"/></clipPath><clipPath class="axesclip" id="clipc41d20y"><rect x="0" y="25" width="960" height="194.4"/></clipPath><clipPath class="axesclip" id="clipc41d20xy"><rect x="60" y="25" width="890" height="194.4"/></clipPath><clipPath class="axesclip" id="clipc41d20y2"><rect x="0" y="235.6" width="960" height="194.4"/></clipPath><clipPath class="axesclip" id="clipc41d20xy2"><rect x="60" y="235.6" width="890" height="194.4"/></clipPath></g><g class="gradients"/></defs><g class="bglayer"/><g class="layer-below"><g class="imagelayer"/><g class="shapelayer"/></g><g class="cartesianlayer"><g class="subplot xy"><g class="layer-subplot"><g class="shapelayer"/><g class="imagelayer"/></g><g class="gridlayer"><g class="x"/><g class="y"><path class="ygrid crisp" transform="translate(0,175.95)" d="M60,0h890" style="stroke: rgb(238, 238, 238); stroke-opacity: 1; stroke-width: 1px;"/><path class="ygrid crisp" transform="translate(0,132.49)" d="M60,0h890" style="stroke: rgb(238, 238, 238); stroke-opacity: 1; stroke-width: 1px;"/><path class="ygrid crisp" transform="translate(0,89.04)" d="M60,0h890" style="stroke: rgb(238, 238, 238); stroke-opacity: 1; stroke-width: 1px;"/><path class="ygrid crisp" transform="translate(0,45.58)" d="M60,0h890" style="stroke: rgb(238, 238, 238); stroke-opacity: 1; stroke-width: 1px;"/></g></g><g class="zerolinelayer"><path class="yzl zl crisp" transform="translate(0,219.4)" d="M60,0h890" style="stroke: rgb(68, 68, 68); stroke-opacity: 1; stroke-width: 1px;"/></g><path class="xlines-below"/><path class="ylines-below"/><g class="overlines-below"/><g class="xaxislayer-below"/><g class="yaxislayer-below"/><g class="overaxes-below"/><g class="plot" transform="translate(60, 25)" clip-path="url('#clipc41d20xyplot')"><g class="barlayer mlayer"><g class="trace bars" style="opacity: 1;"><g class="points"><g class="point"><path style="vector-effect: non-scaling-stroke; opacity: 1; stroke-width: 0px; fill: rgb(102, 194, 165); fill-opacity: 1;" d="M12.98,194.4V194.4H27.09V194.4Z"/><text class="bartext bartext-outside" text-anchor="middle" data-notex="1" style="font-family: TOBESTRIPPEDOpen SansTOBESTRIPPED, verdana, arial, sans-serif; font-size: 12px; fill: rgb(0, 0, 0); fill-opacity: 1; white-space: pre;" x="0" y="0" transform="translate(20.035198364257813,186.4)">0</text></g><g class="point"><path style="vector-effect: non-scaling-stroke; opacity: 1; stroke-width: 0px; fill: rgb(102, 194, 165); fill-opacity: 1;" d="M101.15,194.4V192.23H115.26V194.4Z"/><text class="bartext bartext-outside" text-anchor="middle" data-notex="1" style="font-family: TOBESTRIPPEDOpen SansTOBESTRIPPED, verdana, arial, sans-serif; font-size: 12px; fill: rgb(0, 0, 0); fill-opacity: 1; white-space: pre;" x="0" y="0" transform="translate(108.20519836425783,184.23)">1</text></g><g class="point"><path style="vector-effect: non-scaling-stroke; opacity: 1; stroke-width: 0px; fill: rgb(102, 194, 165); fill-opacity: 1;" d="M189.32,194.4V177.02H203.42V194.4Z"/><text class="bartext bartext-outside" text-anchor="middle" data-notex="1" style="font-family: TOBESTRIPPEDOpen SansTOBESTRIPPED, verdana, arial, sans-serif; font-size: 12px; fill: rgb(0, 0, 0); fill-opacity: 1; white-space: pre;" x="0" y="0" transform="translate(196.37019836425782,169.02)">8</text></g><g class="point"><path style="vector-effect: non-scaling-stroke; opacity: 1; stroke-width: 0px; fill: rgb(102, 194, 165); fill-opacity: 1;" d="M277.48,194.4V144.43H291.59V194.4Z"/><text class="bartext bartext-outside" text-anchor="middle" data-notex="1" style="font-family: TOBESTRIPPEDOpen SansTOBESTRIPPED, verdana, arial, sans-serif; font-size: 12px; fill: rgb(0, 0, 0); fill-opacity: 1; white-space: pre;" x="0" y="0" transform="translate(284.53540966471945,136.95536882406)scale(0.8949262351879997)">23</text></g><g class="point"><path style="vector-effect: non-scaling-stroke; opacity: 1; stroke-width: 0px; fill: rgb(102, 194, 165); fill-opacity: 1;" d="M365.65,194.4V120.53H379.76V194.4Z"/><text class="bartext bartext-outside" text-anchor="middle" data-notex="1" style="font-family: TOBESTRIPPEDOpen SansTOBESTRIPPED, verdana, arial, sans-serif; font-size: 12px; fill: rgb(0, 0, 0); fill-opacity: 1; white-space: pre;" x="0" y="0" transform="translate(372.70540966471947,113.05536882405998)scale(0.8949262351880034)">34</text></g><g class="point"><path style="vector-effect: non-scaling-stroke; opacity: 1; stroke-width: 0px; fill: rgb(102, 194, 165); fill-opacity: 1;" d="M453.82,194.4V94.46H467.92V194.4Z"/><text class="bartext bartext-outside" text-anchor="middle" data-notex="1" style="font-family: TOBESTRIPPEDOpen SansTOBESTRIPPED, verdana, arial, sans-serif; font-size: 12px; fill: rgb(0, 0, 0); fill-opacity: 1; white-space: pre;" x="0" y="0" transform="translate(460.87040937438303,86.9885400722357)scale(0.89429198555286)">46</text></g><g class="point"><path style="vector-effect: non-scaling-stroke; opacity: 1; stroke-width: 0px; fill: rgb(102, 194, 165); fill-opacity: 1;" d="M541.98,194.4V72.73H556.09V194.4Z"/><text class="bartext bartext-outside" text-anchor="middle" data-notex="1" style="font-family: TOBESTRIPPEDOpen SansTOBESTRIPPED, verdana, arial, sans-serif; font-size: 12px; fill: rgb(0, 0, 0); fill-opacity: 1; white-space: pre;" x="0" y="0" transform="translate(549.0354096647195,65.25536882405999)scale(0.8949262351880034)">56</text></g><g class="point"><path style="vector-effect: non-scaling-stroke; opacity: 1; stroke-width: 0px; fill: rgb(102, 194, 165); fill-opacity: 1;" d="M630.15,194.4V9.72H644.26V194.4Z"/><text class="bartext bartext-outside" text-anchor="middle" data-notex="1" style="font-family: TOBESTRIPPEDOpen SansTOBESTRIPPED, verdana, arial, sans-serif; font-size: 12px; fill: rgb(0, 0, 0); fill-opacity: 1; white-space: pre;" x="0" y="0" transform="translate(637.2054096647194,2.245368824059984)scale(0.8949262351880034)">85</text></g><g class="point"><path style="vector-effect: non-scaling-stroke; opacity: 1; stroke-width: 0px; fill: rgb(102, 194, 165); fill-opacity: 1;" d="M718.32,194.4V70.56H732.42V194.4Z"/><text class="bartext bartext-outside" text-anchor="middle" data-notex="1" style="font-family: TOBESTRIPPEDOpen SansTOBESTRIPPED, verdana, arial, sans-serif; font-size: 12px; fill: rgb(0, 0, 0); fill-opacity: 1; white-space: pre;" x="0" y="0" transform="translate(725.370409374383,63.08854007223574)scale(0.8942919855528528)">57</text></g><g class="point"><path style="vector-effect: non-scaling-stroke; opacity: 1; stroke-width: 0px; fill: rgb(102, 194, 165); fill-opacity: 1;" d="M806.48,194.4V85.76H820.59V194.4Z"/><text class="bartext bartext-outside" text-anchor="middle" data-notex="1" style="font-family: TOBESTRIPPEDOpen SansTOBESTRIPPED, verdana, arial, sans-serif; font-size: 12px; fill: rgb(0, 0, 0); fill-opacity: 1; white-space: pre;" x="0" y="0" transform="translate(813.5354096647195,78.28536882405999)scale(0.8949262351880034)">50</text></g></g></g><g class="trace bars" style="opacity: 1;"><g class="points"><g class="point"><path style="vector-effect: non-scaling-stroke; opacity: 1; stroke-width: 0px; fill: rgb(231, 138, 195); fill-opacity: 1;" d="M27.09,194.4V194.4H41.2V194.4Z"/><text class="bartext bartext-outside" text-anchor="middle" data-notex="1" style="font-family: TOBESTRIPPEDOpen SansTOBESTRIPPED, verdana, arial, sans-serif; font-size: 12px; fill: rgb(0, 0, 0); fill-opacity: 1; white-space: pre;" x="0" y="0" transform="translate(34.145198364257816,186.4)">0</text></g><g class="point"><path style="vector-effect: non-scaling-stroke; opacity: 1; stroke-width: 0px; fill: rgb(231, 138, 195); fill-opacity: 1;" d="M115.26,194.4V163.98H129.36V194.4Z"/><text class="bartext bartext-outside" text-anchor="middle" data-notex="1" style="font-family: TOBESTRIPPEDOpen SansTOBESTRIPPED, verdana, arial, sans-serif; font-size: 12px; fill: rgb(0, 0, 0); fill-opacity: 1; white-space: pre;" x="0" y="0" transform="translate(122.31040937438304,156.5085400722357)scale(0.8942919855528592)">14</text></g><g class="point"><path style="vector-effect: non-scaling-stroke; opacity: 1; stroke-width: 0px; fill: rgb(231, 138, 195); fill-opacity: 1;" d="M203.42,194.4V183.54H217.53V194.4Z"/><text class="bartext bartext-outside" text-anchor="middle" data-notex="1" style="font-family: TOBESTRIPPEDOpen SansTOBESTRIPPED, verdana, arial, sans-serif; font-size: 12px; fill: rgb(0, 0, 0); fill-opacity: 1; white-space: pre;" x="0" y="0" transform="translate(210.4751983642578,175.54)">5</text></g><g class="point"><path style="vector-effect: non-scaling-stroke; opacity: 1; stroke-width: 0px; fill: rgb(231, 138, 195); fill-opacity: 1;" d="M291.59,194.4V140.08H305.7V194.4Z"/><text class="bartext bartext-outside" text-anchor="middle" data-notex="1" style="font-family: TOBESTRIPPEDOpen SansTOBESTRIPPED, verdana, arial, sans-serif; font-size: 12px; fill: rgb(0, 0, 0); fill-opacity: 1; white-space: pre;" x="0" y="0" transform="translate(298.64540966471947,132.60536882406)scale(0.8949262351880034)">25</text></g><g class="point"><path style="vector-effect: non-scaling-stroke; opacity: 1; stroke-width: 0px; fill: rgb(231, 138, 195); fill-opacity: 1;" d="M379.76,194.4V111.84H393.86V194.4Z"/><text class="bartext bartext-outside" text-anchor="middle" data-notex="1" style="font-family: TOBESTRIPPEDOpen SansTOBESTRIPPED, verdana, arial, sans-serif; font-size: 12px; fill: rgb(0, 0, 0); fill-opacity: 1; white-space: pre;" x="0" y="0" transform="translate(386.810409374383,104.3685400722357)scale(0.89429198555286)">38</text></g><g class="point"><path style="vector-effect: non-scaling-stroke; opacity: 1; stroke-width: 0px; fill: rgb(231, 138, 195); fill-opacity: 1;" d="M467.92,194.4V85.76H482.03V194.4Z"/><text class="bartext bartext-outside" text-anchor="middle" data-notex="1" style="font-family: TOBESTRIPPEDOpen SansTOBESTRIPPED, verdana, arial, sans-serif; font-size: 12px; fill: rgb(0, 0, 0); fill-opacity: 1; white-space: pre;" x="0" y="0" transform="translate(474.9754096647195,78.28536882406)scale(0.8949262351879997)">50</text></g><g class="point"><path style="vector-effect: non-scaling-stroke; opacity: 1; stroke-width: 0px; fill: rgb(231, 138, 195); fill-opacity: 1;" d="M556.09,194.4V72.73H570.2V194.4Z"/><text class="bartext bartext-outside" text-anchor="middle" data-notex="1" style="font-family: TOBESTRIPPEDOpen SansTOBESTRIPPED, verdana, arial, sans-serif; font-size: 12px; fill: rgb(0, 0, 0); fill-opacity: 1; white-space: pre;" x="0" y="0" transform="translate(563.1454096647194,65.25536882405999)scale(0.8949262351880034)">56</text></g><g class="point"><path style="vector-effect: non-scaling-stroke; opacity: 1; stroke-width: 0px; fill: rgb(231, 138, 195); fill-opacity: 1;" d="M644.26,194.4V22.76H658.36V194.4Z"/><text class="bartext bartext-outside" text-anchor="middle" data-notex="1" style="font-family: TOBESTRIPPEDOpen SansTOBESTRIPPED, verdana, arial, sans-serif; font-size: 12px; fill: rgb(0, 0, 0); fill-opacity: 1; white-space: pre;" x="0" y="0" transform="translate(651.310409374383,15.288540072235701)scale(0.89429198555286)">79</text></g><g class="point"><path style="vector-effect: non-scaling-stroke; opacity: 1; stroke-width: 0px; fill: rgb(231, 138, 195); fill-opacity: 1;" d="M732.42,194.4V109.66H746.53V194.4Z"/><text class="bartext bartext-outside" text-anchor="middle" data-notex="1" style="font-family: TOBESTRIPPEDOpen SansTOBESTRIPPED, verdana, arial, sans-serif; font-size: 12px; fill: rgb(0, 0, 0); fill-opacity: 1; white-space: pre;" x="0" y="0" transform="translate(739.4754096647193,102.18536882405998)scale(0.8949262351880034)">39</text></g><g class="point"><path style="vector-effect: non-scaling-stroke; opacity: 1; stroke-width: 0px; fill: rgb(231, 138, 195); fill-opacity: 1;" d="M820.59,194.4V172.67H834.7V194.4Z"/><text class="bartext bartext-outside" text-anchor="middle" data-notex="1" style="font-family: TOBESTRIPPEDOpen SansTOBESTRIPPED, verdana, arial, sans-serif; font-size: 12px; fill: rgb(0, 0, 0); fill-opacity: 1; white-space: pre;" x="0" y="0" transform="translate(827.6454096647194,165.19536882405998)scale(0.8949262351880034)">10</text></g></g></g><g class="trace bars" style="opacity: 1;"><g class="points"><g class="point"><path style="vector-effect: non-scaling-stroke; opacity: 1; stroke-width: 0px; fill: rgb(166, 216, 84); fill-opacity: 1;" d="M41.2,194.4V194.4H55.3V194.4Z"/><text class="bartext bartext-outside" text-anchor="middle" data-notex="1" style="font-family: TOBESTRIPPEDOpen SansTOBESTRIPPED, verdana, arial, sans-serif; font-size: 12px; fill: rgb(0, 0, 0); fill-opacity: 1; white-space: pre;" x="0" y="0" transform="translate(48.25019836425781,186.4)">0</text></g><g class="point"><path style="vector-effect: non-scaling-stroke; opacity: 1; stroke-width: 0px; fill: rgb(166, 216, 84); fill-opacity: 1;" d="M129.36,194.4V194.4H143.47V194.4Z"/><text class="bartext bartext-outside" text-anchor="middle" data-notex="1" style="font-family: TOBESTRIPPEDOpen SansTOBESTRIPPED, verdana, arial, sans-serif; font-size: 12px; fill: rgb(0, 0, 0); fill-opacity: 1; white-space: pre;" x="0" y="0" transform="translate(136.41519836425783,186.4)">0</text></g><g class="point"><path style="vector-effect: non-scaling-stroke; opacity: 1; stroke-width: 0px; fill: rgb(166, 216, 84); fill-opacity: 1;" d="M217.53,194.4V194.4H231.64V194.4Z"/><text class="bartext bartext-outside" text-anchor="middle" data-notex="1" style="font-family: TOBESTRIPPEDOpen SansTOBESTRIPPED, verdana, arial, sans-serif; font-size: 12px; fill: rgb(0, 0, 0); fill-opacity: 1; white-space: pre;" x="0" y="0" transform="translate(224.5851983642578,186.4)">0</text></g><g class="point"><path style="vector-effect: non-scaling-stroke; opacity: 1; stroke-width: 0px; fill: rgb(166, 216, 84); fill-opacity: 1;" d="M305.7,194.4V155.29H319.8V194.4Z"/><text class="bartext bartext-outside" text-anchor="middle" data-notex="1" style="font-family: TOBESTRIPPEDOpen SansTOBESTRIPPED, verdana, arial, sans-serif; font-size: 12px; fill: rgb(0, 0, 0); fill-opacity: 1; white-space: pre;" x="0" y="0" transform="translate(312.750409374383,147.8185400722357)scale(0.89429198555286)">18</text></g><g class="point"><path style="vector-effect: non-scaling-stroke; opacity: 1; stroke-width: 0px; fill: rgb(166, 216, 84); fill-opacity: 1;" d="M393.86,194.4V192.23H407.97V194.4Z"/><text class="bartext bartext-outside" text-anchor="middle" data-notex="1" style="font-family: TOBESTRIPPEDOpen SansTOBESTRIPPED, verdana, arial, sans-serif; font-size: 12px; fill: rgb(0, 0, 0); fill-opacity: 1; white-space: pre;" x="0" y="0" transform="translate(400.91519836425783,184.23)">1</text></g><g class="point"><path style="vector-effect: non-scaling-stroke; opacity: 1; stroke-width: 0px; fill: rgb(166, 216, 84); fill-opacity: 1;" d="M482.03,194.4V129.22H496.14V194.4Z"/><text class="bartext bartext-outside" text-anchor="middle" data-notex="1" style="font-family: TOBESTRIPPEDOpen SansTOBESTRIPPED, verdana, arial, sans-serif; font-size: 12px; fill: rgb(0, 0, 0); fill-opacity: 1; white-space: pre;" x="0" y="0" transform="translate(489.08540966471946,121.74536882405998)scale(0.8949262351880034)">30</text></g><g class="point"><path style="vector-effect: non-scaling-stroke; opacity: 1; stroke-width: 0px; fill: rgb(166, 216, 84); fill-opacity: 1;" d="M570.2,194.4V120.53H584.3V194.4Z"/><text class="bartext bartext-outside" text-anchor="middle" data-notex="1" style="font-family: TOBESTRIPPEDOpen SansTOBESTRIPPED, verdana, arial, sans-serif; font-size: 12px; fill: rgb(0, 0, 0); fill-opacity: 1; white-space: pre;" x="0" y="0" transform="translate(577.250409374383,113.05854007223574)scale(0.8942919855528528)">34</text></g><g class="point"><path style="vector-effect: non-scaling-stroke; opacity: 1; stroke-width: 0px; fill: rgb(166, 216, 84); fill-opacity: 1;" d="M658.36,194.4V48.83H672.47V194.4Z"/><text class="bartext bartext-outside" text-anchor="middle" data-notex="1" style="font-family: TOBESTRIPPEDOpen SansTOBESTRIPPED, verdana, arial, sans-serif; font-size: 12px; fill: rgb(0, 0, 0); fill-opacity: 1; white-space: pre;" x="0" y="0" transform="translate(665.4154096647194,41.35536882405998)scale(0.8949262351880034)">67</text></g><g class="point"><path style="vector-effect: non-scaling-stroke; opacity: 1; stroke-width: 0px; fill: rgb(166, 216, 84); fill-opacity: 1;" d="M746.53,194.4V124.87H760.64V194.4Z"/><text class="bartext bartext-outside" text-anchor="middle" data-notex="1" style="font-family: TOBESTRIPPEDOpen SansTOBESTRIPPED, verdana, arial, sans-serif; font-size: 12px; fill: rgb(0, 0, 0); fill-opacity: 1; white-space: pre;" x="0" y="0" transform="translate(753.5854096647195,117.39536882405999)scale(0.8949262351880034)">32</text></g><g class="point"><path style="vector-effect: non-scaling-stroke; opacity: 1; stroke-width: 0px; fill: rgb(166, 216, 84); fill-opacity: 1;" d="M834.7,194.4V142.26H848.8V194.4Z"/><text class="bartext bartext-outside" text-anchor="middle" data-notex="1" style="font-family: TOBESTRIPPEDOpen SansTOBESTRIPPED, verdana, arial, sans-serif; font-size: 12px; fill: rgb(0, 0, 0); fill-opacity: 1; white-space: pre;" x="0" y="0" transform="translate(841.750409374383,134.78854007223572)scale(0.8942919855528528)">24</text></g></g></g><g class="trace bars" style="opacity: 1;"><g class="points"><g class="point"><path style="vector-effect: non-scaling-stroke; opacity: 1; stroke-width: 0px; fill: rgb(229, 196, 148); fill-opacity: 1;" d="M55.3,194.4V192.23H69.41V194.4Z"/><text class="bartext bartext-outside" text-anchor="middle" data-notex="1" style="font-family: TOBESTRIPPEDOpen SansTOBESTRIPPED, verdana, arial, sans-serif; font-size: 12px; fill: rgb(0, 0, 0); fill-opacity: 1; white-space: pre;" x="0" y="0" transform="translate(62.35519836425781,184.23)">1</text></g><g class="point"><path style="vector-effect: non-scaling-stroke; opacity: 1; stroke-width: 0px; fill: rgb(229, 196, 148); fill-opacity: 1;" d="M143.47,194.4V192.23H157.58V194.4Z"/><text class="bartext bartext-outside" text-anchor="middle" data-notex="1" style="font-family: TOBESTRIPPEDOpen SansTOBESTRIPPED, verdana, arial, sans-serif; font-size: 12px; fill: rgb(0, 0, 0); fill-opacity: 1; white-space: pre;" x="0" y="0" transform="translate(150.52519836425782,184.23)">1</text></g><g class="point"><path style="vector-effect: non-scaling-stroke; opacity: 1; stroke-width: 0px; fill: rgb(229, 196, 148); fill-opacity: 1;" d="M231.64,194.4V190.05H245.74V194.4Z"/><text class="bartext bartext-outside" text-anchor="middle" data-notex="1" style="font-family: TOBESTRIPPEDOpen SansTOBESTRIPPED, verdana, arial, sans-serif; font-size: 12px; fill: rgb(0, 0, 0); fill-opacity: 1; white-space: pre;" x="0" y="0" transform="translate(238.6901983642578,182.05)">2</text></g><g class="point"><path style="vector-effect: non-scaling-stroke; opacity: 1; stroke-width: 0px; fill: rgb(229, 196, 148); fill-opacity: 1;" d="M319.8,194.4V190.05H333.91V194.4Z"/><text class="bartext bartext-outside" text-anchor="middle" data-notex="1" style="font-family: TOBESTRIPPEDOpen SansTOBESTRIPPED, verdana, arial, sans-serif; font-size: 12px; fill: rgb(0, 0, 0); fill-opacity: 1; white-space: pre;" x="0" y="0" transform="translate(326.85519836425783,182.05)">2</text></g><g class="point"><path style="vector-effect: non-scaling-stroke; opacity: 1; stroke-width: 0px; fill: rgb(229, 196, 148); fill-opacity: 1;" d="M407.97,194.4V185.71H422.08V194.4Z"/><text class="bartext bartext-outside" text-anchor="middle" data-notex="1" style="font-family: TOBESTRIPPEDOpen SansTOBESTRIPPED, verdana, arial, sans-serif; font-size: 12px; fill: rgb(0, 0, 0); fill-opacity: 1; white-space: pre;" x="0" y="0" transform="translate(415.0251983642578,177.71)">4</text></g><g class="point"><path style="vector-effect: non-scaling-stroke; opacity: 1; stroke-width: 0px; fill: rgb(229, 196, 148); fill-opacity: 1;" d="M496.14,194.4V179.19H510.24V194.4Z"/><text class="bartext bartext-outside" text-anchor="middle" data-notex="1" style="font-family: TOBESTRIPPEDOpen SansTOBESTRIPPED, verdana, arial, sans-serif; font-size: 12px; fill: rgb(0, 0, 0); fill-opacity: 1; white-space: pre;" x="0" y="0" transform="translate(503.1901983642578,171.19)">7</text></g><g class="point"><path style="vector-effect: non-scaling-stroke; opacity: 1; stroke-width: 0px; fill: rgb(229, 196, 148); fill-opacity: 1;" d="M584.3,194.4V174.85H598.41V194.4Z"/><text class="bartext bartext-outside" text-anchor="middle" data-notex="1" style="font-family: TOBESTRIPPEDOpen SansTOBESTRIPPED, verdana, arial, sans-serif; font-size: 12px; fill: rgb(0, 0, 0); fill-opacity: 1; white-space: pre;" x="0" y="0" transform="translate(591.3551983642578,166.85)">9</text></g><g class="point"><path style="vector-effect: non-scaling-stroke; opacity: 1; stroke-width: 0px; fill: rgb(229, 196, 148); fill-opacity: 1;" d="M672.47,194.4V174.85H686.58V194.4Z"/><text class="bartext bartext-outside" text-anchor="middle" data-notex="1" style="font-family: TOBESTRIPPEDOpen SansTOBESTRIPPED, verdana, arial, sans-serif; font-size: 12px; fill: rgb(0, 0, 0); fill-opacity: 1; white-space: pre;" x="0" y="0" transform="translate(679.5251983642579,166.85)">9</text></g><g class="point"><path style="vector-effect: non-scaling-stroke; opacity: 1; stroke-width: 0px; fill: rgb(229, 196, 148); fill-opacity: 1;" d="M760.64,194.4V159.64H774.74V194.4Z"/><text class="bartext bartext-outside" text-anchor="middle" data-notex="1" style="font-family: TOBESTRIPPEDOpen SansTOBESTRIPPED, verdana, arial, sans-serif; font-size: 12px; fill: rgb(0, 0, 0); fill-opacity: 1; white-space: pre;" x="0" y="0" transform="translate(767.6904093743831,152.1685400722357)scale(0.89429198555286)">16</text></g><g class="point"><path style="vector-effect: non-scaling-stroke; opacity: 1; stroke-width: 0px; fill: rgb(229, 196, 148); fill-opacity: 1;" d="M848.8,194.4V187.88H862.91V194.4Z"/><text class="bartext bartext-outside" text-anchor="middle" data-notex="1" style="font-family: TOBESTRIPPEDOpen SansTOBESTRIPPED, verdana, arial, sans-serif; font-size: 12px; fill: rgb(0, 0, 0); fill-opacity: 1; white-space: pre;" x="0" y="0" transform="translate(855.8551983642578,179.88)">3</text></g></g></g><g class="trace bars" style="opacity: 1;"><g class="points"><g class="point"><path style="vector-effect: non-scaling-stroke; opacity: 1; stroke-width: 0px; fill: rgb(141, 160, 203); fill-opacity: 1;" d="M69.41,194.4V194.4H83.52V194.4Z"/><text class="bartext bartext-outside" text-anchor="middle" data-notex="1" style="font-family: TOBESTRIPPEDOpen SansTOBESTRIPPED, verdana, arial, sans-serif; font-size: 12px; fill: rgb(0, 0, 0); fill-opacity: 1; white-space: pre;" x="0" y="0" transform="translate(76.46519836425782,186.4)">0</text></g><g class="point"><path style="vector-effect: non-scaling-stroke; opacity: 1; stroke-width: 0px; fill: rgb(141, 160, 203); fill-opacity: 1;" d="M157.58,194.4V194.4H171.68V194.4Z"/><text class="bartext bartext-outside" text-anchor="middle" data-notex="1" style="font-family: TOBESTRIPPEDOpen SansTOBESTRIPPED, verdana, arial, sans-serif; font-size: 12px; fill: rgb(0, 0, 0); fill-opacity: 1; white-space: pre;" x="0" y="0" transform="translate(164.6301983642578,186.4)">0</text></g><g class="point"><path style="vector-effect: non-scaling-stroke; opacity: 1; stroke-width: 0px; fill: rgb(141, 160, 203); fill-opacity: 1;" d="M245.74,194.4V192.23H259.85V194.4Z"/><text class="bartext bartext-outside" text-anchor="middle" data-notex="1" style="font-family: TOBESTRIPPEDOpen SansTOBESTRIPPED, verdana, arial, sans-serif; font-size: 12px; fill: rgb(0, 0, 0); fill-opacity: 1; white-space: pre;" x="0" y="0" transform="translate(252.79519836425783,184.23)">1</text></g><g class="point"><path style="vector-effect: non-scaling-stroke; opacity: 1; stroke-width: 0px; fill: rgb(141, 160, 203); fill-opacity: 1;" d="M333.91,194.4V185.71H348.02V194.4Z"/><text class="bartext bartext-outside" text-anchor="middle" data-notex="1" style="font-family: TOBESTRIPPEDOpen SansTOBESTRIPPED, verdana, arial, sans-serif; font-size: 12px; fill: rgb(0, 0, 0); fill-opacity: 1; white-space: pre;" x="0" y="0" transform="translate(340.96519836425784,177.71)">4</text></g><g class="point"><path style="vector-effect: non-scaling-stroke; opacity: 1; stroke-width: 0px; fill: rgb(141, 160, 203); fill-opacity: 1;" d="M422.08,194.4V187.88H436.18V194.4Z"/><text class="bartext bartext-outside" text-anchor="middle" data-notex="1" style="font-family: TOBESTRIPPEDOpen SansTOBESTRIPPED, verdana, arial, sans-serif; font-size: 12px; fill: rgb(0, 0, 0); fill-opacity: 1; white-space: pre;" x="0" y="0" transform="translate(429.1301983642578,179.88)">3</text></g><g class="point"><path style="vector-effect: non-scaling-stroke; opacity: 1; stroke-width: 0px; fill: rgb(141, 160, 203); fill-opacity: 1;" d="M510.24,194.4V185.71H524.35V194.4Z"/><text class="bartext bartext-outside" text-anchor="middle" data-notex="1" style="font-family: TOBESTRIPPEDOpen SansTOBESTRIPPED, verdana, arial, sans-serif; font-size: 12px; fill: rgb(0, 0, 0); fill-opacity: 1; white-space: pre;" x="0" y="0" transform="translate(517.2951983642579,177.71)">4</text></g><g class="point"><path style="vector-effect: non-scaling-stroke; opacity: 1; stroke-width: 0px; fill: rgb(141, 160, 203); fill-opacity: 1;" d="M598.41,194.4V183.54H612.52V194.4Z"/><text class="bartext bartext-outside" text-anchor="middle" data-notex="1" style="font-family: TOBESTRIPPEDOpen SansTOBESTRIPPED, verdana, arial, sans-serif; font-size: 12px; fill: rgb(0, 0, 0); fill-opacity: 1; white-space: pre;" x="0" y="0" transform="translate(605.4651983642577,175.54)">5</text></g><g class="point"><path style="vector-effect: non-scaling-stroke; opacity: 1; stroke-width: 0px; fill: rgb(141, 160, 203); fill-opacity: 1;" d="M686.58,194.4V185.71H700.68V194.4Z"/><text class="bartext bartext-outside" text-anchor="middle" data-notex="1" style="font-family: TOBESTRIPPEDOpen SansTOBESTRIPPED, verdana, arial, sans-serif; font-size: 12px; fill: rgb(0, 0, 0); fill-opacity: 1; white-space: pre;" x="0" y="0" transform="translate(693.6301983642578,177.71)">4</text></g><g class="point"><path style="vector-effect: non-scaling-stroke; opacity: 1; stroke-width: 0px; fill: rgb(141, 160, 203); fill-opacity: 1;" d="M774.74,194.4V174.85H788.85V194.4Z"/><text class="bartext bartext-outside" text-anchor="middle" data-notex="1" style="font-family: TOBESTRIPPEDOpen SansTOBESTRIPPED, verdana, arial, sans-serif; font-size: 12px; fill: rgb(0, 0, 0); fill-opacity: 1; white-space: pre;" x="0" y="0" transform="translate(781.7951983642579,166.85)">9</text></g><g class="point"><path style="vector-effect: non-scaling-stroke; opacity: 1; stroke-width: 0px; fill: rgb(141, 160, 203); fill-opacity: 1;" d="M862.91,194.4V146.6H877.02V194.4Z"/><text class="bartext bartext-outside" text-anchor="middle" data-notex="1" style="font-family: TOBESTRIPPEDOpen SansTOBESTRIPPED, verdana, arial, sans-serif; font-size: 12px; fill: rgb(0, 0, 0); fill-opacity: 1; white-space: pre;" x="0" y="0" transform="translate(869.9654096647193,139.12536882406)scale(0.8949262351880034)">22</text></g></g></g></g></g><g class="overplot"/><path class="xlines-above crisp" style="fill: none;" d="M0,0"/><path class="ylines-above crisp" style="fill: none;" d="M0,0"/><g class="overlines-above"/><g class="xaxislayer-above"/><g class="yaxislayer-above"><g class="ytick"><text text-anchor="end" x="59" y="4.199999999999999" style="font-family: TOBESTRIPPEDOpen SansTOBESTRIPPED, verdana, arial, sans-serif; font-size: 12px; fill: rgb(68, 68, 68); fill-opacity: 1; white-space: pre;" transform="translate(0,219.4)">0</text></g><g class="ytick"><text text-anchor="end" x="59" y="4.199999999999999" style="font-family: TOBESTRIPPEDOpen SansTOBESTRIPPED, verdana, arial, sans-serif; font-size: 12px; fill: rgb(68, 68, 68); fill-opacity: 1; white-space: pre;" transform="translate(0,175.95)">20</text></g><g class="ytick"><text text-anchor="end" x="59" y="4.199999999999999" style="font-family: TOBESTRIPPEDOpen SansTOBESTRIPPED, verdana, arial, sans-serif; font-size: 12px; fill: rgb(68, 68, 68); fill-opacity: 1; white-space: pre;" transform="translate(0,132.49)">40</text></g><g class="ytick"><text text-anchor="end" x="59" y="4.199999999999999" style="font-family: TOBESTRIPPEDOpen SansTOBESTRIPPED, verdana, arial, sans-serif; font-size: 12px; fill: rgb(68, 68, 68); fill-opacity: 1; white-space: pre;" transform="translate(0,89.04)">60</text></g><g class="ytick"><text text-anchor="end" x="59" y="4.199999999999999" style="font-family: TOBESTRIPPEDOpen SansTOBESTRIPPED, verdana, arial, sans-serif; font-size: 12px; fill: rgb(68, 68, 68); fill-opacity: 1; white-space: pre;" transform="translate(0,45.58)">80</text></g></g><g class="overaxes-above"/></g><g class="subplot xy2"><g class="layer-subplot"><g class="shapelayer"/><g class="imagelayer"/></g><g class="gridlayer"><g class="x"/><g class="y2"><path class="y2grid crisp" transform="translate(0,378.47)" d="M60,0h890" style="stroke: rgb(238, 238, 238); stroke-opacity: 1; stroke-width: 1px;"/><path class="y2grid crisp" transform="translate(0,340.40999999999997)" d="M60,0h890" style="stroke: rgb(238, 238, 238); stroke-opacity: 1; stroke-width: 1px;"/><path class="y2grid crisp" transform="translate(0,302.35)" d="M60,0h890" style="stroke: rgb(238, 238, 238); stroke-opacity: 1; stroke-width: 1px;"/><path class="y2grid crisp" transform="translate(0,264.29)" d="M60,0h890" style="stroke: rgb(238, 238, 238); stroke-opacity: 1; stroke-width: 1px;"/></g></g><g class="zerolinelayer"><path class="y2zl zl crisp" transform="translate(0,416.53)" d="M60,0h890" style="stroke: rgb(68, 68, 68); stroke-opacity: 1; stroke-width: 1px;"/></g><path class="xlines-below"/><path class="ylines-below"/><g class="overlines-below"/><g class="xaxislayer-below"/><g class="yaxislayer-below"/><g class="overaxes-below"/><g class="plot" transform="translate(60, 235.6)" clip-path="url('#clipc41d20xy2plot')"><g class="scatterlayer mlayer"><g class="trace scatter trace34e760" style="stroke-miterlimit: 2; opacity: 1;"><g class="fills"/><g class="errorbars"/><g class="lines"/><g class="points"><path class="point" transform="translate(48.25,180.93)" style="opacity: 1; stroke-width: 0px; fill: rgb(102, 194, 165); fill-opacity: 1;" d="M3,0A3,3 0 1,1 0,-3A3,3 0 0,1 3,0Z"/></g><g class="text"/></g><g class="trace scatter tracef85b74" style="stroke-miterlimit: 2; opacity: 1;"><g class="fills"/><g class="errorbars"/><g class="lines"><path class="js-line" style="vector-effect: non-scaling-stroke; fill: none; stroke: rgb(231, 138, 195); stroke-opacity: 1; stroke-width: 3px; opacity: 1;" d="M48.25,180.93L136.42,173.32L224.58,178.21L312.75,167.34L400.92,160.27L489.08,153.74L577.25,150.48L665.42,137.98L753.58,159.73L841.75,175.49"/></g><g class="points"><path class="point" transform="translate(48.25,180.93)" style="opacity: 1; stroke-width: 0px; fill: rgb(231, 138, 195); fill-opacity: 1;" d="M3,0A3,3 0 1,1 0,-3A3,3 0 0,1 3,0Z"/><path class="point" transform="translate(136.42,173.32)" style="opacity: 1; stroke-width: 0px; fill: rgb(231, 138, 195); fill-opacity: 1;" d="M3,0A3,3 0 1,1 0,-3A3,3 0 0,1 3,0Z"/><path class="point" transform="translate(224.58,178.21)" style="opacity: 1; stroke-width: 0px; fill: rgb(231, 138, 195); fill-opacity: 1;" d="M3,0A3,3 0 1,1 0,-3A3,3 0 0,1 3,0Z"/><path class="point" transform="translate(312.75,167.34)" style="opacity: 1; stroke-width: 0px; fill: rgb(231, 138, 195); fill-opacity: 1;" d="M3,0A3,3 0 1,1 0,-3A3,3 0 0,1 3,0Z"/><path class="point" transform="translate(400.92,160.27)" style="opacity: 1; stroke-width: 0px; fill: rgb(231, 138, 195); fill-opacity: 1;" d="M3,0A3,3 0 1,1 0,-3A3,3 0 0,1 3,0Z"/><path class="point" transform="translate(489.08,153.74)" style="opacity: 1; stroke-width: 0px; fill: rgb(231, 138, 195); fill-opacity: 1;" d="M3,0A3,3 0 1,1 0,-3A3,3 0 0,1 3,0Z"/><path class="point" transform="translate(577.25,150.48)" style="opacity: 1; stroke-width: 0px; fill: rgb(231, 138, 195); fill-opacity: 1;" d="M3,0A3,3 0 1,1 0,-3A3,3 0 0,1 3,0Z"/><path class="point" transform="translate(665.42,137.98)" style="opacity: 1; stroke-width: 0px; fill: rgb(231, 138, 195); fill-opacity: 1;" d="M3,0A3,3 0 1,1 0,-3A3,3 0 0,1 3,0Z"/><path class="point" transform="translate(753.58,159.73)" style="opacity: 1; stroke-width: 0px; fill: rgb(231, 138, 195); fill-opacity: 1;" d="M3,0A3,3 0 1,1 0,-3A3,3 0 0,1 3,0Z"/><path class="point" transform="translate(841.75,175.49)" style="opacity: 1; stroke-width: 0px; fill: rgb(231, 138, 195); fill-opacity: 1;" d="M3,0A3,3 0 1,1 0,-3A3,3 0 0,1 3,0Z"/></g><g class="text"/></g><g class="trace scatter tracec0bb13" style="stroke-miterlimit: 2; opacity: 1;"><g class="fills"/><g class="errorbars"/><g class="lines"><path class="js-line" style="vector-effect: non-scaling-stroke; fill: none; stroke: rgb(166, 216, 84); stroke-opacity: 1; stroke-width: 3px; opacity: 1;" d="M48.25,180.93L224.58,180.93L312.75,173.32L400.92,180.51L489.08,168.24L577.25,166.55L665.42,152.6L753.58,167.4L841.75,170.78"/></g><g class="points"><path class="point" transform="translate(48.25,180.93)" style="opacity: 1; stroke-width: 0px; fill: rgb(166, 216, 84); fill-opacity: 1;" d="M3,0A3,3 0 1,1 0,-3A3,3 0 0,1 3,0Z"/><path class="point" transform="translate(136.42,180.93)" style="opacity: 1; stroke-width: 0px; fill: rgb(166, 216, 84); fill-opacity: 1;" d="M3,0A3,3 0 1,1 0,-3A3,3 0 0,1 3,0Z"/><path class="point" transform="translate(224.58,180.93)" style="opacity: 1; stroke-width: 0px; fill: rgb(166, 216, 84); fill-opacity: 1;" d="M3,0A3,3 0 1,1 0,-3A3,3 0 0,1 3,0Z"/><path class="point" transform="translate(312.75,173.32)" style="opacity: 1; stroke-width: 0px; fill: rgb(166, 216, 84); fill-opacity: 1;" d="M3,0A3,3 0 1,1 0,-3A3,3 0 0,1 3,0Z"/><path class="point" transform="translate(400.92,180.51)" style="opacity: 1; stroke-width: 0px; fill: rgb(166, 216, 84); fill-opacity: 1;" d="M3,0A3,3 0 1,1 0,-3A3,3 0 0,1 3,0Z"/><path class="point" transform="translate(489.08,168.24)" style="opacity: 1; stroke-width: 0px; fill: rgb(166, 216, 84); fill-opacity: 1;" d="M3,0A3,3 0 1,1 0,-3A3,3 0 0,1 3,0Z"/><path class="point" transform="translate(577.25,166.55)" style="opacity: 1; stroke-width: 0px; fill: rgb(166, 216, 84); fill-opacity: 1;" d="M3,0A3,3 0 1,1 0,-3A3,3 0 0,1 3,0Z"/><path class="point" transform="translate(665.42,152.6)" style="opacity: 1; stroke-width: 0px; fill: rgb(166, 216, 84); fill-opacity: 1;" d="M3,0A3,3 0 1,1 0,-3A3,3 0 0,1 3,0Z"/><path class="point" transform="translate(753.58,167.4)" style="opacity: 1; stroke-width: 0px; fill: rgb(166, 216, 84); fill-opacity: 1;" d="M3,0A3,3 0 1,1 0,-3A3,3 0 0,1 3,0Z"/><path class="point" transform="translate(841.75,170.78)" style="opacity: 1; stroke-width: 0px; fill: rgb(166, 216, 84); fill-opacity: 1;" d="M3,0A3,3 0 1,1 0,-3A3,3 0 0,1 3,0Z"/></g><g class="text"/></g><g class="trace scatter trace3ef233" style="stroke-miterlimit: 2; opacity: 1;"><g class="fills"/><g class="errorbars"/><g class="lines"><path class="js-line" style="vector-effect: non-scaling-stroke; fill: none; stroke: rgb(229, 196, 148); stroke-opacity: 1; stroke-width: 3px; opacity: 1;" d="M48.25,173.32L136.42,173.32L224.58,165.71L312.75,165.71L400.92,150.48L489.08,127.65L577.25,112.42L665.42,112.42L753.58,59.14L841.75,158.09"/></g><g class="points"><path class="point" transform="translate(48.25,173.32)" style="opacity: 1; stroke-width: 0px; fill: rgb(229, 196, 148); fill-opacity: 1;" d="M3,0A3,3 0 1,1 0,-3A3,3 0 0,1 3,0Z"/><path class="point" transform="translate(136.42,173.32)" style="opacity: 1; stroke-width: 0px; fill: rgb(229, 196, 148); fill-opacity: 1;" d="M3,0A3,3 0 1,1 0,-3A3,3 0 0,1 3,0Z"/><path class="point" transform="translate(224.58,165.71)" style="opacity: 1; stroke-width: 0px; fill: rgb(229, 196, 148); fill-opacity: 1;" d="M3,0A3,3 0 1,1 0,-3A3,3 0 0,1 3,0Z"/><path class="point" transform="translate(312.75,165.71)" style="opacity: 1; stroke-width: 0px; fill: rgb(229, 196, 148); fill-opacity: 1;" d="M3,0A3,3 0 1,1 0,-3A3,3 0 0,1 3,0Z"/><path class="point" transform="translate(400.92,150.48)" style="opacity: 1; stroke-width: 0px; fill: rgb(229, 196, 148); fill-opacity: 1;" d="M3,0A3,3 0 1,1 0,-3A3,3 0 0,1 3,0Z"/><path class="point" transform="translate(489.08,127.65)" style="opacity: 1; stroke-width: 0px; fill: rgb(229, 196, 148); fill-opacity: 1;" d="M3,0A3,3 0 1,1 0,-3A3,3 0 0,1 3,0Z"/><path class="point" transform="translate(577.25,112.42)" style="opacity: 1; stroke-width: 0px; fill: rgb(229, 196, 148); fill-opacity: 1;" d="M3,0A3,3 0 1,1 0,-3A3,3 0 0,1 3,0Z"/><path class="point" transform="translate(665.42,112.42)" style="opacity: 1; stroke-width: 0px; fill: rgb(229, 196, 148); fill-opacity: 1;" d="M3,0A3,3 0 1,1 0,-3A3,3 0 0,1 3,0Z"/><path class="point" transform="translate(753.58,59.14)" style="opacity: 1; stroke-width: 0px; fill: rgb(229, 196, 148); fill-opacity: 1;" d="M3,0A3,3 0 1,1 0,-3A3,3 0 0,1 3,0Z"/><path class="point" transform="translate(841.75,158.09)" style="opacity: 1; stroke-width: 0px; fill: rgb(229, 196, 148); fill-opacity: 1;" d="M3,0A3,3 0 1,1 0,-3A3,3 0 0,1 3,0Z"/></g><g class="text"/></g><g class="trace scatter traced87874" style="stroke-miterlimit: 2; opacity: 1;"><g class="fills"/><g class="errorbars"/><g class="lines"><path class="js-line" style="vector-effect: non-scaling-stroke; fill: none; stroke: rgb(141, 160, 203); stroke-opacity: 1; stroke-width: 3px; opacity: 1;" d="M48.25,180.93L136.42,180.93L224.58,173.32L312.75,150.48L400.92,158.09L577.25,142.87L665.42,150.48L753.58,112.42L841.75,13.47"/></g><g class="points"><path class="point" transform="translate(48.25,180.93)" style="opacity: 1; stroke-width: 0px; fill: rgb(141, 160, 203); fill-opacity: 1;" d="M3,0A3,3 0 1,1 0,-3A3,3 0 0,1 3,0Z"/><path class="point" transform="translate(136.42,180.93)" style="opacity: 1; stroke-width: 0px; fill: rgb(141, 160, 203); fill-opacity: 1;" d="M3,0A3,3 0 1,1 0,-3A3,3 0 0,1 3,0Z"/><path class="point" transform="translate(224.58,173.32)" style="opacity: 1; stroke-width: 0px; fill: rgb(141, 160, 203); fill-opacity: 1;" d="M3,0A3,3 0 1,1 0,-3A3,3 0 0,1 3,0Z"/><path class="point" transform="translate(312.75,150.48)" style="opacity: 1; stroke-width: 0px; fill: rgb(141, 160, 203); fill-opacity: 1;" d="M3,0A3,3 0 1,1 0,-3A3,3 0 0,1 3,0Z"/><path class="point" transform="translate(400.92,158.09)" style="opacity: 1; stroke-width: 0px; fill: rgb(141, 160, 203); fill-opacity: 1;" d="M3,0A3,3 0 1,1 0,-3A3,3 0 0,1 3,0Z"/><path class="point" transform="translate(489.08,150.48)" style="opacity: 1; stroke-width: 0px; fill: rgb(141, 160, 203); fill-opacity: 1;" d="M3,0A3,3 0 1,1 0,-3A3,3 0 0,1 3,0Z"/><path class="point" transform="translate(577.25,142.87)" style="opacity: 1; stroke-width: 0px; fill: rgb(141, 160, 203); fill-opacity: 1;" d="M3,0A3,3 0 1,1 0,-3A3,3 0 0,1 3,0Z"/><path class="point" transform="translate(665.42,150.48)" style="opacity: 1; stroke-width: 0px; fill: rgb(141, 160, 203); fill-opacity: 1;" d="M3,0A3,3 0 1,1 0,-3A3,3 0 0,1 3,0Z"/><path class="point" transform="translate(753.58,112.42)" style="opacity: 1; stroke-width: 0px; fill: rgb(141, 160, 203); fill-opacity: 1;" d="M3,0A3,3 0 1,1 0,-3A3,3 0 0,1 3,0Z"/><path class="point" transform="translate(841.75,13.47)" style="opacity: 1; stroke-width: 0px; fill: rgb(141, 160, 203); fill-opacity: 1;" d="M3,0A3,3 0 1,1 0,-3A3,3 0 0,1 3,0Z"/></g><g class="text"/></g></g></g><g class="overplot"/><path class="xlines-above crisp" style="fill: none;" d="M0,0"/><path class="ylines-above crisp" style="fill: none;" d="M0,0"/><g class="overlines-above"/><g class="xaxislayer-above"><g class="xtick"><text text-anchor="middle" x="0" y="443" style="font-family: TOBESTRIPPEDOpen SansTOBESTRIPPED, verdana, arial, sans-serif; font-size: 12px; fill: rgb(68, 68, 68); fill-opacity: 1; white-space: pre;" transform="translate(196.42,0)">2012</text></g><g class="xtick"><text text-anchor="middle" x="0" y="443" style="font-family: TOBESTRIPPEDOpen SansTOBESTRIPPED, verdana, arial, sans-serif; font-size: 12px; fill: rgb(68, 68, 68); fill-opacity: 1; white-space: pre;" transform="translate(372.75,0)">2014</text></g><g class="xtick"><text text-anchor="middle" x="0" y="443" style="font-family: TOBESTRIPPEDOpen SansTOBESTRIPPED, verdana, arial, sans-serif; font-size: 12px; fill: rgb(68, 68, 68); fill-opacity: 1; white-space: pre;" transform="translate(549.0799999999999,0)">2016</text></g><g class="xtick"><text text-anchor="middle" x="0" y="443" style="font-family: TOBESTRIPPEDOpen SansTOBESTRIPPED, verdana, arial, sans-serif; font-size: 12px; fill: rgb(68, 68, 68); fill-opacity: 1; white-space: pre;" transform="translate(725.42,0)">2018</text></g><g class="xtick"><text text-anchor="middle" x="0" y="443" style="font-family: TOBESTRIPPEDOpen SansTOBESTRIPPED, verdana, arial, sans-serif; font-size: 12px; fill: rgb(68, 68, 68); fill-opacity: 1; white-space: pre;" transform="translate(901.75,0)">2020</text></g></g><g class="yaxislayer-above"><g class="y2tick"><text text-anchor="end" x="59" y="4.199999999999999" style="font-family: TOBESTRIPPEDOpen SansTOBESTRIPPED, verdana, arial, sans-serif; font-size: 12px; fill: rgb(68, 68, 68); fill-opacity: 1; white-space: pre;" transform="translate(0,416.53)">0</text></g><g class="y2tick"><text text-anchor="end" x="59" y="4.199999999999999" style="font-family: TOBESTRIPPEDOpen SansTOBESTRIPPED, verdana, arial, sans-serif; font-size: 12px; fill: rgb(68, 68, 68); fill-opacity: 1; white-space: pre;" transform="translate(0,378.47)">5</text></g><g class="y2tick"><text text-anchor="end" x="59" y="4.199999999999999" style="font-family: TOBESTRIPPEDOpen SansTOBESTRIPPED, verdana, arial, sans-serif; font-size: 12px; fill: rgb(68, 68, 68); fill-opacity: 1; white-space: pre;" transform="translate(0,340.40999999999997)">10</text></g><g class="y2tick"><text text-anchor="end" x="59" y="4.199999999999999" style="font-family: TOBESTRIPPEDOpen SansTOBESTRIPPED, verdana, arial, sans-serif; font-size: 12px; fill: rgb(68, 68, 68); fill-opacity: 1; white-space: pre;" transform="translate(0,302.35)">15</text></g><g class="y2tick"><text text-anchor="end" x="59" y="4.199999999999999" style="font-family: TOBESTRIPPEDOpen SansTOBESTRIPPED, verdana, arial, sans-serif; font-size: 12px; fill: rgb(68, 68, 68); fill-opacity: 1; white-space: pre;" transform="translate(0,264.29)">20</text></g></g><g class="overaxes-above"/></g></g><g class="polarlayer"/><g class="ternarylayer"/><g class="geolayer"/><g class="funnelarealayer"/><g class="pielayer"/><g class="treemaplayer"/><g class="sunburstlayer"/><g class="glimages"/><defs id="topdefs-c41d20"><g class="clips"/><clipPath id="legendc41d20"><rect width="285" height="105" x="0" y="0"/></clipPath></defs><g class="layer-above"><g class="imagelayer"/><g class="shapelayer"/></g><g class="infolayer"><g class="legend" pointer-events="all" transform="translate(104.5, 25)"><rect class="bg" shape-rendering="crispEdges" style="stroke: rgb(68, 68, 68); stroke-opacity: 1; fill: rgb(0, 0, 0); fill-opacity: 0; stroke-width: 0px;" width="285" height="105" x="0" y="0"/><g class="scrollbox" transform="translate(0, 0)" clip-path="url('#legendc41d20')"><g class="groups"><g class="traces" style="opacity: 1;" transform="translate(0, 14.5)"><text class="legendtext" text-anchor="start" style="font-family: TOBESTRIPPEDOpen SansTOBESTRIPPED, verdana, arial, sans-serif; font-size: 12px; fill: rgb(68, 68, 68); fill-opacity: 1; white-space: pre;" x="40" y="4.680000000000001">Energy &amp; Fuels</text><g class="layers" style="opacity: 1;"><g class="legendfill"/><g class="legendlines"/><g class="legendsymbols"><g class="legendpoints"><path class="legendundefined" d="M6,6H-6V-6H6Z" transform="translate(20,0)" style="stroke-width: 0px; fill: rgb(102, 194, 165); fill-opacity: 1;"/></g></g></g><rect class="legendtoggle" style="fill: rgb(0, 0, 0); fill-opacity: 0;" x="0" y="-9.5" width="279.1333312988281" height="19"/></g><g class="traces" style="opacity: 1;" transform="translate(0, 33.5)"><text class="legendtext" text-anchor="start" style="font-family: TOBESTRIPPEDOpen SansTOBESTRIPPED, verdana, arial, sans-serif; font-size: 12px; fill: rgb(68, 68, 68); fill-opacity: 1; white-space: pre;" x="40" y="4.680000000000001">Engineering, Electrical &amp; Electronic</text><g class="layers" style="opacity: 1;"><g class="legendfill"/><g class="legendlines"/><g class="legendsymbols"><g class="legendpoints"><path class="legendundefined" d="M6,6H-6V-6H6Z" transform="translate(20,0)" style="stroke-width: 0px; fill: rgb(231, 138, 195); fill-opacity: 1;"/></g></g></g><rect class="legendtoggle" style="fill: rgb(0, 0, 0); fill-opacity: 0;" x="0" y="-9.5" width="279.1333312988281" height="19"/></g><g class="traces" style="opacity: 1;" transform="translate(0, 52.5)"><text class="legendtext" text-anchor="start" style="font-family: TOBESTRIPPEDOpen SansTOBESTRIPPED, verdana, arial, sans-serif; font-size: 12px; fill: rgb(68, 68, 68); fill-opacity: 1; white-space: pre;" x="40" y="4.680000000000001">Green &amp; Sustainable Science &amp; Technology</text><g class="layers" style="opacity: 1;"><g class="legendfill"/><g class="legendlines"/><g class="legendsymbols"><g class="legendpoints"><path class="legendundefined" d="M6,6H-6V-6H6Z" transform="translate(20,0)" style="stroke-width: 0px; fill: rgb(166, 216, 84); fill-opacity: 1;"/></g></g></g><rect class="legendtoggle" style="fill: rgb(0, 0, 0); fill-opacity: 0;" x="0" y="-9.5" width="279.1333312988281" height="19"/></g><g class="traces" style="opacity: 1;" transform="translate(0, 71.5)"><text class="legendtext" text-anchor="start" style="font-family: TOBESTRIPPEDOpen SansTOBESTRIPPED, verdana, arial, sans-serif; font-size: 12px; fill: rgb(68, 68, 68); fill-opacity: 1; white-space: pre;" x="40" y="4.680000000000001">Telecommunications</text><g class="layers" style="opacity: 1;"><g class="legendfill"/><g class="legendlines"/><g class="legendsymbols"><g class="legendpoints"><path class="legendundefined" d="M6,6H-6V-6H6Z" transform="translate(20,0)" style="stroke-width: 0px; fill: rgb(229, 196, 148); fill-opacity: 1;"/></g></g></g><rect class="legendtoggle" style="fill: rgb(0, 0, 0); fill-opacity: 0;" x="0" y="-9.5" width="279.1333312988281" height="19"/></g><g class="traces" style="opacity: 1;" transform="translate(0, 90.5)"><text class="legendtext" text-anchor="start" style="font-family: TOBESTRIPPEDOpen SansTOBESTRIPPED, verdana, arial, sans-serif; font-size: 12px; fill: rgb(68, 68, 68); fill-opacity: 1; white-space: pre;" x="40" y="4.680000000000001">Materials Science, Multidisciplinary</text><g class="layers" style="opacity: 1;"><g class="legendfill"/><g class="legendlines"/><g class="legendsymbols"><g class="legendpoints"><path class="legendundefined" d="M6,6H-6V-6H6Z" transform="translate(20,0)" style="stroke-width: 0px; fill: rgb(141, 160, 203); fill-opacity: 1;"/></g></g></g><rect class="legendtoggle" style="fill: rgb(0, 0, 0); fill-opacity: 0;" x="0" y="-9.5" width="279.1333312988281" height="19"/></g></g></g><rect class="scrollbar" rx="20" ry="3" width="0" height="0" style="fill: rgb(128, 139, 164); fill-opacity: 1;" x="0" y="0"/></g><g class="g-gtitle"/><g class="g-xtitle" transform="translate(0,-18)"><text class="xtitle" style="font-family: TOBESTRIPPEDOpen SansTOBESTRIPPED, verdana, arial, sans-serif; font-size: 14px; fill: rgb(68, 68, 68); opacity: 1; font-weight: normal; white-space: pre;" x="505" y="482" text-anchor="middle">Years</text></g><g class="g-ytitle"/><g class="g-y2title"/></g></svg>