<svg class="main-svg" xmlns="http://www.w3.org/2000/svg" xmlns:xlink="http://www.w3.org/1999/xlink" width="800" height="392" style="" viewBox="0 0 800 392"><rect x="0" y="0" width="800" height="392" style="fill: rgb(255, 255, 255); fill-opacity: 1;"/><defs id="defs-af54ff"><g class="clips"><clipPath id="clipaf54ffxyplot" class="plotclip"><rect width="730" height="327"/></clipPath><clipPath id="clipaf54ffxy2plot" class="plotclip"><rect width="730" height="327"/></clipPath><clipPath class="axesclip" id="clipaf54ffx"><rect x="60" y="0" width="730" height="392"/></clipPath><clipPath class="axesclip" id="clipaf54ffy"><rect x="0" y="25" width="800" height="327"/></clipPath><clipPath class="axesclip" id="clipaf54ffxy"><rect x="60" y="25" width="730" height="327"/></clipPath><clipPath class="axesclip" id="clipaf54ffy2"><rect x="0" y="25" width="800" height="327"/></clipPath><clipPath class="axesclip" id="clipaf54ffxy2"><rect x="60" y="25" width="730" height="327"/></clipPath></g><g class="gradients"/></defs><g class="bglayer"/><g class="layer-below"><g class="imagelayer"/><g class="shapelayer"/></g><g class="cartesianlayer"><g class="subplot xy"><g class="layer-subplot"><g class="shapelayer"/><g class="imagelayer"/></g><g class="gridlayer"><g class="x"/><g class="y"/><g class="y2"/></g><g class="zerolinelayer"><path class="yzl zl crisp" transform="translate(0,352)" d="M60,0h730" style="stroke: rgb(68, 68, 68); stroke-opacity: 1; stroke-width: 1px;"/></g><path class="xlines-below"/><path class="ylines-below"/><g class="overlines-below"><path class="xy2-x"/><path class="xy2-y"/></g><g class="xaxislayer-below"/><g class="yaxislayer-below"/><g class="overaxes-below"><g class="xy2-x"/><g class="xy2-y"/></g><g class="plot" transform="translate(60, 25)" clip-path="url('#clipaf54ffxyplot')"><g class="barlayer mlayer"><g class="trace bars" style="opacity: 1;"><g class="points"><g class="point"><path style="vector-effect: non-scaling-stroke; opacity: 1; stroke-width: 0px; fill: rgb(146, 78, 60); fill-opacity: 1;" d="M11.38,327V254.37H69.12V327Z"/></g><g class="point"><path style="vector-effect: non-scaling-stroke; opacity: 1; stroke-width: 0px; fill: rgb(146, 78, 60); fill-opacity: 1;" d="M83.55,327V238.48H141.28V327Z"/></g><g class="point"><path style="vector-effect: non-scaling-stroke; opacity: 1; stroke-width: 0px; fill: rgb(146, 78, 60); fill-opacity: 1;" d="M155.72,327V213.47H213.45V327Z"/></g><g class="point"><path style="vector-effect: non-scaling-stroke; opacity: 1; stroke-width: 0px; fill: rgb(146, 78, 60); fill-opacity: 1;" d="M227.88,327V178.39H285.62V327Z"/></g><g class="point"><path style="vector-effect: non-scaling-stroke; opacity: 1; stroke-width: 0px; fill: rgb(146, 78, 60); fill-opacity: 1;" d="M300.05,327V149.58H357.78V327Z"/></g><g class="point"><path style="vector-effect: non-scaling-stroke; opacity: 1; stroke-width: 0px; fill: rgb(146, 78, 60); fill-opacity: 1;" d="M372.22,327V112.22H429.95V327Z"/></g><g class="point"><path style="vector-effect: non-scaling-stroke; opacity: 1; stroke-width: 0px; fill: rgb(146, 78, 60); fill-opacity: 1;" d="M444.38,327V76.25H502.12V327Z"/></g><g class="point"><path style="vector-effect: non-scaling-stroke; opacity: 1; stroke-width: 0px; fill: rgb(146, 78, 60); fill-opacity: 1;" d="M516.55,327V40.48H574.28V327Z"/></g><g class="point"><path style="vector-effect: non-scaling-stroke; opacity: 1; stroke-width: 0px; fill: rgb(146, 78, 60); fill-opacity: 1;" d="M588.72,327V16.35H646.45V327Z"/></g><g class="point"><path style="vector-effect: non-scaling-stroke; opacity: 1; stroke-width: 0px; fill: rgb(146, 78, 60); fill-opacity: 1;" d="M660.88,327V20.85H718.62V327Z"/></g></g></g></g></g><g class="overplot"><g class="xy2" transform="translate(60, 25)" clip-path="url('#clipaf54ffxy2plot')"><g class="scatterlayer mlayer"><g class="trace scatter tracecad56a" style="stroke-miterlimit: 2; opacity: 1;"><g class="fills"/><g class="errorbars"/><g class="lines"><path class="js-line" style="vector-effect: non-scaling-stroke; fill: none; stroke: rgb(196, 137, 25); stroke-opacity: 1; stroke-width: 3px; opacity: 1;" d="M40.25,306.9L112.42,287.75L184.58,257.61L256.75,215.34L328.92,180.63L401.08,135.61L473.25,92.28L545.42,49.17L617.58,20.1L689.75,25.52"/></g><g class="points"><path class="point" transform="translate(40.25,306.9)" style="opacity: 1; stroke-width: 0px; fill: rgb(196, 137, 25); fill-opacity: 1;" d="M3,0A3,3 0 1,1 0,-3A3,3 0 0,1 3,0Z"/><path class="point" transform="translate(112.42,287.75)" style="opacity: 1; stroke-width: 0px; fill: rgb(196, 137, 25); fill-opacity: 1;" d="M3,0A3,3 0 1,1 0,-3A3,3 0 0,1 3,0Z"/><path class="point" transform="translate(184.58,257.61)" style="opacity: 1; stroke-width: 0px; fill: rgb(196, 137, 25); fill-opacity: 1;" d="M3,0A3,3 0 1,1 0,-3A3,3 0 0,1 3,0Z"/><path class="point" transform="translate(256.75,215.34)" style="opacity: 1; stroke-width: 0px; fill: rgb(196, 137, 25); fill-opacity: 1;" d="M3,0A3,3 0 1,1 0,-3A3,3 0 0,1 3,0Z"/><path class="point" transform="translate(328.92,180.63)" style="opacity: 1; stroke-width: 0px; fill: rgb(196, 137, 25); fill-opacity: 1;" d="M3,0A3,3 0 1,1 0,-3A3,3 0 0,1 3,0Z"/><path class="point" transform="translate(401.08,135.61)" style="opacity: 1; stroke-width: 0px; fill: rgb(196, 137, 25); fill-opacity: 1;" d="M3,0A3,3 0 1,1 0,-3A3,3 0 0,1 3,0Z"/><path class="point" transform="translate(473.25,92.28)" style="opacity: 1; stroke-width: 0px; fill: rgb(196, 137, 25); fill-opacity: 1;" d="M3,0A3,3 0 1,1 0,-3A3,3 0 0,1 3,0Z"/><path class="point" transform="translate(545.42,49.17)" style="opacity: 1; stroke-width: 0px; fill: rgb(196, 137, 25); fill-opacity: 1;" d="M3,0A3,3 0 1,1 0,-3A3,3 0 0,1 3,0Z"/><path class="point" transform="translate(617.58,20.1)" style="opacity: 1; stroke-width: 0px; fill: rgb(196, 137, 25); fill-opacity: 1;" d="M3,0A3,3 0 1,1 0,-3A3,3 0 0,1 3,0Z"/><path class="point" transform="translate(689.75,25.52)" style="opacity: 1; stroke-width: 0px; fill: rgb(196, 137, 25); fill-opacity: 1;" d="M3,0A3,3 0 1,1 0,-3A3,3 0 0,1 3,0Z"/></g><g class="text"/></g></g></g></g><path class="xlines-above crisp" style="fill: none;" d="M0,0"/><path class="ylines-above crisp" style="fill: none;" d="M0,0"/><g class="overlines-above"><path class="xy2-x crisp" style="fill: none;" d="M0,0"/><path class="xy2-y crisp" style="fill: none;" d="M0,0"/></g><g class="xaxislayer-above"><g class="xtick"><text text-anchor="middle" x="0" y="365" style="font-family: TOBESTRIPPEDOpen SansTOBESTRIPPED, verdana, arial, sans-serif; font-size: 12px; fill: rgb(68, 68, 68); fill-opacity: 1; white-space: pre;" transform="translate(172.42000000000002,0)">2012</text></g><g class="xtick"><text text-anchor="middle" x="0" y="365" style="font-family: TOBESTRIPPEDOpen SansTOBESTRIPPED, verdana, arial, sans-serif; font-size: 12px; fill: rgb(68, 68, 68); fill-opacity: 1; white-space: pre;" transform="translate(316.75,0)">2014</text></g><g class="xtick"><text text-anchor="middle" x="0" y="365" style="font-family: TOBESTRIPPEDOpen SansTOBESTRIPPED, verdana, arial, sans-serif; font-size: 12px; fill: rgb(68, 68, 68); fill-opacity: 1; white-space: pre;" transform="translate(461.08,0)">2016</text></g><g class="xtick"><text text-anchor="middle" x="0" y="365" style="font-family: TOBESTRIPPEDOpen SansTOBESTRIPPED, verdana, arial, sans-serif; font-size: 12px; fill: rgb(68, 68, 68); fill-opacity: 1; white-space: pre;" transform="translate(605.42,0)">2018</text></g><g class="xtick"><text text-anchor="middle" x="0" y="365" style="font-family: TOBESTRIPPEDOpen SansTOBESTRIPPED, verdana, arial, sans-serif; font-size: 12px; fill: rgb(68, 68, 68); fill-opacity: 1; white-space: pre;" transform="translate(749.75,0)">2020</text></g></g><g class="yaxislayer-above"><g class="ytick"><text text-anchor="end" x="59" y="4.199999999999999" style="font-family: TOBESTRIPPEDOpen SansTOBESTRIPPED, verdana, arial, sans-serif; font-size: 12px; fill: rgb(68, 68, 68); fill-opacity: 1; white-space: pre;" transform="translate(0,352)">0</text></g><g class="ytick"><text text-anchor="end" x="59" y="4.199999999999999" style="font-family: TOBESTRIPPEDOpen SansTOBESTRIPPED, verdana, arial, sans-serif; font-size: 12px; fill: rgb(68, 68, 68); fill-opacity: 1; white-space: pre;" transform="translate(0,288.68)">1000</text></g><g class="ytick"><text text-anchor="end" x="59" y="4.199999999999999" style="font-family: TOBESTRIPPEDOpen SansTOBESTRIPPED, verdana, arial, sans-serif; font-size: 12px; fill: rgb(68, 68, 68); fill-opacity: 1; white-space: pre;" transform="translate(0,225.36)">2000</text></g><g class="ytick"><text text-anchor="end" x="59" y="4.199999999999999" style="font-family: TOBESTRIPPEDOpen SansTOBESTRIPPED, verdana, arial, sans-serif; font-size: 12px; fill: rgb(68, 68, 68); fill-opacity: 1; white-space: pre;" transform="translate(0,162.04)">3000</text></g><g class="ytick"><text text-anchor="end" x="59" y="4.199999999999999" style="font-family: TOBESTRIPPEDOpen SansTOBESTRIPPED, verdana, arial, sans-serif; font-size: 12px; fill: rgb(68, 68, 68); fill-opacity: 1; white-space: pre;" transform="translate(0,98.72)">4000</text></g><g class="ytick"><text text-anchor="end" x="59" y="4.199999999999999" style="font-family: TOBESTRIPPEDOpen SansTOBESTRIPPED, verdana, arial, sans-serif; font-size: 12px; fill: rgb(68, 68, 68); fill-opacity: 1; white-space: pre;" transform="translate(0,35.4)">5000</text></g></g><g class="overaxes-above"><g class="xy2-x"/><g class="xy2-y"><g class="y2tick"><text text-anchor="start" x="791" y="4.199999999999999" style="font-family: TOBESTRIPPEDOpen SansTOBESTRIPPED, verdana, arial, sans-serif; font-size: 12px; fill: rgb(68, 68, 68); fill-opacity: 1; white-space: pre;" transform="translate(0,331.9)">1</text></g><g class="y2tick"><text text-anchor="start" x="791" y="4.199999999999999" style="font-family: TOBESTRIPPEDOpen SansTOBESTRIPPED, verdana, arial, sans-serif; font-size: 12px; fill: rgb(68, 68, 68); fill-opacity: 1; white-space: pre;" transform="translate(0,288.14)">1.5</text></g><g class="y2tick"><text text-anchor="start" x="791" y="4.199999999999999" style="font-family: TOBESTRIPPEDOpen SansTOBESTRIPPED, verdana, arial, sans-serif; font-size: 12px; fill: rgb(68, 68, 68); fill-opacity: 1; white-space: pre;" transform="translate(0,244.39)">2</text></g><g class="y2tick"><text text-anchor="start" x="791" y="4.199999999999999" style="font-family: TOBESTRIPPEDOpen SansTOBESTRIPPED, verdana, arial, sans-serif; font-size: 12px; fill: rgb(68, 68, 68); fill-opacity: 1; white-space: pre;" transform="translate(0,200.63)">2.5</text></g><g class="y2tick"><text text-anchor="start" x="791" y="4.199999999999999" style="font-family: TOBESTRIPPEDOpen SansTOBESTRIPPED, verdana, arial, sans-serif; font-size: 12px; fill: rgb(68, 68, 68); fill-opacity: 1; white-space: pre;" transform="translate(0,156.87)">3</text></g><g class="y2tick"><text text-anchor="start" x="791" y="4.199999999999999" style="font-family: TOBESTRIPPEDOpen SansTOBESTRIPPED, verdana, arial, sans-serif; font-size: 12px; fill: rgb(68, 68, 68); fill-opacity: 1; white-space: pre;" transform="translate(0,113.12)">3.5</text></g><g class="y2tick"><text text-anchor="start" x="791" y="4.199999999999999" style="font-family: TOBESTRIPPEDOpen SansTOBESTRIPPED, verdana, arial, sans-serif; font-size: 12px; fill: rgb(68, 68, 68); fill-opacity: 1; white-space: pre;" transform="translate(0,69.36)">4</text></g><g class="y2tick"><text text-anchor="start" x="791" y="4.199999999999999" style="font-family: TOBESTRIPPEDOpen SansTOBESTRIPPED, verdana, arial, sans-serif; font-size: 12px; fill: rgb(68, 68, 68); fill-opacity: 1; white-space: pre;" transform="translate(0,25.61)">4.5</text></g></g></g></g><g class="subplot xy2"/></g><g class="polarlayer"/><g class="ternarylayer"/><g class="geolayer"/><g class="funnelarealayer"/><g class="pielayer"/><g class="treemaplayer"/><g class="sunburstlayer"/><g class="glimages"/><defs id="topdefs-af54ff"><g class="clips"/><clipPath id="legendaf54ff"><rect width="137" height="48" x="0" y="0"/></clipPath></defs><g class="layer-above"><g class="imagelayer"/><g class="shapelayer"/></g><g class="infolayer"><g class="legend" pointer-events="all" transform="translate(133, 57.699999999999996)"><rect class="bg" shape-rendering="crispEdges" style="stroke: rgb(68, 68, 68); stroke-opacity: 1; fill: rgb(255, 255, 255); fill-opacity: 1; stroke-width: 0px;" width="137" height="48" x="0" y="0"/><g class="scrollbox" transform="translate(0, 0)" clip-path="url('#legendaf54ff')"><g class="groups"><g class="traces" style="opacity: 1;" transform="translate(0, 14.5)"><text class="legendtext" text-anchor="start" style="font-family: TOBESTRIPPEDOpen SansTOBESTRIPPED, verdana, arial, sans-serif; font-size: 12px; fill: rgb(68, 68, 68); fill-opacity: 1; white-space: pre;" x="40" y="4.680000000000001">Number of pub.</text><g class="layers" style="opacity: 1;"><g class="legendfill"/><g class="legendlines"/><g class="legendsymbols"><g class="legendpoints"><path class="legendundefined" d="M6,6H-6V-6H6Z" transform="translate(20,0)" style="stroke-width: 0px; fill: rgb(146, 78, 60); fill-opacity: 1;"/></g></g></g><rect class="legendtoggle" style="fill: rgb(0, 0, 0); fill-opacity: 0;" x="0" y="-9.5" width="131.38333129882812" height="19"/></g><g class="traces" style="opacity: 1;" transform="translate(0, 33.5)"><text class="legendtext" text-anchor="start" style="font-family: TOBESTRIPPEDOpen SansTOBESTRIPPED, verdana, arial, sans-serif; font-size: 12px; fill: rgb(68, 68, 68); fill-opacity: 1; white-space: pre;" x="40" y="4.680000000000001">Relative growth</text><g class="layers" style="opacity: 1;"><g class="legendfill"/><g class="legendlines"><path class="js-line" d="M5,0h30" style="fill: none; stroke: rgb(196, 137, 25); stroke-opacity: 1; stroke-width: 3px;"/></g><g class="legendsymbols"><g class="legendpoints"><path class="scatterpts" transform="translate(20,0)" style="opacity: 1; stroke-width: 0px; fill: rgb(196, 137, 25); fill-opacity: 1;" d="M3,0A3,3 0 1,1 0,-3A3,3 0 0,1 3,0Z"/></g></g></g><rect class="legendtoggle" style="fill: rgb(0, 0, 0); fill-opacity: 0;" x="0" y="-9.5" width="131.38333129882812" height="19"/></g></g></g><rect class="scrollbar" rx="20" ry="3" width="0" height="0" style="fill: rgb(128, 139, 164); fill-opacity: 1;" x="0" y="0"/></g><g class="g-gtitle"/><g class="g-xtitle"/><g class="g-ytitle"/><g class="g-y2title"/></g></svg>